<?xml version="1.0" encoding="iso-8859-1"?>
<!-- Generator: Adobe Illustrator 16.0.0, SVG Export Plug-In . SVG Version: 6.00 Build 0)  -->
<!DOCTYPE svg PUBLIC "-//W3C//DTD SVG 1.1//EN" "http://www.w3.org/Graphics/SVG/1.1/DTD/svg11.dtd">
<svg version="1.1" id="Capa_1" xmlns="http://www.w3.org/2000/svg" xmlns:xlink="http://www.w3.org/1999/xlink" x="0px" y="0px"
	 width="425.2px" height="425.2px" viewBox="0 0 425.2 425.2" style="enable-background:new 0 0 425.2 425.2;" xml:space="preserve"
	>
<g>
	<path style="fill-rule:evenodd;clip-rule:evenodd;fill:#201813;" d="M317.979,70.927c0.175,0.026,0.352,0.08,0.527,0.094
		c-0.028,0.051-0.046,0.102-0.06,0.169c-0.161-0.093-0.298-0.184-0.451-0.277L317.979,70.927z"/>
	<g>
		<path style="fill-rule:evenodd;clip-rule:evenodd;fill:#201813;" d="M298.117,353.198c-6.589,1.681-13.036,3.859-19.494,6.024
			c-3.428,0.93-6.754,2.218-10.122,3.386c-8.517,2.939-17.141,5.602-25.821,8.043c-5.775,1.627-11.215,0.195-15.421-4.094
			c-7.104-7.284-8.715-16.205-6.409-25.85c1.479-6.076,4.848-10.997,10.773-13.608c3.39-1.483,6.911-2.717,10.396-3.925
			c8.457-2.926,17.02-5.51,25.542-8.227c3.362-1.024,6.711-2.102,10.056-3.122c-0.105-0.867-0.644-1.236-1.034-1.706
			c-6.314-7.783-13.178-15.076-19.546-22.806c-4.677-5.645-9.653-11.022-14.351-16.653c-6.513-7.782-7.717-20.838-2.785-29.709
			c3.99-7.178,12.311-11.402,19.47-9.828c3.579,0.788,6.433,2.834,8.973,5.38c5.39,5.406,9.866,11.573,14.913,17.269
			c3.059,3.426,6.197,6.785,9.072,10.368c5.66,7.03,11.895,13.58,17.628,20.535c5.244,6.39,10.793,12.479,16.16,18.736
			c5.252,6.129,9.032,12.743,8.504,21.167c-0.048,0.552-0.076,1.116-0.152,1.666c-1.032,8.451-4.859,15.065-12.511,19.211
			c-3.595,1.222-7.199,2.429-10.805,3.663c-0.335-0.028-0.567,0.039-0.544,0.459l-0.132,0.079c-0.815-0.316-1.511,0.103-2.222,0.327
			C304.861,351.035,301.507,352.149,298.117,353.198z"/>
		<path style="fill-rule:evenodd;clip-rule:evenodd;fill:#201813;" d="M75.413,321.497c-0.219-0.146-1.009,0.037-0.312-0.593
			c3.224-0.039,6.427-0.065,9.67-0.102c4.649,0.102,9.321,0.26,13.989-0.095c5.806,0.275,11.601,0.105,17.421-0.039
			c6.283,0.406,12.588,0.264,18.879,0.093c6.005,0.405,12.027,0.171,18.02,0.104c0.723-0.012,1.564-0.063,2.121-0.734
			c0.26,0,0.437-0.092,0.454-0.366l-0.017,0.04c0.888-0.186,1.324-0.973,1.925-1.537c6.172-5.931,12.37-11.822,18.317-17.992
			c1.384-1.416,2.901-2.701,4.349-4.053c-0.117-0.146-0.224-0.301-0.357-0.471c-1.604-0.108-3.198-0.21-4.789-0.33
			c-8.003-0.748-16.018-1.481-24.021-2.204c-5.885-0.525-11.768-1.063-17.657-1.548c-1.58-0.131-3.172-0.63-4.774-0.092
			c-1.029-0.629-2.197-0.38-3.305-0.488c-3.391-0.351-6.801-0.654-10.204-0.994c5.115-0.604,10.204-0.709,15.313-0.486
			c8.109-0.026,16.222-0.052,24.333-0.052c9.217,0.155,18.442,0.13,27.665-0.054c2.85,0.498,5.373-0.117,7.17-2.508
			c1.619-2.137,3.781-3.752,5.483-5.8l-0.025,0.014c0.473-0.104,0.74-0.434,0.871-0.864h-0.063c0.136-0.093,0.264-0.159,0.405-0.223
			c5.404-4.948,10.737-9.937,15.71-15.342c0.223-0.249,0.538-0.604,0.504-0.865c-0.074-0.523-0.622-0.444-1.021-0.499
			c-6.157-0.684-12.321-1.364-18.49-2.046c-5.747-0.669-11.488-1.404-17.243-2.021c-4.134-0.435-8.247-1.179-12.406-1.273
			c-0.533-0.185-1.27,0.195-1.656-0.564c1.123-0.669,2.285-0.119,3.419-0.158c12.264-0.025,24.558-0.037,36.825-0.051
			c3.501,0.025,7.051-0.262,10.527,0.144c5.324,0.591,9.457-1.087,12.709-5.275c1.465-1.849,3.738-3.006,4.695-5.302l-0.026,0.014
			c0.369,0.065,0.57-0.093,0.676-0.433c1.748-1.589,3.51-3.176,5.731-5.223c-0.651,3.175-1.536,5.615-1.905,8.177
			c-1.261,8.882,1.029,16.782,6.484,23.773c2.647,3.389,5.807,6.354,8.339,9.856c1.167,1.587,2.233,3.254,3.446,4.791
			c0.891,1.103-0.094,1.468-0.641,2.006c-4.465,4.305-9.117,8.453-13.433,12.926c-6.657,6.904-13.902,13.203-20.531,20.13
			c-6.191,6.469-12.988,12.31-19.114,18.818c-4.78,5.064-10.06,9.58-14.777,14.684c-3.572,3.594-7.122,7.189-10.688,10.798
			c-3.524,2.835-6.66,6.063-9.764,9.331c-2.042,1.928-4.4,3.479-6.107,5.749c-6.719,4.434-13.73,4.933-20.475,0.55
			c-4.763-3.096-7.632-7.967-9.376-13.409c-0.207-0.607-0.4-1.209-0.603-1.812c-0.239-1.103-0.488-2.191-0.744-3.295
			c-1.1-11.127,3.706-19.669,11.684-26.873c2.554-2.297,4.865-4.872,7.304-7.285c0.745-0.472,1.471-0.943,1.918-2.07
			c-2.523-0.2-4.859-0.37-7.212-0.567c-5.038-0.472-10.087-0.981-15.145-1.364c-3.133-0.235-6.254-0.864-9.441-0.643
			c-5.557-0.642-11.131-1.299-16.704-1.94c-4.616-0.658-9.245-1.105-13.926-1.261C81.704,321.783,78.583,321.458,75.413,321.497z"/>
		<g>
			<path style="fill-rule:evenodd;clip-rule:evenodd;fill:#201813;" d="M332.84,112.617c3.151,0.012,6.313,0.08,9.45,0.012
				c1.891-0.038,2.708-1.165,2.474-3.028c0.974-0.617,1.056-1.774,1.603-2.645c0.352-0.61,0.021-0.933-0.547-1.029
				c-3.079-0.513-6.062-1.551-9.22-1.707c-0.064-0.029-0.128-0.068-0.191-0.114c-0.159-0.386-0.472-0.491-0.869-0.439
				c-4.587-1.01-9.202-2.008-13.806-3.031c0.019-0.184,0.045-0.369,0.045-0.54c2.194,0,4.372,0,6.569,0
				c5.604-0.024,11.229-0.04,16.831-0.051c5.135,1.208,8.585-1.298,11.397-5.21c0.315-0.451,0.845-0.726,1.678-1.409
				c-6.004-1.412-11.515-2.716-17.037-4.023c0.016-0.709,0.565-0.485,0.934-0.485c10.1,0.014,20.206,0.026,30.294,0.051
				c5.564,0.014,10.969,0.918,15.575,4.043c7.646,5.168,12.949,12.255,15.664,21.133c0.793,2.514,1.383,5.105,2.069,7.631
				c0,4.25,0,8.488,0,12.722c-0.927,0.689-0.638,1.777-0.83,2.682c-2.282,10.827-7.108,19.948-16.903,25.884
				c-2.599,1.576-5.429,2.605-8.264,3.609c-1.259,0.204-2.547,0.413-3.799,0.61c-2.694,0.02-5.354-0.197-8.035-0.55
				c-1.245-0.386-2.507-0.735-3.748-1.173c-8.832-3.21-14.632-9.535-18.514-17.894c-0.561-1.437-1.137-2.86-1.657-4.312
				c-2.567-7.394-3.281-14.938-1.953-22.68c0.155-0.874,0.69-1.968-0.976-2.218c-3.27-0.474-6.515-1.051-9.77-1.588
				c-5.348-1.537-11.075-1.485-16.246-3.898c1.367-0.195,2.7-0.195,4.026-0.195C323.661,112.722,328.246,112.668,332.84,112.617z"/>
			<path style="fill-rule:evenodd;clip-rule:evenodd;fill:#201813;" d="M303.01,205.154c2.897,0.131,2.96,0.079,2.943-2.86
				c-0.026-2.598-0.091-5.237,0.036-7.845c0.077-1.667-0.581-2.336-2.202-2.678c-7.604-1.628-15.193-3.385-22.792-5.104
				c0.661-0.659,1.483-0.355,2.226-0.369c6.136-0.04,12.265-0.065,18.397-0.09c4.363,0.459,4.38,0.405,4.363-3.923
				c-0.028-3.873,0.017-7.757-0.012-11.627c-0.063-6.668,1.829-12.56,6.194-17.729c4.21-5.031,9.443-6.764,15.767-5.831
				c2.846,0.411,5.236,1.933,7.711,3.259c0.839,0.984,1.685,2.008,2.535,2.997c3.583,4.2,5.403,9.082,5.772,14.547
				c-0.009,5.182-0.193,10.38,0.121,15.576c-0.361,7.283-0.161,14.538-0.093,21.808c-0.028,3.084,0,6.155-0.095,9.239
				c-0.037,1.233,0.438,1.573,1.586,1.562c3.568-0.053,7.141,0,10.711,0.012c1.196,0.015,2.378,0.094,3.578,0.055
				c5.137-0.119,10.289,0.289,15.427-0.171c2.145,0.065,4.273,0.235,6.408-0.158c0.454,0.119,0.908,0.21,1.349,0.329
				c2.614,0.313,5.078,1.074,7.401,2.361c5.908,3.345,8.045,8.752,8.547,15.131c0.389,5.053-0.219,9.999-1.55,14.853
				c-1.419,5.171-4.889,8.438-9.636,10.564c-3.174,1.442-6.508,2.283-9.9,2.913c-1.419,0.12-2.837,0.236-4.255,0.354
				c-2.049-0.054-4.101-0.104-6.148-0.144c-3.97,0.064-7.898,0.13-11.851,0.169c-2.336-0.59-4.729-0.169-7.099-0.209
				c-3.426-0.08-6.873,0-10.304,0.025c-4.445-0.039-8.865-0.051-13.302-0.117c-5.217-0.079-9.582-2.021-12.977-6.024
				c-2.894-3.41-4.59-7.374-5.554-11.69c-0.499-3.307-0.434-6.615-0.285-9.934c0.07-1.76-0.536-2.219-2.234-2.337
				c-14.127-0.984-28.295-1.784-42.385-3.216c-7.902-0.799-15.806-1.402-23.727-1.982c-4.958-0.339-9.933-0.469-15.305-1.269
				c1.259-0.738,2.133-0.499,2.942-0.514c8.014-0.209,16.036,0.381,24.043-0.264c0.436,0.867,1.253,0.447,1.854,0.447
				c14.272,0.013,28.532,0.013,42.793,0c0.629,0,1.252-0.13,1.871-0.169c2.838,0,5.642-0.04,8.478,0
				c1.031,0.025,1.53-0.199,1.502-1.393c-0.064-3.309-0.025-6.614-0.012-9.934c0.012-1.273-0.482-1.836-1.802-2.098
				c-4.674-0.867-9.426-1.168-14.097-2.286c-5.251-1.243-10.728-1.562-16.11-2.282c-3.722-0.509-7.459-0.998-11.191-1.481
				c0.022-0.17,0.022-0.315,0.045-0.474C276.131,205.154,289.575,205.154,303.01,205.154z"/>
			<path style="fill-rule:evenodd;clip-rule:evenodd;fill:#201813;" d="M259.446,187.021c-1.539,1.508-2.925,3.227-4.645,4.513
				c-5.743,4.319-13.443,4.539-19.7,0.735c-0.78-0.459-1.551-0.984-2.311-1.482c0.176-0.721-0.493-0.945-0.876-1.299
				c-1.767-1.642-3.238-3.479-4.432-5.565c-2.262-4-3.203-8.344-3.458-12.86c-0.019-3.462,0.527-6.855,1.244-10.25
				c0.193-0.918,0.201-1.363-0.962-1.429c-4.978-0.283-9.973-0.668-14.934-1.018c-6.453-0.439-12.909-0.833-19.353-1.317
				c-11.021-0.82-22.023-1.667-33.034-2.526c-6.791-0.57-13.577-1.168-20.373-1.767c-0.023-0.004-0.045-0.125-0.136-0.305
				c0.51-0.754,1.341-0.395,2.012-0.395c6.975-0.019,13.94,0,20.94,0.021c0.976,0,1.971,0.065,2.895-0.355
				c0.28,0.054,0.547,0.145,0.825,0.145c9.951,0,19.888-0.015,29.842,0c1.083,0,2.081-0.29,3.102-0.604
				c11.833-3.596,23.792-6.654,36.003-8.673c2.132-0.349,4.746-0.113,6.311-1.276c3.155-2.308,5.505-5.602,7.635-9.117
				c-4.995-0.5-9.674-0.998-14.362-1.463c-14.555-1.622-29.119-3.229-43.72-4.383c-0.723-0.193-1.438-0.349-2.158-0.513
				c0.008-0.1,0.008-0.185,0.018-0.275c2.078,0,4.122,0,6.203,0c19.397,0.02,38.804,0.025,58.222,0.074
				c1.076,0,1.941-0.369,2.619-1.176c2.461-2.998,4.933-5.977,7.4-8.967c3.61-4.358,7.243-8.721,11.104-13.339
				c-13.461-1.497-26.607-2.96-39.734-4.397c-2.938-0.346-5.851-0.689-8.771-1.049c0.006-0.125,0.006-0.243,0.017-0.388
				c0.693,0,1.41,0,2.109,0c19.849,0,39.691,0.026,59.53-0.065c3.794-0.006,6.995,1.418,10.146,3.215
				c0.064,0.249,0.241,0.309,0.462,0.249h-0.018c2.444,1.997,4.539,4.358,6.614,6.74c4.39,5.012,8.137,10.543,12.702,15.397
				c6.409,7.611,12.405,15.55,19.261,23.108c-1.314,0.244-2.029-0.314-2.801-0.604c-4.009-1.469-8.012-1.503-12.004-0.018
				c-8.375,3.161-12.61,9.775-14.882,17.958c-1.278,4.639-0.834,9.396-0.926,14.119c-0.018,0.564,0.324,1.233-0.304,1.732
				c-0.335-0.343-0.649-0.619-0.944-0.905c-2.568-3.214-5.098-6.43-7.666-9.645c-2.853-3.465-5.744-6.929-8.563-10.448
				c-0.654-0.808-1.007-0.684-1.599,0.015c-2.473,3.056-5.004,6.101-7.524,9.14C270.804,173.203,265.125,180.103,259.446,187.021z"
				/>
		</g>
	</g>
	<path style="fill-rule:evenodd;clip-rule:evenodd;fill:#201813;" d="M335.539,103.667c0.397-0.052,0.71,0.053,0.869,0.439
		C336.044,104.106,335.712,104.061,335.539,103.667z"/>
	<path style="fill-rule:evenodd;clip-rule:evenodd;fill:#201813;" d="M302.313,363.436c-0.233,0.313-0.52,0.419-1.026,0.117
		c0.453-0.041,0.75-0.054,1.045-0.08L302.313,363.436z"/>
	<path style="fill-rule:evenodd;clip-rule:evenodd;fill:#201813;" d="M310.608,349.578c-0.023-0.42,0.209-0.487,0.544-0.459
		C311.104,349.42,310.925,349.565,310.608,349.578z"/>
	<path style="fill-rule:evenodd;clip-rule:evenodd;fill:#201813;" d="M230.495,246.45c-0.105,0.34-0.307,0.498-0.676,0.433
		C229.938,246.58,230.148,246.438,230.495,246.45z"/>
	<path style="fill-rule:evenodd;clip-rule:evenodd;fill:#201813;" d="M295.126,99.717c-0.221,0.06-0.397,0-0.462-0.249
		C294.817,99.559,294.979,99.638,295.126,99.717z"/>
	<path style="fill-rule:evenodd;clip-rule:evenodd;fill:#201813;" d="M195.059,281.21c-0.139-0.707,0.499-0.668,0.871-0.864
		C195.799,280.776,195.532,281.105,195.059,281.21z"/>
	<path style="fill-rule:evenodd;clip-rule:evenodd;fill:#201813;" d="M195.867,280.346c0.136-0.093,0.264-0.159,0.405-0.223
		C196.131,280.187,196.003,280.253,195.867,280.346z"/>
	<path style="fill-rule:evenodd;clip-rule:evenodd;fill:#201813;" d="M155.201,320.131c0.158-0.104,0.306-0.235,0.454-0.366
		C155.637,320.039,155.461,320.131,155.201,320.131z"/>
	<path style="fill-rule:evenodd;clip-rule:evenodd;fill:#DB9600;" d="M294.159,167.601c2.568,3.215,5.098,6.43,7.675,9.645
		c-0.527,2.991-0.094,5.981-0.216,8.962c-6.133,0.025-12.262,0.05-18.397,0.09c-0.742,0.014-1.564-0.29-2.226,0.369
		c-7.18-0.16-14.367-0.079-21.549,0.354c5.679-6.918,11.357-13.818,17.027-20.713c1.338,0.071,2.68,0.131,3.994,0.241
		C285.035,166.892,289.601,167.257,294.159,167.601z"/>
	<path style="fill-rule:evenodd;clip-rule:evenodd;fill:#C46D35;" d="M126.339,364.301c0.255,1.104,0.505,2.192,0.744,3.295
		c-5.251-2.601-9.952-6.063-14.516-9.672c-7.822-6.18-11.102-14.869-12.928-24.276c-0.629-3.334-0.896-6.693-0.896-10.09
		c5.573,0.642,11.147,1.299,16.704,1.94c-0.504,4.632-0.658,9.238-0.122,13.896C116.457,348.841,120.32,357.031,126.339,364.301z"/>
	<path style="fill-rule:evenodd;clip-rule:evenodd;fill:#DB9600;" d="M84.771,320.803c-3.243,0.036-6.447,0.063-9.67,0.102
		c-0.354-4.134-1.143-8.213-1.409-12.386c-0.924-14.225,0.47-28.016,6.92-41.008c1.324-2.676,2.901-5.157,4.681-7.504
		c1.026-1.367,2.11-1.393,3.417-0.397c2.361,1.801,4.811,3.479,7.141,5.291c1.973,1.496,2.012,2.246,0.907,4.502
		c-7.839,15.863-12.072,32.595-12.08,50.348C84.678,320.094,84.715,320.434,84.771,320.803z"/>
	<path style="fill-rule:evenodd;clip-rule:evenodd;fill:#C46D35;" d="M355.55,262.354c3.952-0.039,7.881-0.104,11.851-0.169
		c0.629,14.513-1.956,28.346-8.795,41.281c-1.479,2.81-2.99,5.576-4.757,8.202c-0.294,0.459-0.635,1.207-1.239,0.854
		c-0.76-0.446,0.04-0.973,0.243-1.403c4.507-9.869,7.42-20.078,6.671-31.09C359.096,273.94,357.624,268.09,355.55,262.354z"/>
	<path style="fill-rule:evenodd;clip-rule:evenodd;fill:#DB9600;" d="M75.413,321.497c3.169-0.039,6.291,0.286,9.404,0.8
		c0.407,6.915,3.124,13.083,6.152,19.184c2.852,5.732,6.605,10.824,10.625,15.747c0.205,0.237,0.363,0.538,0.612,0.907
		C91.97,355.979,77.361,335.879,75.413,321.497z"/>
	<path style="fill-rule:evenodd;clip-rule:evenodd;fill:#DB9600;" d="M373.549,262.328c1.418-0.118,2.836-0.234,4.255-0.354
		c-1.739,6.231-3.593,12.387-6.161,18.318C372.241,274.296,373.671,268.375,373.549,262.328z"/>
	<path style="fill-rule:evenodd;clip-rule:evenodd;fill:#DB9600;" d="M229.846,246.869c-0.957,2.296-3.23,3.453-4.695,5.302
		c-3.252,4.188-7.385,5.866-12.709,5.275c-3.477-0.405-7.026-0.118-10.527-0.144c7.051-3.19,14.286-5.971,21.681-8.241
		C225.716,248.404,227.483,246.83,229.846,246.869z"/>
	<path style="fill-rule:evenodd;clip-rule:evenodd;fill:#DB9600;" d="M154.767,289.558c3.799-3.411,7.215-7.259,11.333-10.355
		c5.307-3.988,10.798-7.662,16.284-11.376c3.458-2.322,7.195-4.093,10.592-6.455c6.169,0.682,12.333,1.362,18.49,2.046
		c0.4,0.055,0.947-0.024,1.021,0.499c0.033,0.261-0.281,0.616-0.504,0.865c-4.973,5.405-10.306,10.394-15.71,15.342
		c-0.141,0.063-0.269,0.13-0.405,0.223h0.063c-0.372,0.196-1.009,0.157-0.871,0.864l0.025-0.014
		c-0.539-0.311-0.945,0.069-1.35,0.289c-4.125,2.181-7.671,5.172-11.304,8.019C173.209,289.688,163.984,289.713,154.767,289.558z"/>
	<path style="fill-rule:evenodd;clip-rule:evenodd;fill:#DB9600;" d="M224.025,171.063c0.255,4.516,1.196,8.86,3.458,12.86
		c1.193,2.085,2.665,3.923,4.432,5.565c0.383,0.354,1.052,0.578,0.876,1.299c-19.354,3.28-37.899,9.2-55.421,17.991
		c-11.322,5.666-22.542,11.663-33.045,18.855c-7.337,5.012-14.484,10.275-21.668,15.483c-3.261,2.364-3.604,2.376-6.229-0.67
		c-2.195-2.546-4.335-5.193-6.623-7.688c-1.429-1.573-1.077-2.597,0.267-4.08c6.81-7.571,15.105-13.319,23.18-19.355
		c10.687-7.992,22.504-13.962,34.27-20.077c17.104-8.885,35.251-14.606,53.903-19.066
		C222.329,171.968,223.435,172.086,224.025,171.063z"/>
	<path style="fill-rule:evenodd;clip-rule:evenodd;fill:#C46D35;" d="M231.68,130.733c4.688,0.465,9.367,0.964,14.362,1.463
		c-2.13,3.515-4.479,6.81-7.635,9.117c-1.564,1.163-4.179,0.927-6.311,1.276c-12.211,2.019-24.169,5.077-36.003,8.673
		c-1.021,0.314-2.019,0.604-3.102,0.604c-9.954-0.015-19.891,0-29.842,0c-0.278,0-0.545-0.091-0.825-0.145
		c5.596-3.07,11.544-5.288,17.484-7.544c11.754-4.502,23.905-7.678,36.187-10.427C221.195,132.581,226.476,131.901,231.68,130.733z"
		/>
	<path style="fill-rule:evenodd;clip-rule:evenodd;fill:#C46D35;" d="M156.987,154.522c11.011,0.859,22.014,1.707,33.034,2.526
		c6.444,0.484,12.9,0.878,19.353,1.317c-12.379,3.365-24.692,6.949-36.545,11.872c-5.491,2.295-11.006,4.603-16.381,7.149
		c-1.823,0.867-2.85,0.499-3.666-1.298c-1.965-4.343-3.995-8.699-6.087-13.019c-0.687-1.428-0.389-2.388,0.947-3.148
		C150.761,158.125,153.868,156.329,156.987,154.522z"/>
	<path style="fill-rule:evenodd;clip-rule:evenodd;fill:#DB9600;" d="M157.537,382.267c1.707-2.271,4.065-3.821,6.107-5.749
		c4.009,3.03,8,6.208,12.709,8.07c5.429,2.124,11.063,3.741,16.826,4.764c8.647,1.547,17.384,2.23,26.747,2.23
		c-3.587,1.061-6.73,1.259-9.85,1.379c-11.711,0.459-23.423,0.64-34.806-2.836C169.029,388.209,163.037,385.794,157.537,382.267z"/>
	<g>
		<path style="fill-rule:evenodd;clip-rule:evenodd;fill:#C46D35;" d="M303.01,205.154c-13.435,0-26.879,0-40.314,0
			c-0.022,0.159-0.022,0.304-0.045,0.474c3.732,0.484,7.47,0.973,11.191,1.481c5.383,0.72,10.859,1.039,16.11,2.282
			c4.671,1.118,9.423,1.418,14.097,2.286c1.319,0.261,1.813,0.825,1.802,2.098c-0.014,3.32-0.053,6.625,0.012,9.934
			c0.028,1.193-0.471,1.418-1.502,1.393c-2.836-0.04-5.64,0-8.478,0c-5.077-1.208-10.304-1.458-15.497-1.746
			c-10.387-0.55-20.718,0.144-31.021,1.468c-8.007,0.645-16.029,0.055-24.043,0.264c-0.81,0.015-1.684-0.225-2.942,0.514
			c5.372,0.8,10.347,0.93,15.305,1.269c-13.722,3.834-27.743,6.681-40.933,12.325c-5.243,2.243-10.598,4.369-15.452,7.32
			c-5.166,3.164-10.413,6.144-15.27,9.75c-0.357,0.278-0.632,0.709-0.941,1.089c-1.134,0.039-2.297-0.511-3.419,0.158
			c0.386,0.76,1.123,0.38,1.656,0.564c-6.43,5.356-12.917,10.657-19.233,16.114c-5.233,4.514-10.079,9.41-13.66,15.419
			c-5.108-0.223-10.197-0.118-15.313,0.486c3.403,0.34,6.813,0.644,10.204,0.994c1.108,0.108,2.276-0.141,3.305,0.488
			c-1.863,3.146-3.872,6.221-5.531,9.5c-3.176,6.206-5.291,12.836-6.918,19.591c-5.82,0.145-11.615,0.314-17.421,0.039
			c0.428-11.876,3.532-22.909,9.84-33.093c3.734-6.036,8.125-11.496,12.573-16.97c6.306-7.727,13.416-14.656,20.818-21.32
			c8.213-7.389,17.795-12.6,27.162-18.213c15.275-9.186,31.805-15.355,48.602-21.012c20.668-6.965,41.857-8.686,63.436-7.493
			C288.522,203.017,295.797,203.75,303.01,205.154z"/>
		<path style="fill-rule:evenodd;clip-rule:evenodd;fill:#C46D35;" d="M382.941,216.151c-0.44-0.119-0.895-0.21-1.349-0.329
			c-1.074-3.19-2.02-6.44-3.254-9.592c-2.097-5.42-5.164-10.313-8.339-15.144c-6.603-10.104-15.856-17.164-26.051-23.186
			c-0.369-5.465-2.189-10.347-5.772-14.547c-0.851-0.989-1.696-2.013-2.535-3.01c-0.024-1.614-0.113-3.229-0.024-4.857
			c0.121-2.257,0.802-2.647,2.791-1.653c2.447,1.227,4.845,2.555,7.252,3.833c3.882,8.358,9.682,14.684,18.514,17.894
			c1.241,0.438,2.503,0.787,3.748,1.173c4.609,6.784,9.062,13.648,11.67,21.481C382.609,197.281,383.889,206.586,382.941,216.151z"
			/>
		<path style="fill-rule:evenodd;clip-rule:evenodd;fill:#C46D35;" d="M345.179,100.046c-5.602,0.011-11.227,0.026-16.831,0.051
			c-0.99-0.839-2.215-1.238-3.38-1.743c-12.63-5.616-26.022-8.627-39.416-11.717c-3.896-0.893-4.037-0.913-4.018-5.026
			c0-2.036,0.043-4.094,0.015-6.135c-0.009-1.632,0.782-2.631,2.413-2.566c6.817,0.315,13.551,0.984,20.087,3.32
			c3.84,1.378,7.82,2.427,11.616,3.949c8.58,3.499,16.296,8.477,23.494,14.187C341.271,96.038,343.818,97.486,345.179,100.046z"/>
	</g>
	<path style="fill-rule:evenodd;clip-rule:evenodd;fill:#DB9600;" d="M45.104,286.247c-5.35-7.409-7.547-15.337-8.534-23.723
		c-0.839-7.099-0.661-14.223,0.04-21.336c0.244-2.678,0.442-2.808,3.144-2.492c1.605,0.21,3.215,0.419,4.836,0.535
		c1.097,0.079,1.483,0.498,1.196,1.627c-1.908,7.546-2.656,15.29-3.178,23.045c-0.473,6.928,0.284,13.778,2.076,20.536
		C44.777,284.846,44.859,285.239,45.104,286.247z"/>
	<path style="fill-rule:evenodd;clip-rule:evenodd;fill:#C46D35;" d="M375.957,167.283c1.252-0.197,2.54-0.406,3.799-0.61
		c0.24,1.962,0.567,3.918,0.754,5.872c0.148,1.656,1.635,3.348-0.085,5.106C379.285,174.031,378.044,170.458,375.957,167.283z"/>
	<path style="fill-rule:evenodd;clip-rule:evenodd;fill:#C46D35;" d="M66.851,322.297c-2.052-3.201-4.085-6.182-5.928-9.266
		c-7.348-12.4-11.793-25.586-11.006-40.233c0.426-7.858,2.541-15.26,5.438-22.529c5.755-14.368,13.194-27.714,22.941-39.813
		c5.192-6.429,11.037-12.031,17.348-17.253c4.321-3.544,8.806-6.774,13.827-9.28c1.891-0.957,2.892-0.496,3.688,1.222
		c1.863,3.974,3.706,7.912,5.568,11.873c0.582,1.237,0.25,2.194-0.751,3.006c-1.25,1.012-2.574,1.955-3.816,3.019
		c-8.809,7.504-17.329,15.365-24.767,24.237c-4.919,5.905-9.708,11.952-13.711,18.529c-9.452,15.563-14.844,32.213-13.611,50.691
		c0.539,7.988,1.909,15.812,4.562,23.396C66.882,320.604,67.373,321.313,66.851,322.297z"/>
	<path style="fill-rule:evenodd;clip-rule:evenodd;fill:#C46D35;" d="M173.408,367.187c3.566-3.608,7.116-7.204,10.688-10.798
		c2.427,11.691,9.962,19.17,19.999,24.813c2.637,1.471,5.256,2.744,8.176,3.463c0.352,0.081,0.675,0.199,0.794,0.88
		c-6.345-1.089-12.712-1.349-18.609-4.185c-4.1-1.942-8.199-3.753-11.961-6.301C179.163,372.791,175.97,370.338,173.408,367.187z"/>
	<path style="fill-rule:evenodd;clip-rule:evenodd;fill:#DB9600;" d="M314.425,121.854c-4.565-4.854-8.313-10.385-12.702-15.397
		c-2.075-2.381-4.17-4.743-6.614-6.74c8.375,1.22,16.441,3.714,24.459,6.365c3.935,1.325,7.688,3.091,11.418,4.928
		c0.772,0.375,1.55,0.715,1.854,1.607c-4.594,0.051-9.179,0.105-13.755,0.159c-1.326,0-2.659,0-4.026,0.195
		c5.171,2.414,10.898,2.362,16.233,3.898c-0.443,2.348-1.298,4.559-2.165,6.782c-0.562,1.407-1.372,1.812-2.937,1.347
		C322.289,123.849,318.453,122.522,314.425,121.854z"/>
	<g>
		<path style="fill-rule:evenodd;clip-rule:evenodd;fill:#DB9600;" d="M220.906,28.098c2.528,0.859,5.234,0.675,7.797,1.31
			c1.202,0.289,2.411,0.499,3.595,0.941c-7.054,0.091-14.068,0.57-21.056,1.068c-13.796,1.035-27.691,1.83-41.004,5.781
			c-8.772,2.602-17.697,4.624-26.378,7.564c-0.855,0.314-1.536,0.55-2.018-0.618c-0.494-1.134,0.314-1.377,0.992-1.678
			c1.462-0.723,2.926-1.392,4.411-2.076c13.898-6.515,28.782-9.092,43.827-11.074c3.02-0.386,6.127-0.22,9.061-1.219
			C207.054,28.098,213.977,28.098,220.906,28.098z"/>
	</g>
	<path style="fill-rule:evenodd;clip-rule:evenodd;fill:#C46D35;" d="M302.877,56.505c-3.192-1.285-6.121-2.461-9.038-3.635
		c-17.226-7.005-35.181-10.798-53.699-11.896c-3.539-0.202-7.07-0.038-10.598,0.178c-0.976,0.071-2.206,0.185-2.521-1.003
		c-0.388-1.556-0.502-3.246,0.237-4.731c0.298-0.596,1.149-0.432,1.785-0.465c10.197-0.321,20.36,0.27,30.313,2.5
		c15.467,3.425,29.978,9.362,43.07,18.451C302.517,55.98,302.582,56.125,302.877,56.505z"/>
	<path style="fill-rule:evenodd;clip-rule:evenodd;fill:#DB9600;" d="M192.022,125.562c-2.081,0-4.125,0-6.203,0
		c-0.009,0.09-0.009,0.175-0.018,0.275c0.72,0.165,1.435,0.32,2.158,0.513c-6.096,2.018-12.324,3.685-18.25,6.141
		c-13.667,5.648-27.508,11.068-40.116,18.915c-9.273,5.762-18.91,11.03-27.403,17.952c-7.876,6.376-15.809,12.793-22.774,20.209
		c-3.881,4.144-7.97,8.16-11.639,12.557c-1.127,1.338-2.239,1.533-3.64,0.513c-2.137-1.616-4.287-3.215-6.464-4.792
		c-1.559-1.114-1.828-2.466-1.146-4.238c2.24-6.037,6.26-10.839,10.428-15.576c7.949-9.054,17.361-16.47,26.712-24
		c9.253-7.481,19.323-13.662,29.394-19.908c12.71-7.886,26.423-13.574,40.264-19.085c19.636-7.842,40.094-12.381,60.821-15.976
		c2.503-0.422,5.077-0.354,7.477-1.307c13.138,1.437,26.284,2.9,39.745,4.397c-3.861,4.619-7.494,8.981-11.104,13.339
		c-2.264-0.046-4.521,0.136-6.776,0.235c-15.897,0.683-31.617,2.781-47.165,6.146C201.503,122.917,196.632,123.765,192.022,125.562z
		"/>
	<path style="fill-rule:evenodd;clip-rule:evenodd;fill:#DB9600;" d="M317.996,70.913c-7.963-2.112-15.968-4.14-24.104-5.608
		c-14.343-2.591-28.768-4.179-43.332-4.684c-25.726-0.893-51.056,1.724-75.883,8.588c-6.546,1.812-13.092,3.634-19.358,6.194
		c-13.716,5.562-27.653,10.688-40.468,18.224c-10.254,6.038-20.651,11.98-29.831,19.633c-6.977,5.806-14.164,11.462-20.242,18.238
		c-5.696,6.359-11.584,12.599-16.291,19.737c-4,6.063-8.165,12.039-11.261,18.632c-2.253,4.833-4.758,9.556-6.549,14.593
		c-0.179,0.513-0.244,1.088-0.919,1.547c-0.093-2.781,0.445-5.365,0.919-7.937c1.337-7.324,3.691-14.328,6.693-21.142
		c3.487-7.923,8.12-15.156,12.993-22.255c4.771-6.979,10.496-13.095,16.108-19.341c6.317-7.033,13.801-12.649,21.076-18.555
		c9.583-7.808,20.384-13.62,30.928-19.865c13.673-8.111,28.319-13.897,43.156-19.364c17.563-6.461,35.713-9.701,54.254-11.25
		c18.038-1.511,35.989-0.763,53.832,2.203c8.665,1.443,17.114,4.008,25.023,7.743c7.365,3.476,14.884,6.855,21.164,12.23
		c0.81,0.681,1.962,1.168,2.072,2.452L317.996,70.913z"/>
	<path style="fill-rule:evenodd;clip-rule:evenodd;fill:#C46D35;" d="M30.205,235.021c-0.78-5.211-0.78-10.329-0.522-15.46
		c0.786-15.656,5.401-30.179,12.914-43.892c4.304-7.842,9.583-14.947,15.139-21.907c5.262-6.581,11.488-12.2,17.476-18.063
		c7.856-7.716,16.758-14.002,25.566-20.498c10.518-7.756,22.128-13.464,33.78-19.165c17.781-8.732,36.688-14.028,55.638-19.375
		c7.224-2.037,14.476-3.479,21.893-4.299c2.96-0.309,5.925-0.354,8.89-0.005c1.231,0.142,2.146,0.649,2.297,2.033
		c0.296,2.875,0.593,5.754,0.346,8.646c-0.15,1.653-0.992,2.475-2.673,2.75c-12.682,2.157-25.292,4.703-37.557,8.508
		c-16.965,5.262-34.084,10.218-50,18.281c-11.36,5.761-22.559,11.98-32.677,19.8c-7.586,5.854-15.394,11.482-22.267,18.201
		c-6.6,6.458-13.427,12.705-19.35,19.814c-3.791,4.542-7.526,9.159-10.914,14.003c-5.41,7.676-8.69,16.415-12.019,25.114
		c-2.991,7.863-4.344,16.036-5.069,24.369C31.063,234.273,31.166,234.758,30.205,235.021z"/>
	<path style="fill-rule:evenodd;clip-rule:evenodd;fill:#C46D35;" d="M44.859,134.793c2.541-6.666,6.118-12.755,9.673-18.911
		c4.186-7.269,9.572-13.58,15.006-19.891c3.57-4.162,7.635-7.691,11.786-11.181c12.389-10.464,25.703-19.455,40.079-27.059
		c17.546-9.281,36.309-14.473,55.627-18.241c3.286-0.649,6.725-0.583,9.9-1.939c0.215-0.099,0.607-0.119,0.793-0.008
		c2.064,1.018,1.73,2.991,1.945,4.783c0.165,1.497-0.681,1.902-1.906,2.256c-12.95,3.454-25.983,6.765-38.511,11.562
		c-14.017,5.381-27.895,11.181-40.726,19.054c-9.302,5.707-18.521,11.672-26.876,18.726c-7.085,5.988-14.425,11.809-20.541,18.882
		c-5.148,5.957-10.359,11.927-14.289,18.842C46.231,132.734,46.158,134.13,44.859,134.793z"/>
	<path style="fill-rule:evenodd;clip-rule:evenodd;fill:#DB9600;" d="M80.545,81.471c9.101-8.877,18.827-16.909,29.759-23.455
		c0.601-0.369,1.213-0.604,1.724-1.168c0.629-0.717,1.529-1.51,2.473-0.354c0.884,1.088,0.615,1.928-0.593,2.736
		c-7.596,5.129-15.202,10.214-22.678,15.523c-3.43,2.429-6.68,5.08-10.507,6.909C80.661,81.596,80.612,81.536,80.545,81.471z"/>
	<path style="fill-rule:evenodd;clip-rule:evenodd;fill:#C46D35;" d="M80.723,81.661c-0.249,0.224-0.527,0.368-0.833,0.079
		c0.233-0.091,0.445-0.179,0.655-0.269C80.612,81.536,80.661,81.596,80.723,81.661z"/>
	<path style="fill-rule:evenodd;clip-rule:evenodd;fill:#DB9600;" d="M306.315,244.338c0.964,4.316,2.66,8.28,5.554,11.69
		c3.395,4.004,7.76,5.945,12.977,6.024c4.437,0.066,8.856,0.078,13.302,0.117c2.802,4.029,5.388,8.216,7.822,12.506
		c4.058,7.088,4.755,14.696,4.001,22.544c-1.672,17.293-9.414,31.771-20.798,44.631c-6.68,7.544-14.494,13.579-22.902,18.922
		c-1.354,0.852-2.271,2.32-3.957,2.663l0.019,0.037c0.53-1.113,1.448-1.822,2.43-2.506c5.854-4,11.146-8.647,16.047-13.778
		c0.471-0.511,1.055-0.954,1.148-1.732c7.651-4.146,11.479-10.76,12.511-19.211c0.076-0.55,0.104-1.114,0.152-1.666
		c4.65-13.54,5.762-26.925-2.147-39.72c-4.023-6.521-9.136-11.941-15.863-15.864c-6.196-3.596-12.813-5.736-19.797-6.942
		c-3.266-0.566-3.58-0.957-3.408-4.342c0.137-3.599,0.692-7.154,1.452-10.672c0.556-2.637,1.406-3.306,4.068-3.216
		C301.389,243.903,303.852,244.143,306.315,244.338z"/>
	<path style="fill-rule:evenodd;clip-rule:evenodd;fill:#C46D35;" d="M267.561,314.948c-8.522,2.717-17.085,5.301-25.542,8.227
		c-3.484,1.208-7.006,2.441-10.396,3.925c-5.926,2.611-9.294,7.532-10.773,13.608c-2.306,9.645-0.694,18.565,6.409,25.85
		c4.206,4.289,9.646,5.721,15.421,4.094c8.681-2.441,17.305-5.104,25.821-8.043c3.368-1.168,6.694-2.456,10.122-3.386
		c-10.133,8.869-22.302,12.991-35.365,14.737c-8.695,1.168-17.163-0.147-25.261-3.674c-10.283-4.502-14.082-13.308-10.515-23.952
		c3.159-9.406,9.957-15.678,17.84-21.073c10.323-7.073,21.99-9.879,34.227-10.787C262.225,314.278,264.901,314.568,267.561,314.948z
		"/>
	<path style="fill-rule:evenodd;clip-rule:evenodd;fill:#C46D35;" d="M298.117,353.198c3.39-1.049,6.744-2.163,10.138-3.214
		c0.711-0.225,1.406-0.644,2.222-0.327c-2.817,3.675-6.56,6.352-9.911,9.472c-10.63,9.908-23.688,14.684-37.462,18.085
		c-0.649,0.157-1.055,0.247-1.443-0.498C275.501,371.505,288.603,365.113,298.117,353.198z"/>
	<path style="fill-rule:evenodd;clip-rule:evenodd;fill:#C46D35;" d="M155.201,320.131c-0.556,0.672-1.398,0.723-2.121,0.734
		c-5.993,0.067-12.015,0.302-18.02-0.104c2.824-8.82,7.309-16.757,13.183-23.909c0.975-1.18,2.203-2.179,2.818-3.635
		c8.003,0.723,16.018,1.456,24.021,2.204c-6.455,5.353-11.411,12.008-16.19,18.792c-1.254,1.758-2.728,3.398-3.255,5.591l0.017-0.04
		C155.507,319.896,155.359,320.026,155.201,320.131z"/>
	<path style="fill-rule:evenodd;clip-rule:evenodd;fill:#DB9600;" d="M375.185,215.98c-5.138,0.46-10.29,0.052-15.427,0.171
		c-1.2,0.039-2.382-0.04-3.578-0.055c-3.623-4.094-7.434-8.003-12.202-10.812c-0.068-7.27-0.269-14.525,0.093-21.797
		c4.029,2.259,7.83,4.831,11.46,7.772C363.936,198.108,370.788,206.033,375.185,215.98z"/>
</g>
</svg>
