<?xml version="1.0" encoding="iso-8859-1"?>
<!-- Generator: Adobe Illustrator 16.0.0, SVG Export Plug-In . SVG Version: 6.00 Build 0)  -->
<!DOCTYPE svg PUBLIC "-//W3C//DTD SVG 1.1//EN" "http://www.w3.org/Graphics/SVG/1.1/DTD/svg11.dtd">
<svg version="1.1" id="Capa_1" xmlns="http://www.w3.org/2000/svg" xmlns:xlink="http://www.w3.org/1999/xlink" x="0px" y="0px"
	 width="425.2px" height="425.2px" viewBox="0 0 425.2 425.2" style="enable-background:new 0 0 425.2 425.2;" xml:space="preserve"
	>
<rect style="fill-rule:evenodd;clip-rule:evenodd;fill:none;" width="425.2" height="425.2"/>
<g>
	<path style="fill-rule:evenodd;clip-rule:evenodd;" d="M-431.385,610.9c0.175,0.025,0.352,0.08,0.527,0.094
		c-0.028,0.051-0.046,0.103-0.06,0.17c-0.161-0.094-0.298-0.184-0.451-0.277L-431.385,610.9z"/>
	<g>
		<path style="fill-rule:evenodd;clip-rule:evenodd;" d="M-451.248,893.172c-6.589,1.681-13.036,3.859-19.494,6.024
			c-3.428,0.93-6.754,2.218-10.122,3.386c-8.517,2.939-17.141,5.602-25.821,8.043c-5.775,1.627-11.215,0.195-15.421-4.094
			c-7.104-7.284-8.715-16.205-6.409-25.85c1.479-6.076,4.848-10.997,10.773-13.608c3.39-1.483,6.911-2.717,10.396-3.925
			c8.457-2.926,17.02-5.51,25.542-8.227c3.362-1.024,6.711-2.102,10.056-3.122c-0.105-0.867-0.644-1.236-1.034-1.706
			c-6.314-7.783-13.178-15.076-19.546-22.806c-4.677-5.645-9.653-11.022-14.351-16.653c-6.513-7.782-7.717-20.838-2.785-29.709
			c3.99-7.178,12.311-11.402,19.47-9.828c3.579,0.788,6.433,2.834,8.973,5.38c5.39,5.406,9.866,11.573,14.913,17.269
			c3.059,3.426,6.197,6.785,9.072,10.368c5.66,7.03,11.895,13.58,17.628,20.535c5.244,6.39,10.793,12.479,16.16,18.736
			c5.252,6.129,9.032,12.743,8.504,21.167c-0.048,0.552-0.076,1.116-0.152,1.666c-1.032,8.451-4.859,15.065-12.511,19.211
			c-3.595,1.222-7.199,2.429-10.805,3.663c-0.335-0.028-0.567,0.039-0.544,0.459l-0.132,0.079c-0.815-0.316-1.511,0.103-2.222,0.327
			C-444.503,891.009-447.858,892.123-451.248,893.172z"/>
		<path style="fill-rule:evenodd;clip-rule:evenodd;" d="M-673.952,861.471c-0.219-0.146-1.009,0.037-0.312-0.593
			c3.224-0.039,6.427-0.065,9.67-0.102c4.649,0.102,9.321,0.26,13.989-0.095c5.806,0.275,11.601,0.105,17.421-0.039
			c6.283,0.406,12.588,0.264,18.879,0.093c6.005,0.405,12.027,0.171,18.02,0.104c0.723-0.012,1.564-0.063,2.121-0.734
			c0.26,0,0.437-0.092,0.454-0.366l-0.017,0.04c0.888-0.186,1.324-0.973,1.925-1.537c6.172-5.931,12.37-11.822,18.317-17.992
			c1.384-1.416,2.901-2.701,4.349-4.053c-0.117-0.146-0.224-0.301-0.357-0.471c-1.604-0.108-3.198-0.21-4.789-0.33
			c-8.003-0.748-16.018-1.481-24.021-2.204c-5.885-0.525-11.768-1.063-17.657-1.548c-1.58-0.131-3.172-0.63-4.774-0.092
			c-1.029-0.629-2.197-0.38-3.305-0.488c-3.391-0.351-6.801-0.654-10.204-0.994c5.115-0.604,10.204-0.709,15.313-0.486
			c8.109-0.026,16.222-0.052,24.333-0.052c9.217,0.155,18.442,0.13,27.665-0.054c2.85,0.498,5.373-0.117,7.17-2.508
			c1.619-2.137,3.781-3.752,5.483-5.8l-0.025,0.014c0.473-0.104,0.74-0.434,0.871-0.864h-0.063c0.136-0.093,0.264-0.159,0.405-0.223
			c5.404-4.948,10.737-9.937,15.71-15.342c0.223-0.249,0.538-0.604,0.504-0.865c-0.074-0.523-0.622-0.444-1.021-0.499
			c-6.157-0.684-12.321-1.364-18.49-2.046c-5.747-0.669-11.488-1.404-17.243-2.021c-4.134-0.435-8.247-1.179-12.406-1.273
			c-0.533-0.185-1.27,0.195-1.656-0.564c1.123-0.669,2.285-0.119,3.419-0.158c12.264-0.025,24.558-0.037,36.825-0.051
			c3.501,0.025,7.051-0.262,10.527,0.144c5.324,0.591,9.457-1.087,12.709-5.275c1.465-1.849,3.738-3.006,4.695-5.302l-0.026,0.014
			c0.369,0.065,0.57-0.093,0.676-0.433c1.748-1.589,3.51-3.176,5.731-5.223c-0.651,3.175-1.536,5.615-1.905,8.177
			c-1.261,8.882,1.029,16.782,6.484,23.773c2.647,3.389,5.807,6.354,8.339,9.856c1.167,1.587,2.233,3.254,3.446,4.791
			c0.891,1.103-0.094,1.468-0.641,2.006c-4.465,4.305-9.117,8.453-13.433,12.926c-6.657,6.904-13.902,13.203-20.531,20.13
			c-6.191,6.469-12.988,12.31-19.114,18.818c-4.78,5.064-10.06,9.58-14.777,14.684c-3.572,3.594-7.122,7.189-10.688,10.798
			c-3.524,2.835-6.66,6.063-9.764,9.331c-2.042,1.928-4.4,3.479-6.107,5.749c-6.719,4.434-13.73,4.933-20.475,0.55
			c-4.763-3.096-7.632-7.967-9.376-13.409c-0.207-0.607-0.4-1.209-0.603-1.812c-0.239-1.103-0.488-2.191-0.744-3.295
			c-1.1-11.127,3.706-19.669,11.684-26.873c2.554-2.297,4.865-4.872,7.304-7.285c0.745-0.472,1.471-0.943,1.918-2.07
			c-2.523-0.2-4.859-0.37-7.212-0.567c-5.038-0.472-10.087-0.981-15.145-1.364c-3.133-0.235-6.254-0.864-9.441-0.643
			c-5.557-0.642-11.131-1.299-16.704-1.94c-4.616-0.658-9.245-1.105-13.926-1.261C-667.661,861.757-670.782,861.432-673.952,861.471
			z"/>
		<g>
			<path style="fill-rule:evenodd;clip-rule:evenodd;" d="M-416.525,652.59c3.151,0.012,6.313,0.08,9.45,0.012
				c1.891-0.037,2.708-1.164,2.474-3.027c0.974-0.617,1.056-1.774,1.603-2.645c0.352-0.61,0.021-0.934-0.547-1.029
				c-3.079-0.514-6.062-1.552-9.22-1.707c-0.064-0.029-0.128-0.068-0.191-0.113c-0.159-0.387-0.472-0.491-0.869-0.439
				c-4.587-1.01-9.202-2.008-13.806-3.031c0.019-0.184,0.045-0.369,0.045-0.539c2.194,0,4.372,0,6.569,0
				c5.604-0.024,11.229-0.039,16.831-0.051c5.135,1.209,8.585-1.299,11.397-5.211c0.315-0.45,0.845-0.725,1.678-1.408
				c-6.004-1.412-11.515-2.717-17.037-4.023c0.016-0.709,0.565-0.484,0.934-0.484c10.1,0.014,20.206,0.025,30.294,0.051
				c5.564,0.014,10.969,0.918,15.575,4.043c7.646,5.168,12.949,12.256,15.664,21.133c0.793,2.514,1.383,5.105,2.069,7.631
				c0,4.25,0,8.488,0,12.723c-0.927,0.688-0.638,1.776-0.83,2.682c-2.282,10.826-7.108,19.947-16.903,25.884
				c-2.599,1.575-5.429,2.605-8.264,3.608c-1.259,0.204-2.547,0.414-3.799,0.61c-2.694,0.02-5.354-0.196-8.035-0.55
				c-1.245-0.387-2.507-0.734-3.748-1.174c-8.832-3.209-14.632-9.535-18.514-17.893c-0.561-1.438-1.137-2.861-1.657-4.313
				c-2.567-7.395-3.281-14.938-1.953-22.68c0.155-0.874,0.69-1.968-0.976-2.218c-3.27-0.474-6.515-1.052-9.77-1.588
				c-5.348-1.536-11.075-1.485-16.246-3.898c1.367-0.194,2.7-0.194,4.026-0.194C-425.704,652.695-421.119,652.642-416.525,652.59z"
				/>
			<path style="fill-rule:evenodd;clip-rule:evenodd;" d="M-446.355,745.127c2.897,0.131,2.96,0.08,2.943-2.859
				c-0.026-2.598-0.091-5.237,0.036-7.846c0.077-1.668-0.581-2.336-2.202-2.678c-7.604-1.629-15.193-3.386-22.792-5.104
				c0.661-0.659,1.483-0.355,2.226-0.369c6.136-0.04,12.265-0.065,18.397-0.09c4.363,0.459,4.38,0.404,4.363-3.924
				c-0.028-3.873,0.017-7.758-0.012-11.627c-0.063-6.668,1.829-12.56,6.194-17.729c4.21-5.031,9.443-6.764,15.767-5.831
				c2.846,0.411,5.236,1.933,7.711,3.259c0.839,0.984,1.685,2.008,2.535,2.998c3.583,4.199,5.403,9.081,5.772,14.547
				c-0.009,5.182-0.193,10.379,0.121,15.575c-0.361,7.283-0.161,14.538-0.093,21.808c-0.028,3.085,0,6.155-0.095,9.239
				c-0.037,1.233,0.438,1.573,1.586,1.562c3.568-0.053,7.141,0,10.711,0.012c1.196,0.015,2.378,0.094,3.578,0.055
				c5.137-0.119,10.289,0.289,15.427-0.171c2.145,0.065,4.273,0.235,6.408-0.158c0.454,0.119,0.908,0.21,1.349,0.329
				c2.614,0.313,5.078,1.074,7.401,2.361c5.908,3.345,8.045,8.752,8.547,15.131c0.389,5.053-0.219,9.999-1.55,14.853
				c-1.419,5.171-4.889,8.438-9.636,10.564c-3.174,1.442-6.508,2.283-9.9,2.913c-1.419,0.12-2.837,0.236-4.255,0.354
				c-2.049-0.054-4.101-0.104-6.148-0.144c-3.97,0.064-7.898,0.13-11.851,0.169c-2.336-0.59-4.729-0.169-7.099-0.209
				c-3.426-0.08-6.873,0-10.304,0.025c-4.445-0.039-8.865-0.051-13.302-0.117c-5.217-0.079-9.582-2.021-12.977-6.024
				c-2.894-3.41-4.59-7.374-5.554-11.69c-0.499-3.307-0.434-6.615-0.285-9.934c0.07-1.76-0.536-2.219-2.234-2.337
				c-14.127-0.984-28.295-1.784-42.385-3.216c-7.902-0.799-15.806-1.402-23.727-1.982c-4.958-0.339-9.933-0.469-15.305-1.269
				c1.259-0.738,2.133-0.499,2.942-0.514c8.014-0.209,16.036,0.381,24.043-0.264c0.436,0.867,1.253,0.447,1.854,0.447
				c14.272,0.013,28.532,0.013,42.793,0c0.629,0,1.252-0.13,1.871-0.169c2.838,0,5.642-0.04,8.478,0
				c1.031,0.025,1.53-0.199,1.502-1.393c-0.064-3.309-0.025-6.614-0.012-9.935c0.012-1.272-0.482-1.836-1.802-2.098
				c-4.674-0.867-9.426-1.168-14.097-2.285c-5.251-1.243-10.728-1.563-16.11-2.282c-3.722-0.509-7.459-0.997-11.191-1.481
				c0.022-0.17,0.022-0.315,0.045-0.475C-473.234,745.127-459.79,745.127-446.355,745.127z"/>
			<path style="fill-rule:evenodd;clip-rule:evenodd;" d="M-489.918,726.994c-1.539,1.508-2.925,3.227-4.645,4.514
				c-5.743,4.318-13.443,4.538-19.7,0.734c-0.78-0.459-1.551-0.984-2.311-1.482c0.176-0.721-0.493-0.945-0.876-1.299
				c-1.767-1.642-3.238-3.479-4.432-5.564c-2.262-4-3.203-8.344-3.458-12.86c-0.019-3.462,0.527-6.855,1.244-10.249
				c0.193-0.919,0.201-1.363-0.962-1.43c-4.978-0.283-9.973-0.668-14.934-1.018c-6.453-0.439-12.909-0.833-19.353-1.317
				c-11.021-0.819-22.023-1.667-33.034-2.526c-6.791-0.57-13.577-1.168-20.373-1.768c-0.023-0.004-0.045-0.125-0.136-0.305
				c0.51-0.754,1.341-0.395,2.012-0.395c6.975-0.02,13.94,0,20.94,0.021c0.976,0,1.971,0.065,2.895-0.354
				c0.28,0.054,0.547,0.145,0.825,0.145c9.951,0,19.888-0.015,29.842,0c1.083,0,2.081-0.29,3.102-0.604
				c11.833-3.596,23.792-6.654,36.003-8.674c2.132-0.349,4.746-0.113,6.311-1.275c3.155-2.308,5.505-5.602,7.635-9.117
				c-4.995-0.5-9.674-0.998-14.362-1.463c-14.555-1.623-29.119-3.229-43.72-4.383c-0.723-0.193-1.438-0.35-2.158-0.514
				c0.008-0.1,0.008-0.185,0.018-0.275c2.078,0,4.122,0,6.203,0c19.397,0.021,38.804,0.025,58.222,0.074
				c1.076,0,1.941-0.369,2.619-1.176c2.461-2.998,4.933-5.977,7.4-8.968c3.61-4.358,7.243-8.721,11.104-13.339
				c-13.461-1.498-26.607-2.961-39.734-4.398c-2.938-0.346-5.851-0.688-8.771-1.049c0.006-0.125,0.006-0.243,0.017-0.389
				c0.693,0,1.41,0,2.109,0c19.849,0,39.691,0.027,59.53-0.064c3.794-0.006,6.995,1.418,10.146,3.215
				c0.064,0.249,0.241,0.309,0.462,0.249h-0.018c2.444,1.997,4.539,4.358,6.614,6.739c4.39,5.013,8.137,10.543,12.702,15.398
				c6.409,7.611,12.405,15.55,19.261,23.107c-1.314,0.244-2.029-0.314-2.801-0.604c-4.009-1.469-8.012-1.502-12.004-0.018
				c-8.375,3.161-12.61,9.775-14.882,17.958c-1.278,4.639-0.834,9.396-0.926,14.119c-0.018,0.564,0.324,1.233-0.304,1.731
				c-0.335-0.343-0.649-0.619-0.944-0.904c-2.568-3.215-5.098-6.43-7.666-9.645c-2.853-3.465-5.744-6.929-8.563-10.447
				c-0.654-0.809-1.007-0.684-1.599,0.014c-2.473,3.057-5.004,6.102-7.524,9.141C-478.561,713.176-484.24,720.076-489.918,726.994z"
				/>
		</g>
	</g>
	<path style="fill-rule:evenodd;clip-rule:evenodd;" d="M-413.826,643.641c0.397-0.052,0.71,0.053,0.869,0.439
		C-413.321,644.08-413.653,644.034-413.826,643.641z"/>
	<path style="fill-rule:evenodd;clip-rule:evenodd;" d="M-447.051,903.409c-0.233,0.313-0.52,0.419-1.026,0.117
		c0.453-0.041,0.75-0.054,1.045-0.08L-447.051,903.409z"/>
	<path style="fill-rule:evenodd;clip-rule:evenodd;" d="M-438.756,889.552c-0.023-0.42,0.209-0.487,0.544-0.459
		C-438.26,889.394-438.44,889.539-438.756,889.552z"/>
	<path style="fill-rule:evenodd;clip-rule:evenodd;" d="M-518.87,786.424c-0.105,0.34-0.307,0.498-0.676,0.433
		C-519.426,786.554-519.216,786.412-518.87,786.424z"/>
	<path style="fill-rule:evenodd;clip-rule:evenodd;" d="M-454.239,639.69c-0.221,0.06-0.397,0-0.462-0.249
		C-454.547,639.532-454.386,639.611-454.239,639.69z"/>
	<path style="fill-rule:evenodd;clip-rule:evenodd;" d="M-554.306,821.184c-0.139-0.707,0.499-0.668,0.871-0.864
		C-553.566,820.75-553.833,821.079-554.306,821.184z"/>
	<path style="fill-rule:evenodd;clip-rule:evenodd;" d="M-553.498,820.319c0.136-0.093,0.264-0.159,0.405-0.223
		C-553.234,820.16-553.362,820.227-553.498,820.319z"/>
	<path style="fill-rule:evenodd;clip-rule:evenodd;" d="M-594.164,860.104c0.158-0.104,0.306-0.235,0.454-0.366
		C-593.728,860.013-593.904,860.104-594.164,860.104z"/>
	<path style="fill-rule:evenodd;clip-rule:evenodd;" d="M-455.206,707.574c2.568,3.215,5.098,6.43,7.675,9.645
		c-0.527,2.99-0.094,5.981-0.216,8.963c-6.133,0.024-12.262,0.05-18.397,0.09c-0.742,0.014-1.564-0.29-2.226,0.369
		c-7.18-0.16-14.367-0.08-21.549,0.354c5.679-6.918,11.357-13.818,17.027-20.713c1.338,0.07,2.68,0.131,3.994,0.24
		C-464.33,706.865-459.764,707.23-455.206,707.574z"/>
	<path style="fill-rule:evenodd;clip-rule:evenodd;" d="M-623.025,904.274c0.255,1.104,0.505,2.192,0.744,3.295
		c-5.251-2.601-9.952-6.063-14.516-9.672c-7.822-6.18-11.102-14.869-12.928-24.276c-0.629-3.334-0.896-6.693-0.896-10.09
		c5.573,0.642,11.147,1.299,16.704,1.94c-0.504,4.632-0.658,9.238-0.122,13.896C-632.908,888.814-629.044,897.005-623.025,904.274z"
		/>
	<path style="fill-rule:evenodd;clip-rule:evenodd;" d="M-664.593,860.776c-3.243,0.036-6.447,0.063-9.67,0.102
		c-0.354-4.134-1.143-8.213-1.409-12.386c-0.924-14.225,0.47-28.016,6.92-41.008c1.324-2.676,2.901-5.157,4.681-7.504
		c1.026-1.367,2.11-1.393,3.417-0.397c2.361,1.801,4.811,3.479,7.141,5.291c1.973,1.496,2.012,2.246,0.907,4.502
		c-7.839,15.863-12.072,32.595-12.08,50.348C-664.687,860.067-664.65,860.407-664.593,860.776z"/>
	<path style="fill-rule:evenodd;clip-rule:evenodd;" d="M-393.815,802.327c3.952-0.039,7.881-0.104,11.851-0.169
		c0.629,14.513-1.956,28.346-8.795,41.281c-1.479,2.81-2.99,5.576-4.757,8.202c-0.294,0.459-0.635,1.207-1.239,0.854
		c-0.76-0.446,0.04-0.973,0.243-1.403c4.507-9.869,7.42-20.078,6.671-31.09C-390.269,813.914-391.741,808.063-393.815,802.327z"/>
	<path style="fill-rule:evenodd;clip-rule:evenodd;" d="M-673.952,861.471c3.169-0.039,6.291,0.286,9.404,0.8
		c0.407,6.915,3.124,13.083,6.152,19.184c2.852,5.732,6.605,10.824,10.625,15.747c0.205,0.237,0.363,0.538,0.612,0.907
		C-657.395,895.953-672.004,875.853-673.952,861.471z"/>
	<path style="fill-rule:evenodd;clip-rule:evenodd;" d="M-375.816,802.302c1.418-0.118,2.836-0.234,4.255-0.354
		c-1.739,6.231-3.593,12.387-6.161,18.318C-377.124,814.27-375.694,808.349-375.816,802.302z"/>
	<path style="fill-rule:evenodd;clip-rule:evenodd;" d="M-519.519,786.843c-0.957,2.296-3.23,3.453-4.695,5.302
		c-3.252,4.188-7.385,5.866-12.709,5.275c-3.477-0.405-7.026-0.118-10.527-0.144c7.051-3.19,14.286-5.971,21.681-8.241
		C-523.649,788.378-521.881,786.804-519.519,786.843z"/>
	<path style="fill-rule:evenodd;clip-rule:evenodd;" d="M-594.598,829.531c3.799-3.411,7.215-7.259,11.333-10.355
		c5.307-3.988,10.798-7.662,16.284-11.376c3.458-2.322,7.195-4.093,10.592-6.455c6.169,0.682,12.333,1.362,18.49,2.046
		c0.4,0.055,0.947-0.024,1.021,0.499c0.033,0.261-0.281,0.616-0.504,0.865c-4.973,5.405-10.306,10.394-15.71,15.342
		c-0.141,0.063-0.269,0.13-0.405,0.223h0.063c-0.372,0.196-1.009,0.157-0.871,0.864l0.025-0.014
		c-0.539-0.311-0.945,0.069-1.35,0.289c-4.125,2.181-7.671,5.172-11.304,8.019C-576.156,829.661-585.381,829.687-594.598,829.531z"
		/>
	<path style="fill-rule:evenodd;clip-rule:evenodd;" d="M-525.339,711.036c0.255,4.517,1.196,8.86,3.458,12.86
		c1.193,2.085,2.665,3.923,4.432,5.564c0.383,0.354,1.052,0.578,0.876,1.299c-19.354,3.279-37.899,9.2-55.421,17.991
		c-11.322,5.666-22.542,11.663-33.045,18.855c-7.337,5.012-14.484,10.275-21.668,15.483c-3.261,2.364-3.604,2.376-6.229-0.67
		c-2.195-2.546-4.335-5.193-6.623-7.688c-1.429-1.573-1.077-2.597,0.267-4.08c6.81-7.571,15.105-13.319,23.18-19.355
		c10.687-7.991,22.504-13.962,34.27-20.077c17.104-8.885,35.251-14.605,53.903-19.066
		C-527.036,711.941-525.93,712.06-525.339,711.036z"/>
	<path style="fill-rule:evenodd;clip-rule:evenodd;" d="M-517.685,670.707c4.688,0.465,9.367,0.963,14.362,1.463
		c-2.13,3.516-4.479,6.81-7.635,9.117c-1.564,1.162-4.179,0.927-6.311,1.275c-12.211,2.02-24.169,5.078-36.003,8.674
		c-1.021,0.313-2.019,0.604-3.102,0.604c-9.954-0.015-19.891,0-29.842,0c-0.278,0-0.545-0.091-0.825-0.145
		c5.596-3.07,11.544-5.288,17.484-7.545c11.754-4.502,23.905-7.678,36.187-10.427C-528.169,672.555-522.889,671.875-517.685,670.707
		z"/>
	<path style="fill-rule:evenodd;clip-rule:evenodd;" d="M-592.378,694.496c11.011,0.859,22.014,1.707,33.034,2.526
		c6.444,0.484,12.9,0.878,19.353,1.317c-12.379,3.365-24.692,6.949-36.545,11.871c-5.491,2.296-11.006,4.604-16.381,7.15
		c-1.823,0.867-2.85,0.498-3.666-1.299c-1.965-4.344-3.995-8.699-6.087-13.019c-0.687-1.429-0.389-2.388,0.947-3.147
		C-598.604,698.1-595.497,696.303-592.378,694.496z"/>
	<path style="fill-rule:evenodd;clip-rule:evenodd;" d="M-591.828,922.24c1.707-2.271,4.065-3.821,6.107-5.749
		c4.009,3.03,8,6.208,12.709,8.07c5.429,2.124,11.063,3.741,16.826,4.764c8.647,1.547,17.384,2.23,26.747,2.23
		c-3.587,1.061-6.73,1.259-9.85,1.379c-11.711,0.459-23.423,0.64-34.806-2.836C-580.335,928.183-586.328,925.768-591.828,922.24z"/>
	<g>
		<path style="fill-rule:evenodd;clip-rule:evenodd;" d="M-446.355,745.127c-13.435,0-26.879,0-40.314,0
			c-0.022,0.159-0.022,0.305-0.045,0.475c3.732,0.484,7.47,0.973,11.191,1.481c5.383,0.72,10.859,1.039,16.11,2.282
			c4.671,1.117,9.423,1.418,14.097,2.285c1.319,0.262,1.813,0.825,1.802,2.098c-0.014,3.32-0.053,6.626,0.012,9.935
			c0.028,1.193-0.471,1.418-1.502,1.393c-2.836-0.04-5.64,0-8.478,0c-5.077-1.208-10.304-1.458-15.497-1.746
			c-10.387-0.55-20.718,0.144-31.021,1.468c-8.007,0.645-16.029,0.055-24.043,0.264c-0.81,0.015-1.684-0.225-2.942,0.514
			c5.372,0.8,10.347,0.93,15.305,1.269c-13.722,3.834-27.743,6.681-40.933,12.325c-5.243,2.243-10.598,4.369-15.452,7.32
			c-5.166,3.164-10.413,6.144-15.27,9.75c-0.357,0.278-0.632,0.709-0.941,1.089c-1.134,0.039-2.297-0.511-3.419,0.158
			c0.386,0.76,1.123,0.38,1.656,0.564c-6.43,5.356-12.917,10.657-19.233,16.114c-5.233,4.514-10.079,9.41-13.66,15.419
			c-5.108-0.223-10.197-0.118-15.313,0.486c3.403,0.34,6.813,0.644,10.204,0.994c1.108,0.108,2.276-0.141,3.305,0.488
			c-1.863,3.146-3.872,6.221-5.531,9.5c-3.176,6.206-5.291,12.836-6.918,19.591c-5.82,0.145-11.615,0.314-17.421,0.039
			c0.428-11.876,3.532-22.909,9.84-33.093c3.734-6.036,8.125-11.496,12.573-16.97c6.306-7.727,13.416-14.656,20.818-21.32
			c8.213-7.389,17.795-12.6,27.162-18.213c15.275-9.186,31.805-15.355,48.602-21.012c20.668-6.965,41.857-8.686,63.436-7.492
			C-460.842,742.99-453.568,743.724-446.355,745.127z"/>
		<path style="fill-rule:evenodd;clip-rule:evenodd;" d="M-366.423,756.125c-0.44-0.119-0.895-0.21-1.349-0.329
			c-1.074-3.19-2.02-6.44-3.254-9.592c-2.097-5.42-5.164-10.313-8.339-15.144c-6.603-10.104-15.856-17.164-26.051-23.186
			c-0.369-5.466-2.189-10.348-5.772-14.547c-0.851-0.99-1.696-2.014-2.535-3.011c-0.024-1.614-0.113-3.229-0.024-4.856
			c0.121-2.258,0.802-2.648,2.791-1.653c2.447,1.228,4.845,2.555,7.252,3.833c3.882,8.357,9.682,14.684,18.514,17.893
			c1.241,0.439,2.503,0.787,3.748,1.174c4.609,6.784,9.062,13.648,11.67,21.48C-366.755,737.255-365.476,746.56-366.423,756.125z"/>
		<path style="fill-rule:evenodd;clip-rule:evenodd;" d="M-404.186,640.02c-5.602,0.012-11.227,0.026-16.831,0.051
			c-0.99-0.839-2.215-1.238-3.38-1.743c-12.63-5.616-26.022-8.627-39.416-11.718c-3.896-0.893-4.037-0.912-4.018-5.025
			c0-2.036,0.043-4.095,0.015-6.136c-0.009-1.632,0.782-2.631,2.413-2.565c6.817,0.314,13.551,0.983,20.087,3.319
			c3.84,1.378,7.82,2.427,11.616,3.949c8.58,3.499,16.296,8.478,23.494,14.187C-408.093,636.012-405.546,637.459-404.186,640.02z"/>
	</g>
	<path style="fill-rule:evenodd;clip-rule:evenodd;" d="M-704.261,826.221c-5.35-7.409-7.547-15.337-8.534-23.723
		c-0.839-7.099-0.661-14.223,0.04-21.336c0.244-2.678,0.442-2.808,3.144-2.492c1.605,0.21,3.215,0.419,4.836,0.535
		c1.097,0.079,1.483,0.498,1.196,1.627c-1.908,7.546-2.656,15.29-3.178,23.045c-0.473,6.928,0.284,13.778,2.076,20.536
		C-704.588,824.819-704.506,825.213-704.261,826.221z"/>
	<path style="fill-rule:evenodd;clip-rule:evenodd;" d="M-373.408,707.257c1.252-0.196,2.54-0.406,3.799-0.61
		c0.24,1.963,0.567,3.918,0.754,5.872c0.148,1.656,1.635,3.348-0.085,5.106C-370.08,714.004-371.321,710.432-373.408,707.257z"/>
	<path style="fill-rule:evenodd;clip-rule:evenodd;" d="M-682.514,862.271c-2.052-3.201-4.085-6.182-5.928-9.266
		c-7.348-12.4-11.793-25.586-11.006-40.233c0.426-7.858,2.541-15.26,5.438-22.529c5.755-14.368,13.194-27.714,22.941-39.813
		c5.192-6.429,11.037-12.03,17.348-17.253c4.321-3.545,8.806-6.774,13.827-9.279c1.891-0.957,2.892-0.496,3.688,1.222
		c1.863,3.974,3.706,7.912,5.568,11.872c0.582,1.237,0.25,2.195-0.751,3.006c-1.25,1.013-2.574,1.955-3.816,3.02
		c-8.809,7.504-17.329,15.365-24.767,24.237c-4.919,5.905-9.708,11.952-13.711,18.529c-9.452,15.563-14.844,32.213-13.611,50.691
		c0.539,7.988,1.909,15.812,4.562,23.396C-682.482,860.577-681.992,861.286-682.514,862.271z"/>
	<path style="fill-rule:evenodd;clip-rule:evenodd;" d="M-575.957,907.16c3.566-3.608,7.116-7.204,10.688-10.798
		c2.427,11.691,9.962,19.17,19.999,24.813c2.637,1.471,5.256,2.744,8.176,3.463c0.352,0.081,0.675,0.199,0.794,0.88
		c-6.345-1.089-12.712-1.349-18.609-4.185c-4.1-1.942-8.199-3.753-11.961-6.301C-570.202,912.765-573.395,910.312-575.957,907.16z"
		/>
	<path style="fill-rule:evenodd;clip-rule:evenodd;" d="M-434.94,661.828c-4.565-4.855-8.313-10.386-12.702-15.398
		c-2.075-2.381-4.17-4.742-6.614-6.739c8.375,1.22,16.441,3.714,24.459,6.364c3.935,1.325,7.688,3.092,11.418,4.928
		c0.772,0.375,1.55,0.716,1.854,1.607c-4.594,0.052-9.179,0.105-13.755,0.16c-1.326,0-2.659,0-4.026,0.194
		c5.171,2.413,10.898,2.362,16.233,3.898c-0.443,2.349-1.298,4.56-2.165,6.782c-0.562,1.406-1.372,1.811-2.937,1.346
		C-427.076,663.822-430.912,662.496-434.94,661.828z"/>
	<g>
		<path style="fill-rule:evenodd;clip-rule:evenodd;" d="M-528.458,568.071c2.528,0.858,5.234,0.675,7.797,1.31
			c1.202,0.289,2.411,0.5,3.595,0.941c-7.054,0.091-14.068,0.57-21.056,1.068c-13.796,1.035-27.691,1.83-41.004,5.781
			c-8.772,2.602-17.697,4.624-26.378,7.564c-0.855,0.314-1.536,0.55-2.018-0.619c-0.494-1.134,0.314-1.377,0.992-1.678
			c1.462-0.723,2.926-1.393,4.411-2.076c13.898-6.514,28.782-9.092,43.827-11.073c3.02-0.386,6.127-0.22,9.061-1.219
			C-542.311,568.071-535.388,568.071-528.458,568.071z"/>
	</g>
	<path style="fill-rule:evenodd;clip-rule:evenodd;" d="M-446.488,596.479c-3.192-1.284-6.121-2.461-9.038-3.635
		c-17.226-7.005-35.181-10.798-53.699-11.895c-3.539-0.203-7.07-0.038-10.598,0.178c-0.976,0.07-2.206,0.185-2.521-1.004
		c-0.388-1.557-0.502-3.246,0.237-4.73c0.298-0.597,1.149-0.432,1.785-0.466c10.197-0.321,20.36,0.27,30.313,2.5
		c15.467,3.425,29.978,9.362,43.07,18.451C-446.848,595.954-446.783,596.1-446.488,596.479z"/>
	<path style="fill-rule:evenodd;clip-rule:evenodd;" d="M-557.342,665.535c-2.081,0-4.125,0-6.203,0
		c-0.009,0.091-0.009,0.176-0.018,0.275c0.72,0.164,1.435,0.32,2.158,0.514c-6.096,2.018-12.324,3.685-18.25,6.141
		c-13.667,5.647-27.508,11.067-40.116,18.914c-9.273,5.762-18.91,11.03-27.403,17.952c-7.876,6.376-15.809,12.793-22.774,20.209
		c-3.881,4.144-7.97,8.159-11.639,12.558c-1.127,1.338-2.239,1.532-3.64,0.513c-2.137-1.616-4.287-3.216-6.464-4.792
		c-1.559-1.113-1.828-2.466-1.146-4.238c2.24-6.036,6.26-10.839,10.428-15.575c7.949-9.054,17.361-16.47,26.712-24
		c9.253-7.481,19.323-13.661,29.394-19.907c12.71-7.887,26.423-13.574,40.264-19.086c19.636-7.842,40.094-12.381,60.821-15.976
		c2.503-0.423,5.077-0.354,7.477-1.308c13.138,1.438,26.284,2.9,39.745,4.398c-3.861,4.618-7.494,8.98-11.104,13.339
		c-2.264-0.046-4.521,0.136-6.776,0.235c-15.897,0.683-31.617,2.78-47.165,6.146C-547.862,662.891-552.733,663.738-557.342,665.535z
		"/>
	<path style="fill-rule:evenodd;clip-rule:evenodd;" d="M-431.369,610.887c-7.963-2.112-15.968-4.14-24.104-5.607
		c-14.343-2.592-28.768-4.18-43.332-4.684c-25.726-0.893-51.056,1.723-75.883,8.588c-6.546,1.811-13.092,3.634-19.358,6.193
		c-13.716,5.563-27.653,10.688-40.468,18.225c-10.254,6.038-20.651,11.98-29.831,19.633c-6.977,5.807-14.164,11.463-20.242,18.238
		c-5.696,6.359-11.584,12.599-16.291,19.736c-4,6.063-8.165,12.039-11.261,18.633c-2.253,4.832-4.758,9.555-6.549,14.593
		c-0.179,0.513-0.244,1.088-0.919,1.547c-0.093-2.781,0.445-5.365,0.919-7.937c1.337-7.324,3.691-14.328,6.693-21.143
		c3.487-7.924,8.12-15.156,12.993-22.256c4.771-6.979,10.496-13.094,16.108-19.34c6.317-7.033,13.801-12.65,21.076-18.556
		c9.583-7.808,20.384-13.62,30.928-19.865c13.673-8.111,28.319-13.897,43.156-19.364c17.563-6.461,35.713-9.701,54.254-11.249
		c18.038-1.511,35.989-0.763,53.832,2.203c8.665,1.442,17.114,4.009,25.023,7.743c7.365,3.475,14.884,6.855,21.164,12.229
		c0.81,0.681,1.962,1.169,2.072,2.452L-431.369,610.887z"/>
	<path style="fill-rule:evenodd;clip-rule:evenodd;" d="M-719.16,774.995c-0.78-5.211-0.78-10.329-0.522-15.46
		c0.786-15.656,5.401-30.18,12.914-43.893c4.304-7.842,9.583-14.947,15.139-21.906c5.262-6.581,11.488-12.2,17.476-18.063
		c7.856-7.717,16.758-14.002,25.566-20.498c10.518-7.756,22.128-13.464,33.78-19.164c17.781-8.732,36.688-14.029,55.638-19.375
		c7.224-2.037,14.476-3.479,21.893-4.299c2.96-0.309,5.925-0.354,8.89-0.006c1.231,0.143,2.146,0.649,2.297,2.033
		c0.296,2.875,0.593,5.755,0.346,8.646c-0.15,1.654-0.992,2.476-2.673,2.751c-12.682,2.157-25.292,4.702-37.557,8.508
		c-16.965,5.262-34.084,10.218-50,18.28c-11.36,5.762-22.559,11.98-32.677,19.801c-7.586,5.854-15.394,11.481-22.267,18.201
		c-6.6,6.458-13.427,12.704-19.35,19.814c-3.791,4.541-7.526,9.158-10.914,14.002c-5.41,7.677-8.69,16.415-12.019,25.115
		c-2.991,7.862-4.344,16.035-5.069,24.368C-718.301,774.247-718.199,774.731-719.16,774.995z"/>
	<path style="fill-rule:evenodd;clip-rule:evenodd;" d="M-704.506,674.768c2.541-6.666,6.118-12.756,9.673-18.911
		c4.186-7.269,9.572-13.579,15.006-19.892c3.57-4.161,7.635-7.691,11.786-11.181c12.389-10.464,25.703-19.454,40.079-27.059
		c17.546-9.281,36.309-14.473,55.627-18.241c3.286-0.648,6.725-0.583,9.9-1.938c0.215-0.099,0.607-0.119,0.793-0.009
		c2.064,1.018,1.73,2.992,1.945,4.783c0.165,1.497-0.681,1.902-1.906,2.256c-12.95,3.455-25.983,6.766-38.511,11.563
		c-14.017,5.381-27.895,11.182-40.726,19.055c-9.302,5.707-18.521,11.672-26.876,18.725c-7.085,5.988-14.425,11.809-20.541,18.883
		c-5.148,5.956-10.359,11.927-14.289,18.842C-703.133,672.708-703.207,674.104-704.506,674.768z"/>
	<path style="fill-rule:evenodd;clip-rule:evenodd;" d="M-668.82,621.445c9.101-8.877,18.827-16.91,29.759-23.455
		c0.601-0.369,1.213-0.604,1.724-1.169c0.629-0.717,1.529-1.511,2.473-0.354c0.884,1.089,0.615,1.929-0.593,2.736
		c-7.596,5.129-15.202,10.215-22.678,15.523c-3.43,2.428-6.68,5.079-10.507,6.908C-668.704,621.569-668.752,621.51-668.82,621.445z"
		/>
	<path style="fill-rule:evenodd;clip-rule:evenodd;" d="M-668.642,621.635c-0.249,0.224-0.527,0.368-0.833,0.079
		c0.233-0.091,0.445-0.179,0.655-0.269C-668.752,621.51-668.704,621.569-668.642,621.635z"/>
	<path style="fill-rule:evenodd;clip-rule:evenodd;" d="M-443.049,784.312c0.964,4.316,2.66,8.28,5.554,11.69
		c3.395,4.004,7.76,5.945,12.977,6.024c4.437,0.066,8.856,0.078,13.302,0.117c2.802,4.029,5.388,8.216,7.822,12.506
		c4.058,7.088,4.755,14.696,4.001,22.544c-1.672,17.293-9.414,31.771-20.798,44.631c-6.68,7.544-14.494,13.579-22.902,18.922
		c-1.354,0.852-2.271,2.32-3.957,2.663l0.019,0.037c0.53-1.113,1.448-1.822,2.43-2.506c5.854-4,11.146-8.647,16.047-13.778
		c0.471-0.511,1.055-0.954,1.148-1.732c7.651-4.146,11.479-10.76,12.511-19.211c0.076-0.55,0.104-1.114,0.152-1.666
		c4.65-13.54,5.762-26.925-2.147-39.72c-4.023-6.521-9.136-11.941-15.863-15.864c-6.196-3.596-12.813-5.736-19.797-6.942
		c-3.266-0.566-3.58-0.957-3.408-4.342c0.137-3.599,0.692-7.154,1.452-10.672c0.556-2.637,1.406-3.306,4.068-3.216
		C-447.976,783.877-445.513,784.116-443.049,784.312z"/>
	<path style="fill-rule:evenodd;clip-rule:evenodd;" d="M-481.804,854.922c-8.522,2.717-17.085,5.301-25.542,8.227
		c-3.484,1.208-7.006,2.441-10.396,3.925c-5.926,2.611-9.294,7.532-10.773,13.608c-2.306,9.645-0.694,18.565,6.409,25.85
		c4.206,4.289,9.646,5.721,15.421,4.094c8.681-2.441,17.305-5.104,25.821-8.043c3.368-1.168,6.694-2.456,10.122-3.386
		c-10.133,8.869-22.302,12.991-35.365,14.737c-8.695,1.168-17.163-0.147-25.261-3.674c-10.283-4.502-14.082-13.308-10.515-23.952
		c3.159-9.406,9.957-15.678,17.84-21.073c10.323-7.073,21.99-9.879,34.227-10.787C-487.14,854.252-484.463,854.542-481.804,854.922z
		"/>
	<path style="fill-rule:evenodd;clip-rule:evenodd;" d="M-451.248,893.172c3.39-1.049,6.744-2.163,10.138-3.214
		c0.711-0.225,1.406-0.644,2.222-0.327c-2.817,3.675-6.56,6.352-9.911,9.472c-10.63,9.908-23.688,14.684-37.462,18.085
		c-0.649,0.157-1.055,0.247-1.443-0.498C-473.864,911.479-460.762,905.087-451.248,893.172z"/>
	<path style="fill-rule:evenodd;clip-rule:evenodd;" d="M-594.164,860.104c-0.556,0.672-1.398,0.723-2.121,0.734
		c-5.993,0.067-12.015,0.302-18.02-0.104c2.824-8.82,7.309-16.757,13.183-23.909c0.975-1.18,2.203-2.179,2.818-3.635
		c8.003,0.723,16.018,1.456,24.021,2.204c-6.455,5.353-11.411,12.008-16.19,18.792c-1.254,1.758-2.728,3.398-3.255,5.591l0.017-0.04
		C-593.858,859.869-594.006,860-594.164,860.104z"/>
	<path style="fill-rule:evenodd;clip-rule:evenodd;" d="M-374.18,755.954c-5.138,0.46-10.29,0.052-15.427,0.171
		c-1.2,0.039-2.382-0.04-3.578-0.055c-3.623-4.094-7.434-8.003-12.202-10.813c-0.068-7.27-0.269-14.524,0.093-21.797
		c4.029,2.26,7.83,4.831,11.46,7.772C-385.429,738.082-378.577,746.006-374.18,755.954z"/>
</g>
<g>
	<ellipse style="fill-rule:evenodd;clip-rule:evenodd;fill:#FFFFFF;" cx="202.719" cy="211.501" rx="180.582" ry="185.2"/>
	<g>
		<path style="fill-rule:evenodd;clip-rule:evenodd;fill:none;stroke:#FFFFFF;stroke-width:6;stroke-miterlimit:10;" d="
			M296.864,356.27c-6.589,1.682-13.036,3.859-19.494,6.025c-3.428,0.93-6.754,2.217-10.122,3.385
			c-8.517,2.939-17.141,5.602-25.821,8.043c-5.775,1.627-11.215,0.195-15.421-4.094c-7.104-7.283-8.715-16.205-6.409-25.85
			c1.479-6.076,4.848-10.996,10.773-13.607c3.39-1.484,6.911-2.717,10.396-3.926c8.457-2.926,17.02-5.51,25.542-8.227
			c3.362-1.023,6.711-2.102,10.056-3.121c-0.105-0.867-0.644-1.236-1.034-1.707c-6.314-7.783-13.178-15.076-19.546-22.805
			c-4.677-5.645-9.653-11.023-14.351-16.654c-6.513-7.781-7.717-20.838-2.785-29.709c3.99-7.178,12.311-11.402,19.47-9.828
			c3.579,0.789,6.433,2.834,8.973,5.381c5.39,5.406,9.866,11.572,14.913,17.268c3.059,3.426,6.197,6.785,9.072,10.369
			c5.66,7.029,11.895,13.58,17.628,20.535c5.244,6.389,10.793,12.479,16.16,18.736c5.252,6.129,9.032,12.742,8.504,21.166
			c-0.048,0.553-0.076,1.117-0.152,1.666c-1.032,8.451-4.859,15.066-12.511,19.211c-3.595,1.223-7.199,2.43-10.805,3.664
			c-0.335-0.029-0.567,0.039-0.544,0.459l-0.132,0.078c-0.815-0.316-1.511,0.104-2.222,0.328
			C303.608,354.107,300.254,355.221,296.864,356.27z"/>
		<path style="fill-rule:evenodd;clip-rule:evenodd;fill:none;stroke:#FFFFFF;stroke-width:6;stroke-miterlimit:10;" d="
			M74.16,324.568c-0.219-0.145-1.009,0.037-0.312-0.592c3.224-0.039,6.427-0.066,9.67-0.102c4.649,0.102,9.321,0.26,13.989-0.096
			c5.806,0.275,11.601,0.105,17.421-0.039c6.283,0.406,12.588,0.264,18.879,0.094c6.005,0.404,12.027,0.17,18.02,0.104
			c0.723-0.012,1.564-0.063,2.121-0.734c0.26,0,0.437-0.092,0.454-0.367l-0.017,0.041c0.888-0.186,1.324-0.973,1.925-1.537
			c6.172-5.932,12.37-11.822,18.317-17.992c1.384-1.416,2.901-2.701,4.349-4.053c-0.117-0.146-0.224-0.301-0.357-0.471
			c-1.604-0.109-3.198-0.211-4.789-0.33c-8.003-0.748-16.018-1.482-24.021-2.205c-5.885-0.525-11.768-1.063-17.657-1.547
			c-1.58-0.131-3.172-0.631-4.774-0.092c-1.029-0.629-2.197-0.381-3.305-0.488c-3.391-0.352-6.801-0.654-10.204-0.994
			c5.115-0.605,10.204-0.709,15.313-0.486c8.109-0.027,16.222-0.053,24.333-0.053c9.217,0.156,18.442,0.131,27.665-0.053
			c2.85,0.498,5.373-0.117,7.17-2.508c1.619-2.137,3.781-3.752,5.483-5.801l-0.025,0.014c0.473-0.104,0.74-0.434,0.871-0.863h-0.063
			c0.136-0.094,0.264-0.16,0.405-0.223c5.404-4.949,10.737-9.938,15.71-15.342c0.223-0.25,0.538-0.605,0.504-0.865
			c-0.074-0.523-0.622-0.445-1.021-0.5c-6.157-0.684-12.321-1.363-18.49-2.045c-5.747-0.67-11.488-1.404-17.243-2.021
			c-4.134-0.436-8.247-1.18-12.406-1.273c-0.533-0.186-1.27,0.195-1.656-0.564c1.123-0.67,2.285-0.119,3.419-0.158
			c12.264-0.025,24.558-0.037,36.825-0.051c3.501,0.025,7.051-0.262,10.527,0.143c5.324,0.592,9.457-1.086,12.709-5.275
			c1.465-1.848,3.738-3.006,4.695-5.301l-0.026,0.014c0.369,0.064,0.57-0.094,0.676-0.434c1.748-1.588,3.51-3.176,5.731-5.223
			c-0.651,3.176-1.536,5.615-1.905,8.178c-1.261,8.881,1.029,16.781,6.484,23.773c2.647,3.389,5.807,6.354,8.339,9.855
			c1.167,1.588,2.233,3.254,3.446,4.791c0.891,1.104-0.094,1.469-0.641,2.006c-4.465,4.305-9.117,8.453-13.433,12.926
			c-6.657,6.904-13.902,13.203-20.531,20.131c-6.191,6.469-12.988,12.309-19.114,18.818c-4.78,5.064-10.06,9.58-14.777,14.684
			c-3.572,3.594-7.122,7.189-10.688,10.797c-3.524,2.836-6.66,6.064-9.764,9.332c-2.042,1.928-4.4,3.479-6.107,5.748
			c-6.719,4.434-13.73,4.934-20.475,0.551c-4.763-3.096-7.632-7.967-9.376-13.41c-0.207-0.607-0.4-1.209-0.603-1.811
			c-0.239-1.104-0.488-2.191-0.744-3.295c-1.1-11.127,3.706-19.67,11.684-26.873c2.554-2.297,4.865-4.873,7.304-7.285
			c0.745-0.473,1.471-0.943,1.918-2.07c-2.523-0.201-4.859-0.371-7.212-0.568c-5.038-0.471-10.087-0.98-15.145-1.363
			c-3.133-0.236-6.254-0.865-9.441-0.643c-5.557-0.643-11.131-1.299-16.704-1.941c-4.616-0.658-9.245-1.105-13.926-1.26
			C80.451,324.855,77.33,324.529,74.16,324.568z"/>
		<g>
			<path style="fill-rule:evenodd;clip-rule:evenodd;fill:none;stroke:#FFFFFF;stroke-width:6;stroke-miterlimit:10;" d="
				M331.587,115.688c3.151,0.012,6.313,0.08,9.45,0.012c1.891-0.037,2.708-1.164,2.474-3.027c0.974-0.617,1.056-1.774,1.603-2.645
				c0.352-0.61,0.021-0.934-0.547-1.029c-3.079-0.514-6.062-1.552-9.22-1.707c-0.064-0.029-0.128-0.068-0.191-0.113
				c-0.159-0.387-0.472-0.491-0.869-0.439c-4.587-1.01-9.202-2.008-13.806-3.031c0.019-0.184,0.045-0.369,0.045-0.539
				c2.194,0,4.372,0,6.569,0c5.604-0.024,11.229-0.039,16.831-0.051c5.135,1.209,8.585-1.299,11.397-5.211
				c0.315-0.45,0.845-0.725,1.678-1.408c-6.004-1.412-11.515-2.717-17.037-4.023c0.016-0.709,0.565-0.484,0.934-0.484
				c10.1,0.014,20.206,0.025,30.294,0.051c5.564,0.014,10.969,0.918,15.575,4.043c7.646,5.168,12.949,12.256,15.664,21.133
				c0.793,2.514,1.383,5.105,2.069,7.631c0,4.25,0,8.488,0,12.723c-0.927,0.688-0.638,1.776-0.83,2.682
				c-2.282,10.826-7.108,19.947-16.903,25.884c-2.599,1.575-5.429,2.605-8.264,3.608c-1.259,0.204-2.547,0.414-3.799,0.61
				c-2.694,0.02-5.354-0.196-8.035-0.55c-1.245-0.387-2.507-0.734-3.748-1.174c-8.832-3.209-14.632-9.535-18.514-17.893
				c-0.561-1.438-1.137-2.861-1.657-4.313c-2.567-7.395-3.281-14.938-1.953-22.68c0.155-0.874,0.69-1.968-0.976-2.218
				c-3.27-0.474-6.515-1.052-9.77-1.588c-5.348-1.536-11.075-1.485-16.246-3.898c1.367-0.194,2.7-0.194,4.026-0.194
				C322.408,115.793,326.993,115.739,331.587,115.688z"/>
			<path style="fill-rule:evenodd;clip-rule:evenodd;fill:none;stroke:#FFFFFF;stroke-width:6;stroke-miterlimit:10;" d="
				M301.757,208.224c2.897,0.131,2.96,0.08,2.943-2.859c-0.026-2.598-0.091-5.237,0.036-7.845c0.077-1.668-0.581-2.336-2.202-2.678
				c-7.604-1.629-15.193-3.386-22.792-5.104c0.661-0.659,1.483-0.355,2.226-0.369c6.136-0.04,12.265-0.065,18.397-0.09
				c4.363,0.459,4.38,0.404,4.363-3.924c-0.028-3.873,0.017-7.758-0.012-11.627c-0.063-6.668,1.829-12.56,6.194-17.729
				c4.21-5.031,9.443-6.764,15.767-5.831c2.846,0.411,5.236,1.933,7.711,3.259c0.839,0.984,1.685,2.008,2.535,2.998
				c3.583,4.199,5.403,9.081,5.772,14.547c-0.009,5.182-0.193,10.379,0.121,15.575c-0.361,7.283-0.161,14.538-0.093,21.807
				c-0.028,3.086,0,6.157-0.095,9.241c-0.037,1.232,0.438,1.572,1.586,1.561c3.568-0.053,7.141,0,10.711,0.012
				c1.196,0.016,2.378,0.094,3.578,0.055c5.137-0.119,10.289,0.289,15.427-0.17c2.145,0.064,4.273,0.234,6.408-0.158
				c0.454,0.119,0.908,0.209,1.349,0.328c2.614,0.314,5.078,1.074,7.401,2.361c5.908,3.346,8.045,8.752,8.547,15.131
				c0.389,5.053-0.219,10-1.55,14.854c-1.419,5.17-4.889,8.438-9.636,10.564c-3.174,1.441-6.508,2.283-9.9,2.912
				c-1.419,0.121-2.837,0.236-4.255,0.355c-2.049-0.055-4.101-0.105-6.148-0.145c-3.97,0.064-7.898,0.131-11.851,0.17
				c-2.336-0.59-4.729-0.17-7.099-0.209c-3.426-0.08-6.873,0-10.304,0.025c-4.445-0.039-8.865-0.051-13.302-0.117
				c-5.217-0.08-9.582-2.021-12.977-6.025c-2.894-3.41-4.59-7.373-5.554-11.689c-0.499-3.307-0.434-6.615-0.285-9.934
				c0.07-1.76-0.536-2.219-2.234-2.338c-14.127-0.984-28.295-1.783-42.385-3.215c-7.902-0.799-15.806-1.402-23.727-1.982
				c-4.958-0.34-9.933-0.469-15.305-1.27c1.259-0.738,2.133-0.498,2.942-0.514c8.014-0.209,16.036,0.381,24.043-0.264
				c0.436,0.867,1.253,0.447,1.854,0.447c14.272,0.014,28.532,0.014,42.793,0c0.629,0,1.252-0.129,1.871-0.168
				c2.838,0,5.642-0.041,8.478,0c1.031,0.025,1.53-0.199,1.502-1.393c-0.064-3.309-0.025-6.615-0.012-9.936
				c0.012-1.271-0.482-1.836-1.802-2.098c-4.674-0.867-9.426-1.168-14.097-2.285c-5.251-1.243-10.728-1.563-16.11-2.282
				c-3.722-0.51-7.459-0.998-11.191-1.482c0.022-0.17,0.022-0.314,0.045-0.475C274.878,208.224,288.322,208.224,301.757,208.224z"/>
			<path style="fill-rule:evenodd;clip-rule:evenodd;fill:none;stroke:#FFFFFF;stroke-width:6;stroke-miterlimit:10;" d="
				M258.193,190.092c-1.539,1.508-2.925,3.227-4.645,4.514c-5.743,4.318-13.443,4.538-19.7,0.734
				c-0.78-0.459-1.551-0.984-2.311-1.482c0.176-0.721-0.493-0.945-0.876-1.299c-1.767-1.642-3.238-3.479-4.432-5.564
				c-2.262-4-3.203-8.344-3.458-12.86c-0.019-3.462,0.527-6.855,1.244-10.249c0.193-0.919,0.201-1.363-0.962-1.43
				c-4.978-0.283-9.973-0.668-14.934-1.018c-6.453-0.439-12.909-0.833-19.353-1.317c-11.021-0.819-22.023-1.667-33.034-2.526
				c-6.791-0.57-13.577-1.168-20.373-1.768c-0.023-0.004-0.045-0.125-0.136-0.305c0.51-0.754,1.341-0.395,2.012-0.395
				c6.975-0.02,13.94,0,20.94,0.021c0.976,0,1.971,0.065,2.895-0.354c0.28,0.054,0.547,0.145,0.825,0.145
				c9.951,0,19.888-0.015,29.842,0c1.083,0,2.081-0.29,3.102-0.604c11.833-3.596,23.792-6.654,36.003-8.674
				c2.132-0.349,4.746-0.113,6.311-1.275c3.155-2.308,5.505-5.602,7.635-9.117c-4.995-0.5-9.674-0.998-14.362-1.463
				c-14.555-1.623-29.119-3.229-43.72-4.383c-0.723-0.193-1.438-0.35-2.158-0.514c0.008-0.1,0.008-0.185,0.018-0.275
				c2.078,0,4.122,0,6.203,0c19.397,0.021,38.804,0.025,58.222,0.074c1.076,0,1.941-0.369,2.619-1.176
				c2.461-2.998,4.933-5.977,7.4-8.968c3.61-4.358,7.243-8.721,11.104-13.339c-13.461-1.498-26.607-2.961-39.734-4.398
				c-2.938-0.346-5.851-0.688-8.771-1.049c0.006-0.125,0.006-0.243,0.017-0.389c0.693,0,1.41,0,2.109,0
				c19.849,0,39.691,0.027,59.53-0.064c3.794-0.006,6.995,1.418,10.146,3.215c0.064,0.249,0.241,0.309,0.462,0.249h-0.018
				c2.444,1.997,4.539,4.358,6.614,6.739c4.39,5.013,8.137,10.543,12.702,15.398c6.409,7.611,12.405,15.55,19.261,23.107
				c-1.314,0.244-2.029-0.314-2.801-0.604c-4.009-1.469-8.012-1.502-12.004-0.018c-8.375,3.161-12.61,9.775-14.882,17.958
				c-1.278,4.639-0.834,9.396-0.926,14.119c-0.018,0.564,0.324,1.233-0.304,1.731c-0.335-0.343-0.649-0.619-0.944-0.904
				c-2.568-3.215-5.098-6.43-7.666-9.645c-2.853-3.465-5.744-6.929-8.563-10.447c-0.654-0.809-1.007-0.684-1.599,0.014
				c-2.473,3.057-5.004,6.102-7.524,9.141C269.551,176.273,263.872,183.174,258.193,190.092z"/>
		</g>
	</g>
	<g>
		<path style="fill-rule:evenodd;clip-rule:evenodd;fill:#201813;" d="M315.613,73.795c0.176,0.026,0.352,0.08,0.527,0.094
			c-0.027,0.051-0.045,0.102-0.059,0.169c-0.162-0.093-0.299-0.184-0.451-0.277L315.613,73.795z"/>
		<g>
			<path style="fill-rule:evenodd;clip-rule:evenodd;" d="M295.752,356.066c-6.59,1.682-13.037,3.859-19.494,6.025
				c-3.428,0.93-6.754,2.217-10.123,3.385c-8.516,2.939-17.141,5.602-25.82,8.043c-5.775,1.627-11.215,0.195-15.422-4.094
				c-7.104-7.283-8.715-16.205-6.408-25.85c1.479-6.076,4.848-10.996,10.773-13.607c3.389-1.484,6.91-2.717,10.395-3.926
				c8.457-2.926,17.02-5.51,25.543-8.227c3.361-1.023,6.711-2.102,10.055-3.121c-0.105-0.867-0.643-1.236-1.033-1.707
				c-6.314-7.783-13.178-15.076-19.547-22.805c-4.676-5.645-9.652-11.023-14.35-16.654c-6.514-7.781-7.717-20.838-2.785-29.709
				c3.99-7.178,12.311-11.402,19.469-9.828c3.58,0.789,6.434,2.834,8.973,5.381c5.391,5.406,9.867,11.572,14.914,17.268
				c3.059,3.426,6.197,6.785,9.072,10.369c5.66,7.029,11.895,13.58,17.627,20.535c5.244,6.389,10.793,12.479,16.16,18.736
				c5.252,6.129,9.033,12.742,8.504,21.166c-0.047,0.553-0.076,1.117-0.152,1.666c-1.031,8.451-4.859,15.066-12.51,19.211
				c-3.596,1.223-7.199,2.43-10.805,3.664c-0.336-0.029-0.568,0.039-0.545,0.459l-0.131,0.078c-0.816-0.316-1.512,0.104-2.223,0.328
				C302.496,353.904,299.141,355.018,295.752,356.066z"/>
			<path style="fill-rule:evenodd;clip-rule:evenodd;" d="M73.048,324.365c-0.219-0.145-1.009,0.037-0.312-0.592
				c3.223-0.039,6.427-0.066,9.67-0.102c4.649,0.102,9.321,0.26,13.988-0.096c5.807,0.275,11.602,0.105,17.422-0.039
				c6.282,0.406,12.588,0.264,18.879,0.094c6.005,0.404,12.026,0.17,18.02,0.104c0.723-0.012,1.564-0.063,2.121-0.734
				c0.26,0,0.436-0.092,0.453-0.367l-0.018,0.041c0.889-0.186,1.324-0.973,1.926-1.537c6.172-5.932,12.369-11.822,18.316-17.992
				c1.385-1.416,2.901-2.701,4.35-4.053c-0.117-0.146-0.224-0.301-0.357-0.471c-1.604-0.109-3.197-0.211-4.789-0.33
				c-8.003-0.748-16.018-1.482-24.021-2.205c-5.885-0.525-11.768-1.063-17.656-1.547c-1.58-0.131-3.172-0.631-4.774-0.092
				c-1.028-0.629-2.197-0.381-3.306-0.488c-3.391-0.352-6.801-0.654-10.203-0.994c5.115-0.605,10.203-0.709,15.313-0.486
				c8.108-0.027,16.222-0.053,24.333-0.053c9.218,0.156,18.442,0.131,27.665-0.053c2.85,0.498,5.372-0.117,7.17-2.508
				c1.619-2.137,3.781-3.752,5.482-5.801l-0.025,0.014c0.474-0.104,0.74-0.434,0.871-0.863h-0.063
				c0.136-0.094,0.264-0.16,0.404-0.223c5.404-4.949,10.738-9.938,15.711-15.342c0.223-0.25,0.537-0.605,0.504-0.865
				c-0.074-0.523-0.621-0.445-1.022-0.5c-6.157-0.684-12.32-1.363-18.49-2.045c-5.746-0.67-11.487-1.404-17.242-2.021
				c-4.135-0.436-8.247-1.18-12.406-1.273c-0.533-0.186-1.27,0.195-1.656-0.564c1.123-0.67,2.285-0.119,3.42-0.158
				c12.264-0.025,24.557-0.037,36.824-0.051c3.501,0.025,7.051-0.262,10.528,0.143c5.324,0.592,9.457-1.086,12.708-5.275
				c1.465-1.848,3.738-3.006,4.695-5.301l-0.027,0.014c0.369,0.064,0.57-0.094,0.676-0.434c1.748-1.588,3.51-3.176,5.732-5.223
				c-0.652,3.176-1.537,5.615-1.906,8.178c-1.26,8.881,1.029,16.781,6.484,23.773c2.648,3.389,5.807,6.354,8.34,9.855
				c1.166,1.588,2.232,3.254,3.445,4.791c0.891,1.104-0.094,1.469-0.641,2.006c-4.465,4.305-9.117,8.453-13.432,12.926
				c-6.658,6.904-13.902,13.203-20.531,20.131c-6.191,6.469-12.988,12.309-19.113,18.818c-4.781,5.064-10.061,9.58-14.777,14.684
				c-3.572,3.594-7.122,7.189-10.688,10.797c-3.524,2.836-6.66,6.064-9.765,9.332c-2.042,1.928-4.4,3.479-6.106,5.748
				c-6.72,4.434-13.73,4.934-20.475,0.551c-4.764-3.096-7.633-7.967-9.377-13.41c-0.206-0.607-0.399-1.209-0.603-1.811
				c-0.239-1.104-0.488-2.191-0.743-3.295c-1.101-11.127,3.705-19.67,11.684-26.873c2.554-2.297,4.864-4.873,7.303-7.285
				c0.745-0.473,1.471-0.943,1.919-2.07c-2.522-0.201-4.859-0.371-7.212-0.568c-5.038-0.471-10.088-0.98-15.145-1.363
				c-3.134-0.236-6.255-0.865-9.441-0.643c-5.557-0.643-11.131-1.299-16.704-1.941c-4.616-0.658-9.245-1.105-13.926-1.26
				C79.339,324.652,76.217,324.326,73.048,324.365z"/>
			<g>
				<path style="fill-rule:evenodd;clip-rule:evenodd;" d="M330.475,115.485c3.15,0.012,6.313,0.08,9.449,0.012
					c1.891-0.038,2.709-1.165,2.475-3.028c0.973-0.617,1.055-1.774,1.602-2.645c0.352-0.61,0.021-0.933-0.547-1.029
					c-3.078-0.513-6.061-1.551-9.219-1.707c-0.064-0.029-0.129-0.068-0.191-0.114c-0.16-0.386-0.473-0.491-0.869-0.439
					c-4.588-1.01-9.203-2.008-13.807-3.031c0.02-0.184,0.045-0.369,0.045-0.54c2.195,0,4.373,0,6.57,0
					c5.604-0.024,11.229-0.04,16.83-0.051c5.135,1.208,8.586-1.298,11.398-5.21c0.314-0.451,0.844-0.726,1.678-1.409
					c-6.004-1.412-11.516-2.716-17.037-4.023c0.016-0.709,0.564-0.485,0.934-0.485c10.1,0.014,20.205,0.026,30.293,0.051
					c5.564,0.014,10.969,0.918,15.576,4.043c7.645,5.168,12.949,12.255,15.664,21.133c0.793,2.514,1.383,5.105,2.068,7.631
					c0,4.25,0,8.488,0,12.722c-0.926,0.689-0.637,1.777-0.83,2.682c-2.281,10.827-7.107,19.947-16.902,25.885
					c-2.6,1.576-5.43,2.605-8.264,3.609c-1.26,0.203-2.547,0.412-3.799,0.609c-2.695,0.02-5.354-0.197-8.035-0.55
					c-1.246-0.385-2.508-0.734-3.748-1.172c-8.832-3.211-14.633-9.535-18.514-17.895c-0.561-1.437-1.137-2.86-1.658-4.312
					c-2.566-7.394-3.281-14.938-1.953-22.68c0.156-0.874,0.691-1.968-0.975-2.218c-3.27-0.474-6.516-1.051-9.77-1.588
					c-5.348-1.537-11.076-1.485-16.246-3.898c1.367-0.195,2.699-0.195,4.025-0.195C321.295,115.59,325.881,115.537,330.475,115.485z
					"/>
				<path style="fill-rule:evenodd;clip-rule:evenodd;" d="M300.645,208.021c2.896,0.131,2.959,0.08,2.943-2.859
					c-0.027-2.598-0.092-5.237,0.035-7.846c0.078-1.668-0.58-2.336-2.201-2.678c-7.604-1.629-15.193-3.385-22.793-5.104
					c0.662-0.658,1.484-0.355,2.227-0.369c6.135-0.039,12.264-0.064,18.396-0.09c4.363,0.459,4.381,0.404,4.363-3.923
					c-0.027-3.873,0.018-7.758-0.012-11.627c-0.063-6.667,1.83-12.558,6.195-17.728c4.209-5.031,9.443-6.764,15.766-5.831
					c2.846,0.411,5.236,1.933,7.711,3.259c0.84,0.984,1.686,2.008,2.535,2.997c3.584,4.199,5.404,9.082,5.773,14.546
					c-0.01,5.182-0.193,10.379,0.121,15.576c-0.361,7.283-0.162,14.537-0.094,21.807c-0.027,3.086,0,6.157-0.094,9.241
					c-0.037,1.232,0.438,1.572,1.586,1.561c3.568-0.053,7.141,0,10.711,0.012c1.195,0.016,2.377,0.094,3.578,0.055
					c5.137-0.119,10.289,0.289,15.426-0.17c2.145,0.064,4.273,0.234,6.408-0.158c0.455,0.119,0.908,0.209,1.35,0.328
					c2.613,0.314,5.078,1.074,7.4,2.361c5.908,3.346,8.045,8.752,8.547,15.131c0.389,5.053-0.219,10-1.549,14.854
					c-1.42,5.17-4.889,8.438-9.637,10.564c-3.174,1.441-6.508,2.283-9.9,2.912c-1.418,0.121-2.836,0.236-4.254,0.355
					c-2.049-0.055-4.102-0.105-6.148-0.145c-3.971,0.064-7.898,0.131-11.852,0.17c-2.336-0.59-4.729-0.17-7.098-0.209
					c-3.426-0.08-6.873,0-10.305,0.025c-4.445-0.039-8.865-0.051-13.301-0.117c-5.217-0.08-9.582-2.021-12.977-6.025
					c-2.895-3.41-4.59-7.373-5.555-11.689c-0.498-3.307-0.434-6.615-0.285-9.934c0.07-1.76-0.535-2.219-2.234-2.338
					c-14.127-0.984-28.295-1.783-42.385-3.215c-7.902-0.799-15.805-1.402-23.727-1.982c-4.957-0.34-9.932-0.469-15.305-1.27
					c1.26-0.738,2.133-0.498,2.943-0.514c8.014-0.209,16.035,0.381,24.043-0.264c0.436,0.867,1.252,0.447,1.854,0.447
					c14.271,0.014,28.531,0.014,42.793,0c0.629,0,1.252-0.129,1.871-0.168c2.838,0,5.641-0.041,8.477,0
					c1.031,0.025,1.531-0.199,1.502-1.393c-0.064-3.309-0.025-6.615-0.012-9.936c0.012-1.271-0.482-1.836-1.801-2.098
					c-4.674-0.867-9.426-1.168-14.098-2.285c-5.25-1.243-10.727-1.563-16.109-2.282c-3.723-0.51-7.459-0.998-11.191-1.482
					c0.021-0.17,0.021-0.314,0.045-0.475C273.766,208.021,287.209,208.021,300.645,208.021z"/>
				<path style="fill-rule:evenodd;clip-rule:evenodd;" d="M257.08,189.888c-1.539,1.508-2.924,3.227-4.645,4.514
					c-5.742,4.318-13.443,4.539-19.699,0.734c-0.781-0.459-1.551-0.984-2.311-1.482c0.176-0.721-0.494-0.945-0.877-1.299
					c-1.766-1.641-3.238-3.479-4.432-5.564c-2.262-4-3.203-8.343-3.457-12.859c-0.02-3.463,0.527-6.855,1.244-10.25
					c0.193-0.918,0.201-1.363-0.963-1.43c-4.977-0.281-9.972-0.668-14.933-1.018c-6.453-0.438-12.909-0.832-19.353-1.316
					c-11.021-0.82-22.023-1.668-33.035-2.527c-6.79-0.57-13.576-1.168-20.373-1.767c-0.022-0.005-0.045-0.125-0.135-0.306
					c0.51-0.754,1.34-0.395,2.012-0.395c6.975-0.019,13.939,0,20.939,0.021c0.977,0,1.971,0.064,2.896-0.355
					c0.28,0.055,0.548,0.145,0.825,0.145c9.951,0,19.889-0.014,29.842,0c1.083,0,2.08-0.289,3.102-0.604
					c11.834-3.596,23.791-6.654,36.002-8.673c2.133-0.349,4.746-0.113,6.311-1.276c3.156-2.308,5.506-5.602,7.635-9.117
					c-4.994-0.5-9.674-0.998-14.361-1.463c-14.555-1.622-29.119-3.229-43.72-4.383c-0.724-0.193-1.438-0.349-2.157-0.513
					c0.008-0.1,0.008-0.185,0.018-0.275c2.078,0,4.121,0,6.202,0c19.397,0.02,38.804,0.025,58.222,0.074
					c1.076,0,1.941-0.369,2.619-1.176c2.461-2.998,4.932-5.977,7.4-8.967c3.609-4.358,7.242-8.721,11.104-13.339
					c-13.461-1.497-26.607-2.96-39.734-4.397c-2.938-0.346-5.85-0.689-8.771-1.049c0.006-0.125,0.006-0.243,0.018-0.388
					c0.693,0,1.41,0,2.109,0c19.848,0,39.691,0.026,59.529-0.065c3.795-0.006,6.996,1.418,10.146,3.215
					c0.064,0.249,0.24,0.309,0.461,0.249h-0.018c2.445,1.997,4.539,4.358,6.615,6.74c4.389,5.012,8.137,10.543,12.701,15.397
					c6.41,7.611,12.406,15.55,19.262,23.108c-1.314,0.244-2.029-0.314-2.801-0.604c-4.01-1.469-8.012-1.503-12.004-0.018
					c-8.375,3.161-12.611,9.775-14.883,17.958c-1.277,4.639-0.834,9.394-0.926,14.119c-0.018,0.564,0.324,1.232-0.303,1.73
					c-0.336-0.342-0.65-0.619-0.945-0.904c-2.568-3.215-5.098-6.43-7.666-9.645c-2.852-3.464-5.744-6.927-8.563-10.447
					c-0.654-0.809-1.006-0.684-1.598,0.016c-2.473,3.055-5.004,6.1-7.525,9.139C268.438,176.07,262.76,182.97,257.08,189.888z"/>
			</g>
		</g>
		<path style="fill-rule:evenodd;clip-rule:evenodd;fill:#201813;" d="M333.174,106.536c0.396-0.052,0.709,0.053,0.869,0.439
			C333.678,106.975,333.346,106.929,333.174,106.536z"/>
		<path style="fill-rule:evenodd;clip-rule:evenodd;fill:#201813;" d="M299.947,366.305c-0.232,0.313-0.52,0.418-1.025,0.117
			c0.453-0.041,0.75-0.055,1.045-0.08L299.947,366.305z"/>
		<path style="fill-rule:evenodd;clip-rule:evenodd;fill:#201813;" d="M308.242,352.447c-0.023-0.42,0.209-0.488,0.545-0.459
			C308.738,352.289,308.559,352.434,308.242,352.447z"/>
		<path style="fill-rule:evenodd;clip-rule:evenodd;fill:#201813;" d="M228.129,249.318c-0.105,0.34-0.307,0.498-0.676,0.434
			C227.572,249.449,227.783,249.307,228.129,249.318z"/>
		<path style="fill-rule:evenodd;clip-rule:evenodd;fill:#201813;" d="M292.76,102.585c-0.221,0.06-0.396,0-0.461-0.249
			C292.451,102.427,292.613,102.506,292.76,102.585z"/>
		<path style="fill-rule:evenodd;clip-rule:evenodd;fill:#201813;" d="M192.693,284.078c-0.139-0.707,0.499-0.668,0.871-0.863
			C193.434,283.645,193.167,283.975,192.693,284.078z"/>
		<path style="fill-rule:evenodd;clip-rule:evenodd;fill:#201813;" d="M193.502,283.215c0.136-0.094,0.264-0.16,0.404-0.223
			C193.766,283.055,193.638,283.121,193.502,283.215z"/>
		<path style="fill-rule:evenodd;clip-rule:evenodd;fill:#201813;" d="M152.836,323c0.158-0.105,0.306-0.236,0.453-0.367
			C153.271,322.908,153.096,323,152.836,323z"/>
		<path style="fill-rule:evenodd;clip-rule:evenodd;fill:#DB9600;" d="M291.793,170.468c2.568,3.215,5.098,6.43,7.676,9.645
			c-0.527,2.99-0.094,5.982-0.217,8.962c-6.133,0.025-12.262,0.051-18.396,0.09c-0.742,0.014-1.564-0.289-2.227,0.369
			c-7.18-0.16-14.367-0.08-21.549,0.354c5.68-6.917,11.357-13.818,17.027-20.712c1.338,0.072,2.68,0.131,3.994,0.242
			C282.67,169.76,287.234,170.125,291.793,170.468z"/>
		<path style="fill-rule:evenodd;clip-rule:evenodd;fill:#C46D35;" d="M123.975,367.17c0.255,1.104,0.504,2.191,0.743,3.295
			c-5.251-2.602-9.952-6.064-14.517-9.672c-7.822-6.18-11.102-14.869-12.928-24.277c-0.629-3.334-0.896-6.693-0.896-10.09
			c5.573,0.643,11.147,1.299,16.704,1.941c-0.504,4.631-0.658,9.238-0.122,13.896C114.092,351.709,117.955,359.9,123.975,367.17z"/>
		<path style="fill-rule:evenodd;clip-rule:evenodd;fill:#DB9600;" d="M82.406,323.672c-3.243,0.035-6.447,0.063-9.67,0.102
			c-0.354-4.135-1.143-8.213-1.409-12.387c-0.925-14.225,0.47-28.016,6.92-41.008c1.324-2.676,2.901-5.156,4.681-7.504
			c1.026-1.367,2.109-1.393,3.417-0.396c2.36,1.801,4.812,3.479,7.142,5.291c1.973,1.496,2.012,2.246,0.906,4.502
			c-7.838,15.863-12.071,32.594-12.08,50.348C82.313,322.963,82.35,323.303,82.406,323.672z"/>
		<path style="fill-rule:evenodd;clip-rule:evenodd;fill:#C46D35;" d="M353.184,265.223c3.953-0.039,7.881-0.105,11.852-0.17
			c0.629,14.514-1.957,28.346-8.795,41.281c-1.48,2.811-2.99,5.576-4.758,8.203c-0.293,0.459-0.635,1.207-1.238,0.854
			c-0.76-0.447,0.039-0.973,0.242-1.404c4.508-9.869,7.42-20.078,6.672-31.09C356.73,276.809,355.258,270.959,353.184,265.223z"/>
		<path style="fill-rule:evenodd;clip-rule:evenodd;fill:#DB9600;" d="M73.048,324.365c3.169-0.039,6.291,0.287,9.404,0.801
			c0.407,6.914,3.124,13.082,6.151,19.184c2.852,5.732,6.605,10.824,10.626,15.746c0.204,0.238,0.363,0.539,0.612,0.908
			C89.604,358.848,74.996,338.748,73.048,324.365z"/>
		<path style="fill-rule:evenodd;clip-rule:evenodd;fill:#DB9600;" d="M371.184,265.197c1.418-0.119,2.836-0.234,4.254-0.355
			c-1.738,6.232-3.592,12.387-6.16,18.318C369.875,277.164,371.305,271.244,371.184,265.197z"/>
		<path style="fill-rule:evenodd;clip-rule:evenodd;fill:#DB9600;" d="M227.48,249.738c-0.957,2.295-3.23,3.453-4.695,5.301
			c-3.252,4.189-7.385,5.867-12.708,5.275c-3.477-0.404-7.027-0.117-10.528-0.143c7.051-3.191,14.286-5.971,21.68-8.242
			C223.35,251.273,225.117,249.699,227.48,249.738z"/>
		<path style="fill-rule:evenodd;clip-rule:evenodd;fill:#DB9600;" d="M152.401,292.426c3.799-3.41,7.216-7.258,11.333-10.355
			c5.307-3.988,10.798-7.662,16.283-11.375c3.459-2.322,7.195-4.094,10.592-6.455c6.17,0.682,12.333,1.361,18.49,2.045
			c0.401,0.055,0.948-0.023,1.022,0.5c0.033,0.26-0.281,0.615-0.504,0.865c-4.973,5.404-10.307,10.393-15.711,15.342
			c-0.141,0.063-0.269,0.129-0.404,0.223h0.063c-0.372,0.195-1.01,0.156-0.871,0.863l0.025-0.014
			c-0.539-0.311-0.944,0.07-1.35,0.289c-4.124,2.182-7.671,5.172-11.303,8.02C170.844,292.557,161.619,292.582,152.401,292.426z"/>
		<path style="fill-rule:evenodd;clip-rule:evenodd;fill:#DB9600;" d="M221.66,173.931c0.254,4.516,1.195,8.859,3.457,12.859
			c1.193,2.086,2.666,3.924,4.432,5.564c0.383,0.354,1.053,0.578,0.877,1.299c-19.353,3.279-37.899,9.201-55.421,17.993
			c-11.322,5.667-22.542,11.663-33.045,18.856c-7.337,5.012-14.484,10.275-21.668,15.482c-3.261,2.365-3.604,2.377-6.229-0.67
			c-2.195-2.545-4.335-5.193-6.623-7.688c-1.429-1.574-1.076-2.598,0.268-4.08c6.81-7.572,15.105-13.32,23.18-19.355
			c10.688-7.993,22.504-13.964,34.27-20.079c17.104-8.884,35.252-14.605,53.902-19.066
			C219.963,174.835,221.068,174.955,221.66,173.931z"/>
		<path style="fill-rule:evenodd;clip-rule:evenodd;fill:#C46D35;" d="M229.314,133.602c4.688,0.465,9.367,0.964,14.361,1.463
			c-2.129,3.515-4.479,6.81-7.635,9.117c-1.564,1.163-4.178,0.927-6.311,1.276c-12.211,2.019-24.168,5.077-36.002,8.673
			c-1.021,0.314-2.019,0.604-3.102,0.604c-9.953-0.014-19.891,0-29.842,0c-0.277,0-0.545-0.09-0.825-0.145
			c5.597-3.07,11.544-5.288,17.483-7.544c11.754-4.502,23.905-7.678,36.188-10.427C218.83,135.45,224.109,134.77,229.314,133.602z"
			/>
		<path style="fill-rule:evenodd;clip-rule:evenodd;fill:#C46D35;" d="M154.621,157.391c11.012,0.859,22.014,1.707,33.035,2.527
			c6.443,0.484,12.899,0.879,19.353,1.316c-12.379,3.365-24.692,6.949-36.545,11.873c-5.491,2.295-11.006,4.602-16.381,7.148
			c-1.823,0.867-2.85,0.498-3.665-1.299c-1.966-4.342-3.996-8.697-6.088-13.017c-0.686-1.428-0.389-2.389,0.947-3.148
			C148.396,160.994,151.502,159.197,154.621,157.391z"/>
		<path style="fill-rule:evenodd;clip-rule:evenodd;fill:#DB9600;" d="M155.172,385.135c1.706-2.27,4.064-3.82,6.106-5.748
			c4.009,3.029,8.001,6.207,12.71,8.07c5.428,2.123,11.063,3.74,16.826,4.764c8.646,1.547,17.384,2.23,26.746,2.23
			c-3.587,1.061-6.73,1.258-9.85,1.379c-11.711,0.459-23.424,0.639-34.807-2.836C166.664,391.078,160.672,388.662,155.172,385.135z"
			/>
		<g>
			<path style="fill-rule:evenodd;clip-rule:evenodd;fill:#C46D35;" d="M300.645,208.021c-13.436,0-26.879,0-40.314,0
				c-0.023,0.16-0.023,0.305-0.045,0.475c3.732,0.484,7.469,0.973,11.191,1.482c5.383,0.719,10.859,1.039,16.109,2.282
				c4.672,1.117,9.424,1.418,14.098,2.285c1.318,0.262,1.813,0.826,1.801,2.098c-0.014,3.32-0.053,6.627,0.012,9.936
				c0.029,1.193-0.471,1.418-1.502,1.393c-2.836-0.041-5.639,0-8.477,0c-5.078-1.209-10.305-1.459-15.498-1.746
				c-10.387-0.551-20.717,0.143-31.02,1.467c-8.008,0.645-16.029,0.055-24.043,0.264c-0.811,0.016-1.684-0.225-2.943,0.514
				c5.373,0.801,10.348,0.93,15.305,1.27c-13.721,3.834-27.742,6.68-40.932,12.324c-5.243,2.244-10.598,4.369-15.451,7.32
				c-5.166,3.164-10.414,6.145-15.27,9.75c-0.357,0.279-0.633,0.709-0.941,1.09c-1.135,0.039-2.297-0.512-3.42,0.158
				c0.387,0.76,1.123,0.379,1.656,0.564c-6.431,5.355-12.918,10.656-19.233,16.113c-5.233,4.514-10.079,9.41-13.659,15.42
				c-5.109-0.223-10.197-0.119-15.313,0.486c3.402,0.34,6.813,0.643,10.203,0.994c1.108,0.107,2.277-0.141,3.306,0.488
				c-1.862,3.146-3.872,6.221-5.53,9.5c-3.176,6.205-5.291,12.836-6.918,19.59c-5.82,0.145-11.615,0.314-17.422,0.039
				c0.428-11.875,3.532-22.908,9.841-33.092c3.733-6.037,8.125-11.496,12.573-16.971c6.306-7.727,13.416-14.656,20.818-21.32
				c8.213-7.389,17.795-12.6,27.162-18.213c15.275-9.186,31.805-15.355,48.602-21.012c20.668-6.965,41.857-8.686,63.436-7.493
				C286.156,205.884,293.432,206.619,300.645,208.021z"/>
			<path style="fill-rule:evenodd;clip-rule:evenodd;fill:#C46D35;" d="M380.576,219.02c-0.441-0.119-0.895-0.209-1.35-0.328
				c-1.074-3.191-2.02-6.441-3.254-9.592c-2.096-5.42-5.164-10.315-8.338-15.145c-6.604-10.103-15.857-17.164-26.051-23.185
				c-0.369-5.464-2.189-10.347-5.773-14.546c-0.85-0.989-1.695-2.013-2.535-3.01c-0.023-1.614-0.113-3.23-0.023-4.857
				c0.121-2.257,0.801-2.647,2.791-1.653c2.447,1.227,4.844,2.555,7.252,3.833c3.881,8.359,9.682,14.684,18.514,17.895
				c1.24,0.438,2.502,0.787,3.748,1.172c4.609,6.785,9.061,13.648,11.67,21.479C380.244,200.149,381.523,209.455,380.576,219.02z"/>
			<path style="fill-rule:evenodd;clip-rule:evenodd;fill:#C46D35;" d="M342.813,102.915c-5.602,0.011-11.227,0.026-16.83,0.051
				c-0.99-0.839-2.215-1.238-3.381-1.743c-12.629-5.616-26.021-8.627-39.416-11.717c-3.895-0.893-4.037-0.913-4.018-5.026
				c0-2.036,0.043-4.094,0.016-6.135c-0.01-1.632,0.781-2.631,2.412-2.566c6.818,0.315,13.551,0.984,20.088,3.32
				c3.84,1.378,7.82,2.427,11.615,3.949c8.58,3.499,16.297,8.477,23.494,14.187C338.906,98.906,341.453,100.354,342.813,102.915z"/>
		</g>
		<path style="fill-rule:evenodd;clip-rule:evenodd;fill:#DB9600;" d="M42.738,289.115c-5.35-7.408-7.547-15.336-8.533-23.723
			c-0.84-7.098-0.662-14.223,0.039-21.336c0.244-2.678,0.442-2.807,3.145-2.492c1.604,0.211,3.215,0.42,4.836,0.535
			c1.098,0.08,1.482,0.498,1.196,1.627c-1.907,7.547-2.656,15.291-3.179,23.045c-0.473,6.928,0.285,13.779,2.076,20.537
			C42.412,287.715,42.494,288.107,42.738,289.115z"/>
		<path style="fill-rule:evenodd;clip-rule:evenodd;fill:#C46D35;" d="M373.592,170.152c1.252-0.197,2.539-0.406,3.799-0.609
			c0.24,1.96,0.566,3.917,0.754,5.871c0.148,1.656,1.635,3.348-0.086,5.105C376.92,176.898,375.678,173.326,373.592,170.152z"/>
		<path style="fill-rule:evenodd;clip-rule:evenodd;fill:#C46D35;" d="M64.485,325.166c-2.052-3.201-4.085-6.182-5.928-9.266
			c-7.349-12.4-11.794-25.586-11.007-40.234c0.426-7.857,2.541-15.26,5.439-22.529c5.754-14.367,13.193-27.713,22.94-39.813
			c5.192-6.43,11.037-12.032,17.349-17.255c4.32-3.545,8.805-6.773,13.826-9.279c1.892-0.957,2.893-0.496,3.688,1.223
			c1.862,3.973,3.706,7.912,5.567,11.871c0.582,1.238,0.25,2.195-0.75,3.006c-1.251,1.014-2.574,1.956-3.816,3.02
			c-8.809,7.504-17.328,15.366-24.768,24.239c-4.918,5.904-9.707,11.951-13.711,18.529c-9.451,15.563-14.844,32.213-13.611,50.691
			c0.539,7.988,1.909,15.811,4.563,23.395C64.518,323.473,65.008,324.182,64.485,325.166z"/>
		<path style="fill-rule:evenodd;clip-rule:evenodd;fill:#C46D35;" d="M171.043,370.055c3.565-3.607,7.115-7.203,10.688-10.797
			c2.427,11.691,9.962,19.17,19.998,24.813c2.637,1.471,5.257,2.744,8.176,3.463c0.352,0.08,0.676,0.199,0.795,0.879
			c-6.346-1.088-12.712-1.348-18.61-4.184c-4.1-1.943-8.199-3.754-11.961-6.301C176.798,375.66,173.605,373.207,171.043,370.055z"/>
		<path style="fill-rule:evenodd;clip-rule:evenodd;fill:#DB9600;" d="M312.059,124.723c-4.564-4.854-8.313-10.385-12.701-15.397
			c-2.076-2.381-4.17-4.743-6.615-6.74c8.375,1.22,16.441,3.714,24.459,6.365c3.936,1.325,7.689,3.091,11.418,4.928
			c0.773,0.375,1.551,0.715,1.855,1.607c-4.594,0.051-9.18,0.105-13.756,0.159c-1.326,0-2.658,0-4.025,0.195
			c5.17,2.414,10.898,2.362,16.232,3.898c-0.443,2.348-1.297,4.559-2.164,6.782c-0.563,1.407-1.373,1.812-2.938,1.347
			C319.924,126.718,316.088,125.391,312.059,124.723z"/>
		<g>
			<path style="fill-rule:evenodd;clip-rule:evenodd;fill:#DB9600;" d="M218.541,30.966c2.527,0.859,5.234,0.675,7.797,1.31
				c1.201,0.289,2.41,0.499,3.594,0.941c-7.053,0.091-14.068,0.57-21.055,1.068c-13.796,1.035-27.691,1.83-41.004,5.781
				c-8.772,2.602-17.697,4.624-26.379,7.564c-0.855,0.314-1.535,0.55-2.018-0.618c-0.494-1.134,0.314-1.377,0.992-1.678
				c1.463-0.723,2.926-1.392,4.411-2.076c13.897-6.515,28.782-9.092,43.827-11.074c3.02-0.386,6.127-0.22,9.061-1.219
				C204.689,30.966,211.612,30.966,218.541,30.966z"/>
		</g>
		<path style="fill-rule:evenodd;clip-rule:evenodd;fill:#C46D35;" d="M300.512,59.374c-3.193-1.285-6.121-2.461-9.039-3.635
			c-17.225-7.005-35.18-10.798-53.699-11.896c-3.539-0.202-7.07-0.038-10.598,0.178c-0.975,0.071-2.205,0.185-2.52-1.003
			c-0.389-1.556-0.502-3.246,0.236-4.731c0.299-0.596,1.15-0.432,1.785-0.465c10.197-0.321,20.361,0.27,30.313,2.5
			c15.467,3.425,29.979,9.362,43.07,18.451C300.15,58.849,300.217,58.994,300.512,59.374z"/>
		<path style="fill-rule:evenodd;clip-rule:evenodd;fill:#DB9600;" d="M189.657,128.431c-2.081,0-4.124,0-6.202,0
			c-0.01,0.09-0.01,0.175-0.018,0.275c0.72,0.165,1.434,0.32,2.157,0.513c-6.096,2.018-12.323,3.685-18.25,6.141
			c-13.667,5.648-27.508,11.068-40.116,18.915c-9.273,5.763-18.91,11.03-27.403,17.952c-7.876,6.375-15.809,12.793-22.774,20.208
			c-3.881,4.143-7.97,8.158-11.639,12.557c-1.127,1.338-2.238,1.533-3.64,0.514c-2.138-1.617-4.286-3.217-6.464-4.793
			c-1.559-1.113-1.828-2.465-1.146-4.238c2.239-6.035,6.26-10.837,10.429-15.574c7.948-9.055,17.36-16.47,26.711-24
			c9.254-7.481,19.324-13.662,29.395-19.908c12.709-7.886,26.423-13.574,40.264-19.085c19.635-7.842,40.094-12.381,60.82-15.976
			c2.502-0.422,5.076-0.354,7.477-1.307c13.137,1.437,26.283,2.9,39.744,4.397c-3.861,4.619-7.494,8.981-11.104,13.339
			c-2.264-0.046-4.521,0.136-6.777,0.235c-15.896,0.683-31.617,2.781-47.164,6.146C199.138,125.785,194.267,126.633,189.657,128.431
			z"/>
		<path style="fill-rule:evenodd;clip-rule:evenodd;fill:#DB9600;" d="M315.631,73.782c-7.963-2.112-15.969-4.14-24.104-5.608
			c-14.344-2.591-28.768-4.179-43.332-4.684c-25.727-0.893-51.057,1.724-75.883,8.588c-6.547,1.812-13.092,3.634-19.358,6.194
			c-13.716,5.562-27.653,10.688-40.468,18.224c-10.254,6.038-20.65,11.98-29.83,19.633c-6.978,5.806-14.164,11.462-20.242,18.238
			c-5.696,6.359-11.584,12.599-16.291,19.737c-4,6.063-8.165,12.038-11.261,18.631c-2.253,4.832-4.758,9.555-6.549,14.593
			c-0.179,0.512-0.244,1.088-0.919,1.547c-0.094-2.781,0.445-5.365,0.919-7.937c1.337-7.324,3.69-14.328,6.693-21.142
			c3.487-7.923,8.12-15.155,12.993-22.255c4.771-6.979,10.496-13.095,16.108-19.341c6.317-7.033,13.802-12.649,21.076-18.555
			c9.583-7.808,20.384-13.62,30.929-19.865c13.673-8.111,28.318-13.897,43.155-19.364c17.563-6.461,35.713-9.701,54.253-11.25
			c18.039-1.511,35.99-0.763,53.832,2.203c8.666,1.443,17.115,4.008,25.023,7.743c7.365,3.476,14.885,6.855,21.164,12.23
			c0.811,0.681,1.963,1.168,2.072,2.452L315.631,73.782z"/>
		<path style="fill-rule:evenodd;clip-rule:evenodd;fill:#C46D35;" d="M27.84,237.891c-0.78-5.211-0.78-10.33-0.521-15.461
			c0.785-15.657,5.4-30.181,12.914-43.893c4.303-7.84,9.582-14.945,15.139-21.906c5.262-6.581,11.488-12.2,17.476-18.063
			c7.856-7.716,16.758-14.002,25.566-20.498c10.519-7.756,22.128-13.464,33.78-19.165c17.781-8.732,36.688-14.028,55.639-19.375
			c7.224-2.037,14.476-3.479,21.893-4.299c2.959-0.309,5.923-0.354,8.888-0.005c1.232,0.142,2.146,0.649,2.297,2.033
			c0.297,2.875,0.594,5.754,0.346,8.646c-0.15,1.653-0.992,2.475-2.672,2.75c-12.682,2.157-25.291,4.703-37.557,8.508
			c-16.965,5.262-34.084,10.218-50,18.281c-11.359,5.761-22.559,11.98-32.677,19.8c-7.587,5.854-15.394,11.482-22.267,18.201
			c-6.6,6.459-13.427,12.705-19.35,19.814c-3.791,4.541-7.526,9.158-10.914,14.001c-5.41,7.678-8.689,16.416-12.019,25.116
			c-2.991,7.863-4.344,16.035-5.069,24.369C28.698,237.143,28.801,237.627,27.84,237.891z"/>
		<path style="fill-rule:evenodd;clip-rule:evenodd;fill:#C46D35;" d="M42.494,137.662c2.54-6.666,6.117-12.755,9.673-18.911
			c4.186-7.269,9.571-13.58,15.007-19.891c3.569-4.162,7.635-7.691,11.785-11.181c12.389-10.464,25.703-19.455,40.079-27.059
			c17.546-9.281,36.31-14.473,55.628-18.241c3.285-0.649,6.725-0.583,9.899-1.939c0.216-0.099,0.606-0.119,0.794-0.008
			c2.063,1.018,1.729,2.991,1.945,4.783c0.164,1.497-0.682,1.902-1.906,2.256c-12.95,3.454-25.983,6.765-38.512,11.562
			c-14.017,5.381-27.895,11.181-40.726,19.054c-9.302,5.707-18.521,11.672-26.876,18.726c-7.086,5.988-14.425,11.809-20.541,18.882
			c-5.148,5.957-10.358,11.927-14.288,18.842C43.866,135.603,43.793,136.999,42.494,137.662z"/>
		<path style="fill-rule:evenodd;clip-rule:evenodd;fill:#DB9600;" d="M78.18,84.34c9.101-8.877,18.827-16.909,29.76-23.455
			c0.601-0.369,1.213-0.604,1.723-1.168c0.63-0.717,1.529-1.51,2.473-0.354c0.885,1.088,0.615,1.928-0.592,2.736
			c-7.596,5.129-15.203,10.214-22.678,15.523c-3.431,2.429-6.68,5.08-10.508,6.909C78.295,84.464,78.247,84.404,78.18,84.34z"/>
		<path style="fill-rule:evenodd;clip-rule:evenodd;fill:#C46D35;" d="M78.357,84.53c-0.249,0.224-0.527,0.368-0.833,0.079
			c0.233-0.091,0.444-0.179,0.655-0.269C78.247,84.404,78.295,84.464,78.357,84.53z"/>
		<path style="fill-rule:evenodd;clip-rule:evenodd;fill:#DB9600;" d="M303.949,247.207c0.965,4.316,2.66,8.279,5.555,11.689
			c3.395,4.004,7.76,5.945,12.977,6.025c4.436,0.066,8.855,0.078,13.301,0.117c2.803,4.029,5.389,8.215,7.822,12.506
			c4.059,7.088,4.756,14.695,4.002,22.543c-1.672,17.293-9.414,31.771-20.799,44.631c-6.68,7.545-14.494,13.58-22.902,18.922
			c-1.354,0.852-2.271,2.32-3.957,2.664l0.02,0.037c0.529-1.113,1.447-1.822,2.43-2.506c5.854-4,11.145-8.648,16.047-13.779
			c0.471-0.51,1.055-0.953,1.148-1.732c7.65-4.145,11.479-10.76,12.51-19.211c0.076-0.549,0.105-1.113,0.152-1.666
			c4.65-13.539,5.762-26.924-2.146-39.719c-4.023-6.521-9.137-11.941-15.863-15.865c-6.197-3.596-12.814-5.736-19.797-6.941
			c-3.266-0.566-3.58-0.957-3.408-4.342c0.137-3.6,0.691-7.154,1.451-10.672c0.557-2.637,1.406-3.307,4.068-3.217
			C299.023,246.771,301.486,247.012,303.949,247.207z"/>
		<path style="fill-rule:evenodd;clip-rule:evenodd;fill:#C46D35;" d="M265.195,317.816c-8.523,2.717-17.086,5.301-25.543,8.227
			c-3.484,1.209-7.006,2.441-10.395,3.926c-5.926,2.611-9.295,7.531-10.773,13.607c-2.307,9.645-0.695,18.566,6.408,25.85
			c4.207,4.289,9.646,5.721,15.422,4.094c8.68-2.441,17.305-5.104,25.82-8.043c3.369-1.168,6.695-2.455,10.123-3.385
			c-10.133,8.869-22.303,12.99-35.365,14.736c-8.695,1.168-17.164-0.146-25.262-3.674c-10.282-4.502-14.081-13.307-10.514-23.951
			c3.158-9.406,9.957-15.678,17.84-21.074c10.322-7.072,21.99-9.879,34.227-10.787C259.859,317.146,262.535,317.438,265.195,317.816
			z"/>
		<path style="fill-rule:evenodd;clip-rule:evenodd;fill:#C46D35;" d="M295.752,356.066c3.389-1.049,6.744-2.162,10.137-3.213
			c0.711-0.225,1.406-0.645,2.223-0.328c-2.818,3.676-6.561,6.352-9.912,9.473c-10.629,9.908-23.688,14.684-37.461,18.084
			c-0.65,0.158-1.055,0.248-1.443-0.498C273.135,374.373,286.236,367.982,295.752,356.066z"/>
		<path style="fill-rule:evenodd;clip-rule:evenodd;fill:#C46D35;" d="M152.836,323c-0.557,0.672-1.398,0.723-2.121,0.734
			c-5.993,0.066-12.015,0.301-18.02-0.104c2.823-8.82,7.309-16.758,13.183-23.91c0.976-1.18,2.203-2.178,2.817-3.635
			c8.004,0.723,16.019,1.457,24.021,2.205c-6.454,5.352-11.41,12.008-16.189,18.791c-1.254,1.758-2.729,3.398-3.256,5.592
			l0.018-0.041C153.142,322.764,152.994,322.895,152.836,323z"/>
		<path style="fill-rule:evenodd;clip-rule:evenodd;fill:#DB9600;" d="M372.818,218.85c-5.137,0.459-10.289,0.051-15.426,0.17
			c-1.201,0.039-2.383-0.039-3.578-0.055c-3.623-4.094-7.434-8.002-12.203-10.813c-0.068-7.27-0.268-14.524,0.094-21.797
			c4.029,2.26,7.83,4.832,11.459,7.773C361.57,200.976,368.422,208.9,372.818,218.85z"/>
	</g>
</g>
</svg>
