<?xml version="1.0" encoding="utf-8"?>
<svg viewBox="9 230 564.686 112" style="enable-background:new 0 0 566.93 566.93;" xmlns="http://www.w3.org/2000/svg">
  <g style="pointer-events: none;" transform="matrix(1.066756, 0.000001, -0.000001, 1.066756, -19.098948, -170.271179)">
    <g>
      <path style="fill:#CB6120;" d="M75.816,420.197l-3.112,14.597H52.941l-2.112,9.815l-3.132,14.603H32.903l13.604-63.423h14.803 l-3.131,14.602l-2.115,9.807H75.816z M86.752,415.289H71.958l1.106-4.898h-9.932l3.135-14.602h24.708L86.752,415.289z"/>
      <path style="fill:#CB6120;" d="M123.129,444.609l-2.945-30.774l-23.881,45.377H83.346h-2.481l33.342-63.423h19.772l6.137,63.423 h-19.736h-18.826l7.614-14.603H123.129z"/>
      <path style="fill:#CB6120;" d="M198.742,434.794l-3.212,14.613c-0.25,1.33-0.771,2.576-1.565,3.775 c-0.802,1.176-1.728,2.224-2.799,3.124c-1.071,0.903-2.252,1.604-3.536,2.121c-1.289,0.533-2.596,0.784-3.951,0.784h-4.96h-24.717 c-1.353,0-2.573-0.251-3.668-0.784c-1.112-0.518-2.034-1.218-2.768-2.121c-0.736-0.9-1.221-1.948-1.473-3.124 c-0.241-1.199-0.241-2.445,0-3.775l2.115-9.702h14.883l-1.01,4.904h19.76l1.012-4.873l1.094-4.942h-14.88h-4.866h-4.965 c-1.35,0-2.571-0.254-3.671-0.769c-1.112-0.506-2.029-1.201-2.762-2.08c-0.737-0.868-1.221-1.903-1.472-3.093 c-0.244-1.166-0.207-2.462,0.097-3.859l4.138-19.51c0.31-1.321,0.837-2.588,1.61-3.774c0.765-1.154,1.697-2.201,2.797-3.072 c1.094-0.875,2.303-1.572,3.63-2.086c1.321-0.496,2.645-0.762,3.989-0.762h4.971l-3.124,14.648l-2.12,9.76h19.759h4.951 c1.359,0,2.568,0.252,3.64,0.768c1.063,0.493,1.959,1.209,2.653,2.102c0.717,0.914,1.198,1.962,1.477,3.125 c0.283,1.178,0.262,2.421-0.046,3.742L198.742,434.794z M205.005,405.483l-2.59,12.247h-14.786l1.55-7.34h-14.874l3.124-14.602 h19.837c1.355,0,2.564,0.266,3.646,0.762c1.065,0.514,1.956,1.211,2.661,2.086c0.699,0.871,1.198,1.918,1.457,3.072 C205.32,402.896,205.294,404.162,205.005,405.483z"/>
      <path style="fill:#CB6120;" d="M255.165,395.789l-3.135,14.602h-14.788l-10.482,48.821h-14.792l10.474-48.821h-14.875 l3.117-14.602h4.958H255.165z"/>
    </g>
    <g>
      <path style="fill:#FFFFFF;" d="M314.833,445.776l-3.117,14.61h-9.825h-14.893h-4.958h-9.831c-2.013,0-3.856-0.396-5.512-1.175 c-1.648-0.793-3.026-1.848-4.083-3.191c-1.087-1.318-1.794-2.883-2.164-4.677c-0.367-1.782-0.34-3.677,0.105-5.668l10.45-48.718 h14.804l-10.477,48.818h9.826h4.969l10.479-48.818h14.864l-10.452,48.818H314.833z M339.204,396.958l-13.589,63.429h-9.825h-4.961 l3.124-14.711l10.471-48.718H339.204z"/>
      <path style="fill:#FFFFFF;" d="M393.801,406.661l-9.463,43.914c-0.239,1.396-0.774,2.671-1.566,3.863 c-0.788,1.187-1.722,2.213-2.775,3.088c-1.076,0.871-2.271,1.563-3.556,2.08c-1.282,0.517-2.609,0.78-3.949,0.78h-24.715h-4.973 c-1.332,0-2.547-0.264-3.665-0.78c-1.09-0.518-2.008-1.209-2.707-2.08c-0.701-0.875-1.176-1.901-1.417-3.088 c-0.25-1.192-0.25-2.468,0-3.863l9.46-43.914c0.293-1.33,0.85-2.584,1.6-3.766c0.768-1.187,1.691-2.218,2.771-3.077 c1.062-0.896,2.256-1.584,3.577-2.092c1.315-0.507,2.649-0.769,4.003-0.769h4.939l-3.112,14.644l-7.347,34.175h19.743l7.364-34.22 h-14.794l3.119-14.599h19.76c1.329,0,2.557,0.262,3.611,0.769c1.074,0.508,1.978,1.196,2.672,2.092 c0.704,0.859,1.191,1.891,1.478,3.077C394.134,404.077,394.121,405.331,393.801,406.661z"/>
      <path style="fill:#FFFFFF;" d="M439.457,440.881l-0.455,2.342l-1.642,7.353l-2.027,9.812h-9.931h-4.954l3.123-14.711l1.019-4.795 h-14.789l3.213-14.624h14.775l3.137-14.7h-19.76l-3.124,14.623l-3.216,14.701l-0.999,4.795l-3.133,14.711H385.9l13.608-63.429 h39.493c1.354,0,2.565,0.262,3.632,0.769c1.079,0.516,1.982,1.208,2.714,2.092c0.741,0.881,1.244,1.915,1.511,3.088 c0.288,1.192,0.267,2.444-0.046,3.789l-4.127,19.562c-0.371,1.562-0.933,2.913-1.703,4.072c-0.77,1.135-1.88,2.224-3.353,3.225 c1.037,1.032,1.699,2.123,1.977,3.265C439.893,437.955,439.832,439.315,439.457,440.881z"/>
      <path style="fill:#FFFFFF;" d="M486.139,448.121l-2.576,12.266h-44.46l13.601-63.429h14.785l-11.016,51.163h14.791l2.65-12.146 h14.885L486.139,448.121z"/>
      <path style="fill:#FFFFFF;" d="M548.24,406.661l-9.461,43.914c-0.253,1.396-0.773,2.671-1.565,3.863 c-0.802,1.187-1.73,2.213-2.79,3.088c-1.083,0.871-2.27,1.563-3.582,2.08c-1.33,0.517-2.647,0.78-4.004,0.78h-24.622h-9.926 h-4.957l13.594-63.429h4.968h9.908l-3.116,14.599l-7.353,34.22h19.757l7.35-34.22h-14.888l3.131-14.599h19.749 c1.349,0,2.58,0.262,3.67,0.769c1.105,0.508,2.026,1.196,2.717,2.092c0.692,0.859,1.189,1.891,1.479,3.077 C548.564,404.077,548.547,405.331,548.24,406.661z"/>
    </g>
  </g>
</svg>