<?xml version="1.0" encoding="iso-8859-1"?>
<!-- Generator: Adobe Illustrator 16.0.0, SVG Export Plug-In . SVG Version: 6.00 Build 0)  -->
<!DOCTYPE svg PUBLIC "-//W3C//DTD SVG 1.1//EN" "http://www.w3.org/Graphics/SVG/1.1/DTD/svg11.dtd">
<svg version="1.1" id="Capa_1" xmlns="http://www.w3.org/2000/svg" xmlns:xlink="http://www.w3.org/1999/xlink" x="0px" y="0px"
	 width="566.93px" height="566.93px" viewBox="0 0 566.93 566.93" style="enable-background:new 0 0 566.93 566.93;"
	 xml:space="preserve">
<g>
	<g>
		<path style="fill-rule:evenodd;clip-rule:evenodd;fill:#FFFFFF;" d="M388.962,447.909c-7.761,1.982-15.354,4.546-22.952,7.093
			c-4.032,1.098-7.958,2.615-11.919,3.993c-10.028,3.458-20.19,6.594-30.405,9.47c-6.801,1.917-13.206,0.228-18.156-4.823
			c-8.369-8.575-10.265-19.082-7.557-30.438c1.746-7.155,5.715-12.951,12.691-16.024c4-1.746,8.142-3.198,12.245-4.62
			c9.96-3.443,20.038-6.491,30.068-9.689c3.959-1.205,7.901-2.472,11.841-3.677c-0.12-1.018-0.756-1.451-1.21-2.006
			c-7.441-9.165-15.522-17.756-23.015-26.856c-5.515-6.644-11.375-12.978-16.908-19.606c-7.661-9.164-9.081-24.538-3.274-34.982
			c4.698-8.454,14.495-13.428,22.931-11.576c4.215,0.927,7.568,3.34,10.563,6.338c6.341,6.368,11.607,13.626,17.56,20.335
			c3.598,4.033,7.292,7.986,10.68,12.204c6.671,8.284,14.009,15.994,20.762,24.183c6.173,7.524,12.701,14.694,19.02,22.062
			c6.187,7.218,10.639,15.005,10.02,24.927c-0.051,0.648-0.09,1.312-0.177,1.961c-1.216,9.953-5.732,17.739-14.738,22.622
			c-4.233,1.437-8.473,2.858-12.715,4.312c-0.395-0.034-0.67,0.043-0.649,0.541l-0.149,0.092c-0.963-0.373-1.784,0.126-2.622,0.387
			C396.902,445.365,392.951,446.677,388.962,447.909z"/>
		<path style="fill-rule:evenodd;clip-rule:evenodd;fill:#FFFFFF;" d="M126.727,410.58c-0.258-0.169-1.188,0.048-0.367-0.694
			c3.803-0.048,7.569-0.074,11.384-0.121c5.48,0.121,10.98,0.307,16.474-0.112c6.84,0.324,13.656,0.126,20.521-0.043
			c7.391,0.479,14.816,0.307,22.228,0.107c7.065,0.478,14.156,0.199,21.218,0.121c0.849-0.012,1.839-0.073,2.487-0.863
			c0.31,0,0.519-0.108,0.543-0.432l-0.025,0.045c1.042-0.216,1.562-1.144,2.262-1.809c7.278-6.982,14.574-13.921,21.571-21.184
			c1.63-1.666,3.417-3.183,5.123-4.772c-0.129-0.172-0.266-0.357-0.414-0.559c-1.896-0.122-3.766-0.242-5.642-0.384
			c-9.428-0.884-18.86-1.749-28.283-2.599c-6.93-0.617-13.86-1.251-20.796-1.822c-1.858-0.156-3.734-0.74-5.617-0.105
			c-1.216-0.746-2.592-0.451-3.896-0.572c-3.996-0.416-8.016-0.775-12.015-1.177c6.027-0.709,12.015-0.835,18.034-0.57
			c9.546-0.032,19.097-0.063,28.646-0.063c10.861,0.185,21.726,0.156,32.577-0.063c3.364,0.591,6.33-0.14,8.446-2.95
			c1.899-2.518,4.45-4.418,6.454-6.829l-0.024,0.017c0.556-0.125,0.861-0.508,1.019-1.02h-0.076
			c0.169-0.106,0.313-0.189,0.479-0.266c6.365-5.823,12.647-11.696,18.502-18.062c0.261-0.292,0.632-0.707,0.592-1.019
			c-0.089-0.617-0.733-0.526-1.205-0.587c-7.245-0.804-14.504-1.607-21.767-2.412c-6.773-0.785-13.529-1.652-20.305-2.38
			c-4.87-0.511-9.713-1.389-14.61-1.499c-0.625-0.216-1.489,0.231-1.956-0.662c1.332-0.788,2.696-0.14,4.032-0.187
			c14.446-0.032,28.916-0.047,43.361-0.061c4.125,0.028,8.306-0.308,12.394,0.169c6.274,0.695,11.139-1.282,14.969-6.212
			c1.724-2.177,4.402-3.536,5.534-6.243l-0.03,0.016c0.428,0.077,0.662-0.107,0.786-0.51c2.063-1.871,4.141-3.739,6.756-6.148
			c-0.771,3.738-1.812,6.611-2.245,9.624c-1.48,10.463,1.207,19.764,7.637,28c3.115,3.986,6.833,7.479,9.819,11.605
			c1.376,1.871,2.631,3.831,4.058,5.637c1.045,1.297-0.112,1.731-0.76,2.364c-5.253,5.068-10.731,9.951-15.81,15.217
			c-7.841,8.129-16.38,15.548-24.179,23.705c-7.296,7.618-15.299,14.492-22.505,22.159c-5.634,5.965-11.843,11.275-17.408,17.289
			c-4.205,4.233-8.381,8.465-12.574,12.719c-4.161,3.331-7.855,7.133-11.496,10.986c-2.411,2.267-5.195,4.095-7.2,6.767
			c-7.919,5.219-16.167,5.812-24.107,0.648c-5.609-3.649-8.993-9.38-11.044-15.795c-0.234-0.709-0.467-1.424-0.709-2.133
			c-0.286-1.295-0.579-2.579-0.869-3.878c-1.296-13.102,4.354-23.16,13.75-31.642c3.015-2.704,5.734-5.73,8.607-8.575
			c0.877-0.555,1.731-1.113,2.254-2.442c-2.966-0.231-5.714-0.433-8.491-0.664c-5.932-0.555-11.871-1.159-17.834-1.604
			c-3.69-0.278-7.355-1.023-11.114-0.761c-6.551-0.754-13.101-1.529-19.667-2.283c-5.437-0.773-10.893-1.299-16.393-1.486
			C134.138,410.921,130.461,410.538,126.727,410.58z"/>
		<g>
			<path style="fill-rule:evenodd;clip-rule:evenodd;fill:#FFFFFF;" d="M429.853,164.627c3.709,0.017,7.433,0.092,11.123,0.017
				c2.228-0.049,3.183-1.377,2.908-3.572c1.154-0.722,1.25-2.084,1.895-3.11c0.408-0.719,0.019-1.1-0.645-1.213
				c-3.629-0.605-7.14-1.827-10.866-2.01c-0.069-0.033-0.143-0.076-0.216-0.132c-0.188-0.455-0.56-0.578-1.031-0.517
				c-5.391-1.189-10.832-2.365-16.256-3.57c0.033-0.215,0.064-0.433,0.064-0.633c2.581,0,5.141,0,7.728,0
				c6.606-0.031,13.222-0.046,19.82-0.062c6.044,1.421,10.109-1.531,13.424-6.132c0.37-0.532,0.994-0.859,1.97-1.664
				c-7.063-1.661-13.553-3.195-20.059-4.733c0.014-0.834,0.667-0.574,1.102-0.574c11.894,0.017,23.787,0.032,35.675,0.063
				c6.551,0.016,12.914,1.08,18.338,4.758c8.991,6.088,15.237,14.434,18.442,24.884c0.936,2.961,1.631,6.011,2.435,8.986
				c0,5.005,0,9.998,0,14.98c-1.09,0.811-0.748,2.094-0.972,3.159c-2.692,12.748-8.378,23.487-19.905,30.479
				c-3.067,1.854-6.396,3.067-9.736,4.242c-1.479,0.244-2.997,0.493-4.472,0.727c-3.177,0.015-6.304-0.233-9.461-0.65
				c-1.471-0.457-2.953-0.867-4.416-1.385c-10.393-3.776-17.227-11.225-21.793-21.065c-0.661-1.693-1.345-3.371-1.961-5.077
				c-3.012-8.708-3.863-17.591-2.298-26.706c0.18-1.027,0.815-2.318-1.148-2.613c-3.847-0.557-7.663-1.236-11.502-1.87
				c-6.302-1.807-13.037-1.747-19.125-4.589c1.613-0.232,3.165-0.232,4.729-0.232C419.04,164.751,424.433,164.687,429.853,164.627z"
				/>
			<path style="fill-rule:evenodd;clip-rule:evenodd;fill:#FFFFFF;" d="M394.714,273.589c3.416,0.155,3.494,0.094,3.477-3.366
				c-0.021-3.062-0.104-6.167,0.04-9.241c0.087-1.961-0.685-2.75-2.595-3.153c-8.954-1.916-17.885-3.985-26.834-6.009
				c0.777-0.773,1.747-0.417,2.615-0.433c7.234-0.049,14.445-0.077,21.663-0.109c5.145,0.542,5.161,0.477,5.145-4.619
				c-0.034-4.561,0.017-9.133-0.017-13.69c-0.078-7.851,2.148-14.788,7.293-20.878c4.96-5.924,11.126-7.962,18.568-6.866
				c3.351,0.485,6.164,2.279,9.075,3.841c0.991,1.154,1.986,2.365,2.983,3.527c4.226,4.944,6.366,10.693,6.795,17.129
				c-0.006,6.104-0.222,12.222,0.151,18.34c-0.426,8.578-0.193,17.122-0.118,25.682c-0.033,3.63,0,7.248-0.105,10.878
				c-0.043,1.453,0.516,1.854,1.867,1.839c4.203-0.063,8.406,0,12.609,0.016c1.403,0.015,2.805,0.105,4.214,0.061
				c6.054-0.139,12.118,0.341,18.173-0.199c2.519,0.076,5.021,0.278,7.542-0.186c0.529,0.14,1.065,0.246,1.592,0.385
				c3.076,0.371,5.979,1.268,8.708,2.783c6.957,3.941,9.479,10.307,10.064,17.817c0.462,5.945-0.252,11.772-1.821,17.488
				c-1.667,6.086-5.764,9.935-11.345,12.437c-3.738,1.702-7.666,2.691-11.666,3.431c-1.666,0.14-3.335,0.277-5.006,0.418
				c-2.405-0.062-4.836-0.124-7.241-0.168c-4.668,0.075-9.297,0.155-13.956,0.199c-2.752-0.697-5.559-0.199-8.361-0.249
				c-4.031-0.089-8.089,0-12.126,0.033c-5.239-0.046-10.44-0.062-15.663-0.139c-6.142-0.095-11.285-2.38-15.281-7.093
				c-3.404-4.02-5.402-8.683-6.542-13.769c-0.589-3.894-0.51-7.785-0.331-11.696c0.085-2.07-0.627-2.611-2.639-2.748
				c-16.632-1.161-33.311-2.102-49.903-3.788c-9.306-0.939-18.604-1.649-27.936-2.334c-5.844-0.4-11.701-0.553-18.02-1.494
				c1.482-0.868,2.503-0.591,3.462-0.604c9.44-0.247,18.88,0.447,28.313-0.308c0.516,1.018,1.479,0.521,2.18,0.521
				c16.803,0.018,33.601,0.018,50.395,0c0.731,0,1.473-0.152,2.196-0.199c3.34,0,6.64-0.044,9.979,0
				c1.225,0.031,1.809-0.231,1.779-1.639c-0.081-3.894-0.033-7.786-0.017-11.694c0.017-1.5-0.571-2.165-2.124-2.473
				c-5.502-1.021-11.106-1.375-16.603-2.69c-6.181-1.464-12.623-1.838-18.969-2.686c-4.38-0.604-8.778-1.177-13.175-1.75
				c0.018-0.201,0.018-0.368,0.051-0.555C363.075,273.589,378.901,273.589,394.714,273.589z"/>
			<path style="fill-rule:evenodd;clip-rule:evenodd;fill:#FFFFFF;" d="M343.427,252.238c-1.818,1.774-3.443,3.8-5.464,5.312
				c-6.77,5.082-15.838,5.35-23.211,0.867c-0.908-0.54-1.818-1.157-2.711-1.747c0.209-0.848-0.575-1.112-1.029-1.529
				c-2.078-1.931-3.812-4.094-5.215-6.552c-2.666-4.712-3.783-9.825-4.082-15.142c-0.016-4.08,0.629-8.071,1.47-12.066
				c0.229-1.084,0.237-1.608-1.132-1.685c-5.857-0.332-11.74-0.787-17.587-1.198c-7.594-0.516-15.198-0.981-22.787-1.553
				c-12.973-0.967-25.93-1.962-38.895-2.973c-7.995-0.675-15.987-1.378-23.99-2.078c-0.032-0.01-0.057-0.148-0.161-0.363
				c0.595-0.888,1.581-0.465,2.374-0.465c8.2-0.023,16.409,0,24.65,0.022c1.15,0,2.326,0.079,3.408-0.417
				c0.326,0.062,0.648,0.172,0.97,0.172c11.717,0,23.427-0.018,35.136,0c1.283,0,2.463-0.338,3.667-0.712
				c13.927-4.232,28.011-7.834,42.383-10.213c2.518-0.407,5.593-0.13,7.428-1.498c3.726-2.719,6.489-6.599,8.996-10.738
				c-5.882-0.589-11.392-1.177-16.916-1.724c-17.141-1.908-34.283-3.802-51.472-5.16c-0.854-0.225-1.699-0.409-2.552-0.605
				c0.016-0.113,0.016-0.215,0.031-0.321c2.439,0,4.853,0,7.292,0c22.848,0.02,45.699,0.028,68.558,0.084
				c1.267,0,2.286-0.435,3.094-1.384c2.891-3.53,5.808-7.038,8.714-10.561c4.247-5.128,8.531-10.267,13.072-15.705
				c-15.857-1.763-31.33-3.485-46.789-5.179c-3.464-0.409-6.889-0.811-10.329-1.236c0.009-0.146,0.009-0.286,0.023-0.454
				c0.817,0,1.653,0,2.487,0c23.362,0,46.735,0.028,70.089-0.079c4.474-0.011,8.237,1.667,11.946,3.785
				c0.075,0.296,0.289,0.365,0.543,0.296h-0.021c2.885,2.349,5.348,5.128,7.786,7.932c5.181,5.903,9.583,12.419,14.956,18.134
				c7.557,8.96,14.611,18.31,22.684,27.209c-1.547,0.285-2.393-0.371-3.289-0.71c-4.727-1.732-9.442-1.772-14.138-0.022
				c-9.868,3.722-14.847,11.512-17.525,21.145c-1.503,5.454-0.99,11.06-1.094,16.624c-0.017,0.665,0.387,1.454-0.353,2.042
				c-0.396-0.405-0.766-0.729-1.115-1.067c-3.031-3.789-5.996-7.573-9.025-11.359c-3.361-4.078-6.769-8.158-10.08-12.296
				c-0.773-0.95-1.183-0.804-1.889,0.014c-2.911,3.601-5.889,7.187-8.859,10.763C356.8,235.966,350.106,244.095,343.427,252.238z"/>
		</g>
	</g>
	<path style="fill-rule:evenodd;clip-rule:evenodd;" d="M393.899,459.967c-0.272,0.371-0.601,0.49-1.203,0.138
		c0.529-0.05,0.875-0.064,1.236-0.096L393.899,459.967z"/>
	<path style="fill-rule:evenodd;clip-rule:evenodd;" d="M403.666,443.649c-0.021-0.498,0.255-0.575,0.649-0.541
		C404.251,443.46,404.041,443.632,403.666,443.649z"/>
	<path style="fill-rule:evenodd;clip-rule:evenodd;" d="M309.333,322.215c-0.124,0.402-0.358,0.587-0.786,0.51
		C308.684,322.37,308.934,322.199,309.333,322.215z"/>
	<path style="fill-rule:evenodd;clip-rule:evenodd;" d="M267.617,363.147c-0.177-0.838,0.588-0.788,1.019-1.02
		C268.478,362.64,268.173,363.022,267.617,363.147z"/>
	<path style="fill-rule:evenodd;clip-rule:evenodd;" d="M268.56,362.128c0.169-0.106,0.313-0.189,0.479-0.266
		C268.872,361.938,268.729,362.021,268.56,362.128z"/>
	<path style="fill-rule:evenodd;clip-rule:evenodd;" d="M220.671,408.975c0.189-0.124,0.374-0.277,0.543-0.432
		C221.19,408.866,220.981,408.975,220.671,408.975z"/>
	<g>
		<path style="fill-rule:evenodd;clip-rule:evenodd;fill:#CB6120;" d="M384.302,229.367c3.029,3.786,5.994,7.57,9.043,11.359
			c-0.626,3.521-0.119,7.046-0.265,10.553c-7.218,0.032-14.429,0.06-21.663,0.109c-0.868,0.015-1.838-0.34-2.615,0.433
			c-8.455-0.187-16.916-0.092-25.375,0.418c6.68-8.143,13.373-16.271,20.047-24.391c1.578,0.086,3.152,0.151,4.709,0.284
			C373.558,228.533,378.934,228.966,384.302,229.367z"/>
		<g>
			<path style="fill-rule:evenodd;clip-rule:evenodd;fill:#CB6120;" d="M186.698,460.981c0.29,1.299,0.583,2.583,0.869,3.878
				c-6.188-3.057-11.717-7.135-17.092-11.384c-9.216-7.278-13.075-17.507-15.219-28.587c-0.745-3.926-1.054-7.877-1.054-11.879
				c6.567,0.754,13.117,1.529,19.667,2.283c-0.595,5.454-0.771,10.879-0.144,16.365
				C175.061,442.781,179.604,452.424,186.698,460.981z"/>
			<g>
				<path style="fill-rule:evenodd;clip-rule:evenodd;fill:#CB6120;" d="M137.744,409.765c-3.814,0.047-7.581,0.073-11.384,0.121
					c-0.418-4.866-1.348-9.673-1.654-14.586c-1.098-16.749,0.556-32.99,8.145-48.284c1.562-3.152,3.412-6.073,5.513-8.838
					c1.207-1.608,2.49-1.638,4.016-0.463c2.784,2.116,5.673,4.092,8.414,6.227c2.33,1.758,2.371,2.643,1.075,5.297
					c-9.239,18.682-14.213,38.384-14.229,59.289C137.639,408.927,137.684,409.329,137.744,409.765z"/>
				<path style="fill-rule:evenodd;clip-rule:evenodd;fill:#CB6120;" d="M456.585,340.942c4.659-0.044,9.288-0.124,13.956-0.199
					c0.739,17.087-2.307,33.374-10.358,48.608c-1.746,3.31-3.517,6.568-5.593,9.659c-0.353,0.538-0.757,1.421-1.466,1.002
					c-0.896-0.526,0.048-1.144,0.289-1.652c5.304-11.618,8.733-23.641,7.854-36.605
					C460.763,354.588,459.036,347.694,456.585,340.942z"/>
				<path style="fill-rule:evenodd;clip-rule:evenodd;fill:#CB6120;" d="M126.727,410.58c3.734-0.042,7.411,0.341,11.082,0.943
					c0.479,8.145,3.677,15.405,7.239,22.591c3.36,6.752,7.778,12.746,12.507,18.541c0.248,0.275,0.434,0.635,0.727,1.067
					C146.226,451.187,129.016,427.519,126.727,410.58z"/>
				<path style="fill-rule:evenodd;clip-rule:evenodd;fill:#CB6120;" d="M477.782,340.911c1.671-0.141,3.34-0.278,5.006-0.418
					c-2.041,7.342-4.232,14.587-7.25,21.571C476.237,355.002,477.923,348.035,477.782,340.911z"/>
				<g>
					<path style="fill-rule:evenodd;clip-rule:evenodd;fill:#CB6120;" d="M308.577,322.709c-1.132,2.707-3.811,4.066-5.534,6.243
						c-3.83,4.93-8.694,6.907-14.969,6.212c-4.087-0.477-8.269-0.141-12.394-0.169c8.306-3.756,16.829-7.029,25.523-9.707
						C303.709,324.516,305.797,322.666,308.577,322.709z"/>
					<path style="fill-rule:evenodd;clip-rule:evenodd;fill:#CB6120;" d="M220.164,372.973c4.479-4.019,8.499-8.545,13.347-12.188
						c6.246-4.702,12.719-9.024,19.178-13.398c4.064-2.735,8.466-4.82,12.47-7.603c7.263,0.805,14.522,1.608,21.767,2.412
						c0.472,0.061,1.116-0.03,1.205,0.587c0.04,0.312-0.331,0.727-0.592,1.019c-5.854,6.365-12.137,12.238-18.502,18.062
						c-0.166,0.076-0.31,0.159-0.479,0.266h0.076c-0.43,0.231-1.195,0.182-1.019,1.02l0.024-0.017
						c-0.628-0.371-1.111,0.077-1.585,0.34c-4.861,2.565-9.042,6.086-13.315,9.439C241.89,373.129,231.025,373.157,220.164,372.973z
						"/>
					<g>
						<g>
							<path style="fill-rule:evenodd;clip-rule:evenodd;fill:#CB6120;" d="M301.715,233.446c0.299,5.317,1.416,10.43,4.082,15.142
								c1.403,2.458,3.137,4.622,5.215,6.552c0.454,0.417,1.238,0.681,1.029,1.529c-22.786,3.863-44.625,10.833-65.255,21.184
								c-13.331,6.674-26.546,13.738-38.914,22.205c-8.644,5.901-17.05,12.097-25.52,18.233c-3.831,2.779-4.242,2.796-7.331-0.787
								c-2.587-2.999-5.106-6.123-7.794-9.057c-1.682-1.854-1.268-3.06,0.31-4.804c8.015-8.919,17.785-15.686,27.301-22.794
								c12.575-9.406,26.493-16.44,40.343-23.642c20.147-10.459,41.518-17.193,63.477-22.448
								C299.719,234.515,301.022,234.654,301.715,233.446z"/>
							<path style="fill-rule:evenodd;clip-rule:evenodd;fill:#CB6120;" d="M310.729,185.958c5.524,0.547,11.034,1.135,16.916,1.724
								c-2.507,4.139-5.271,8.019-8.996,10.738c-1.835,1.368-4.91,1.091-7.428,1.498c-14.372,2.379-28.457,5.981-42.383,10.213
								c-1.204,0.374-2.384,0.712-3.667,0.712c-11.709-0.018-23.419,0-35.136,0c-0.322,0-0.644-0.11-0.97-0.172
								c6.595-3.617,13.597-6.227,20.594-8.884c13.838-5.299,28.139-9.039,42.601-12.276
								C298.384,188.136,304.605,187.333,310.729,185.958z"/>
							<path style="fill-rule:evenodd;clip-rule:evenodd;fill:#CB6120;" d="M222.784,213.971
								c12.964,1.011,25.922,2.006,38.895,2.973c7.589,0.572,15.193,1.037,22.787,1.553c-14.578,3.963-29.073,8.183-43.027,13.977
								c-6.475,2.704-12.965,5.422-19.291,8.42c-2.148,1.021-3.359,0.588-4.317-1.53c-2.322-5.114-4.696-10.246-7.166-15.329
								c-0.806-1.684-0.458-2.812,1.11-3.708C215.453,218.212,219.114,216.093,222.784,213.971z"/>
							<path style="fill-rule:evenodd;clip-rule:evenodd;fill:#CB6120;" d="M223.427,482.139c2.004-2.672,4.789-4.5,7.2-6.767
								c4.711,3.564,9.415,7.306,14.956,9.503c6.393,2.503,13.021,4.403,19.813,5.604c10.186,1.823,20.473,2.629,31.499,2.629
								c-4.224,1.251-7.925,1.48-11.604,1.625c-13.782,0.539-27.579,0.752-40.979-3.34
								C236.96,489.137,229.906,486.291,223.427,482.139z"/>
							<g>
								<g>
									<path style="fill-rule:evenodd;clip-rule:evenodd;fill:#CB6120;" d="M394.714,273.589c-15.813,0-31.639,0-47.463,0
										c-0.033,0.187-0.033,0.354-0.051,0.555c4.396,0.573,8.795,1.146,13.175,1.75c6.346,0.847,12.788,1.221,18.969,2.686
										c5.496,1.314,11.101,1.669,16.603,2.69c1.553,0.309,2.141,0.974,2.124,2.473c-0.017,3.908-0.064,7.8,0.017,11.694
										c0.029,1.407-0.555,1.67-1.779,1.639c-3.34-0.044-6.64,0-9.979,0c-5.979-1.421-12.126-1.715-18.251-2.056
										c-12.219-0.647-24.388,0.173-36.52,1.734c-9.433,0.755-18.872,0.061-28.313,0.308c-0.959,0.014-1.979-0.264-3.462,0.604
										c6.318,0.941,12.176,1.094,18.02,1.494c-16.155,4.512-32.666,7.867-48.197,14.51c-6.181,2.644-12.482,5.147-18.199,8.624
										c-6.073,3.722-12.253,7.232-17.968,11.478c-0.434,0.325-0.752,0.837-1.119,1.284c-1.336,0.047-2.7-0.602-4.032,0.187
										c0.467,0.894,1.332,0.446,1.956,0.662c-7.569,6.305-15.21,12.55-22.638,18.977c-6.173,5.313-11.871,11.077-16.088,18.154
										c-6.019-0.265-12.007-0.139-18.034,0.57c3.999,0.401,8.02,0.761,12.015,1.177c1.304,0.121,2.679-0.174,3.896,0.572
										c-2.198,3.705-4.568,7.324-6.511,11.183c-3.742,7.311-6.229,15.112-8.144,23.072c-6.865,0.169-13.682,0.367-20.521,0.043
										c0.507-13.981,4.151-26.974,11.589-38.965c4.394-7.111,9.564-13.537,14.799-19.979
										c7.436-9.102,15.798-17.259,24.526-25.109c9.669-8.697,20.952-14.833,31.981-21.445
										c17.982-10.815,37.445-18.078,57.223-24.738c24.336-8.205,49.284-10.228,74.693-8.823
										C377.656,271.07,386.235,271.938,394.714,273.589z"/>
									<path style="fill-rule:evenodd;clip-rule:evenodd;fill:#CB6120;" d="M488.848,286.537
										c-0.526-0.139-1.063-0.245-1.592-0.385c-1.266-3.755-2.382-7.586-3.832-11.294c-2.47-6.382-6.084-12.146-9.817-17.831
										c-7.781-11.9-18.676-20.211-30.684-27.305c-0.429-6.436-2.569-12.185-6.795-17.129c-0.997-1.162-1.992-2.373-2.983-3.543
										c-0.03-1.901-0.129-3.801-0.03-5.718c0.145-2.658,0.943-3.12,3.291-1.945c2.881,1.444,5.702,3.005,8.543,4.511
										c4.566,9.84,11.4,17.289,21.793,21.065c1.463,0.518,2.945,0.928,4.416,1.385c5.419,7.988,10.674,16.069,13.73,25.294
										C488.455,264.32,489.958,275.277,488.848,286.537z"/>
									<path style="fill-rule:evenodd;clip-rule:evenodd;fill:#CB6120;" d="M444.377,149.825
										c-6.599,0.015-13.214,0.03-19.82,0.062c-1.163-0.988-2.608-1.462-3.973-2.056c-14.884-6.612-30.65-10.16-46.419-13.799
										c-4.586-1.049-4.754-1.072-4.729-5.917c0-2.394,0.05-4.82,0.017-7.223c-0.017-1.926,0.921-3.098,2.847-3.02
										c8.018,0.371,15.947,1.159,23.646,3.912c4.518,1.621,9.207,2.854,13.682,4.647c10.098,4.119,19.193,9.981,27.657,16.704
										C439.773,145.105,442.771,146.812,444.377,149.825z"/>
								</g>
								<path style="fill-rule:evenodd;clip-rule:evenodd;fill:#CB6120;" d="M91.035,369.08c-6.293-8.731-8.88-18.063-10.044-27.938
									c-0.985-8.36-0.776-16.748,0.049-25.121c0.285-3.153,0.518-3.309,3.701-2.938c1.891,0.246,3.783,0.495,5.691,0.633
									c1.296,0.096,1.745,0.588,1.408,1.915c-2.242,8.885-3.123,18.003-3.742,27.135c-0.557,8.158,0.345,16.223,2.446,24.183
									C90.648,367.428,90.75,367.89,91.035,369.08z"/>
								<path style="fill-rule:evenodd;clip-rule:evenodd;fill:#CB6120;" d="M480.618,228.999c1.475-0.233,2.992-0.483,4.472-0.727
									c0.283,2.316,0.67,4.619,0.886,6.921c0.176,1.945,1.93,3.939-0.098,6.011C484.535,236.937,483.078,232.736,480.618,228.999z
									"/>
							</g>
							<g>
								<path style="fill-rule:evenodd;clip-rule:evenodd;fill:#CB6120;" d="M116.646,411.523c-2.418-3.77-4.816-7.276-6.973-10.908
									c-8.66-14.604-13.89-30.131-12.969-47.373c0.504-9.257,2.994-17.969,6.406-26.53c6.776-16.918,15.536-32.634,27.017-46.881
									c6.104-7.57,12.997-14.168,20.429-20.316c5.082-4.172,10.366-7.976,16.272-10.926c2.229-1.128,3.413-0.585,4.346,1.438
									c2.197,4.684,4.362,9.315,6.559,13.983c0.68,1.452,0.293,2.581-0.886,3.539c-1.477,1.189-3.038,2.3-4.489,3.553
									c-10.375,8.837-20.414,18.094-29.174,28.539c-5.786,6.954-11.427,14.075-16.139,21.817
									c-11.134,18.325-17.484,37.934-16.027,59.69c0.631,9.408,2.253,18.617,5.376,27.549
									C116.688,409.533,117.259,410.366,116.646,411.523z"/>
								<path style="fill-rule:evenodd;clip-rule:evenodd;fill:#CB6120;" d="M242.123,464.386c4.193-4.254,8.37-8.485,12.574-12.719
									c2.861,13.765,11.738,22.577,23.548,29.217c3.101,1.732,6.196,3.229,9.636,4.079c0.402,0.096,0.797,0.232,0.935,1.04
									c-7.472-1.289-14.973-1.595-21.911-4.931c-4.833-2.289-9.661-4.418-14.091-7.415
									C248.891,470.984,245.133,468.096,242.123,464.386z"/>
								<g>
									<path style="fill-rule:evenodd;clip-rule:evenodd;fill:#CB6120;" d="M408.157,175.505
										c-5.373-5.715-9.775-12.231-14.956-18.134c-2.438-2.804-4.901-5.583-7.786-7.932c9.868,1.438,19.36,4.372,28.8,7.494
										c4.634,1.561,9.056,3.637,13.451,5.8c0.905,0.443,1.816,0.843,2.187,1.894c-5.42,0.06-10.813,0.125-16.209,0.185
										c-1.564,0-3.116,0-4.729,0.232c6.088,2.842,12.823,2.782,19.116,4.589c-0.529,2.766-1.526,5.371-2.558,7.988
										c-0.658,1.656-1.613,2.134-3.452,1.585C417.426,177.853,412.903,176.291,408.157,175.505z"/>
									<g>
										<g>
											<path style="fill-rule:evenodd;clip-rule:evenodd;fill:#CB6120;" d="M298.045,65.105
												c2.978,1.012,6.158,0.794,9.185,1.545c1.407,0.339,2.839,0.587,4.236,1.104c-8.31,0.106-16.575,0.671-24.8,1.259
												c-16.241,1.219-32.601,2.157-48.287,6.807c-10.32,3.068-20.826,5.446-31.055,8.907c-1.006,0.37-1.811,0.65-2.383-0.726
												c-0.57-1.337,0.376-1.622,1.176-1.98c1.715-0.845,3.445-1.636,5.191-2.439c16.36-7.671,33.896-10.707,51.608-13.041
												c3.554-0.457,7.216-0.262,10.672-1.437C281.737,65.105,289.886,65.105,298.045,65.105z"/>
										</g>
										<path style="fill-rule:evenodd;clip-rule:evenodd;fill:#CB6120;" d="M394.563,98.558c-3.754-1.515-7.2-2.897-10.641-4.282
											c-20.28-8.25-41.42-12.714-63.233-14.007c-4.165-0.237-8.317-0.046-12.475,0.208c-1.155,0.089-2.595,0.218-2.966-1.178
											c-0.459-1.832-0.596-3.825,0.281-5.572c0.351-0.704,1.344-0.509,2.097-0.549c12.013-0.379,23.971,0.315,35.691,2.945
											c18.218,4.034,35.301,11.025,50.721,21.72C394.148,97.939,394.224,98.109,394.563,98.558z"/>
										<g>
											<path style="fill-rule:evenodd;clip-rule:evenodd;fill:#CB6120;" d="M264.028,179.872c-2.439,0-4.853,0-7.292,0
												c-0.016,0.106-0.016,0.208-0.031,0.321c0.853,0.196,1.697,0.38,2.552,0.605c-7.188,2.377-14.511,4.34-21.497,7.23
												c-16.087,6.653-32.383,13.031-47.231,22.274c-10.925,6.782-22.269,12.984-32.271,21.137
												c-9.271,7.511-18.611,15.063-26.816,23.792c-4.575,4.885-9.375,9.613-13.705,14.79c-1.328,1.575-2.64,1.807-4.281,0.602
												c-2.52-1.901-5.054-3.785-7.621-5.639c-1.835-1.315-2.141-2.906-1.345-4.992c2.64-7.107,7.376-12.762,12.281-18.339
												c9.356-10.666,20.441-19.392,31.45-28.26c10.893-8.81,22.759-16.087,34.608-23.438
												c14.974-9.289,31.125-15.99,47.414-22.478c23.125-9.232,47.216-14.578,71.621-18.811
												c2.941-0.495,5.975-0.418,8.799-1.539c15.472,1.694,30.944,3.416,46.802,5.179c-4.541,5.438-8.825,10.577-13.072,15.705
												c-2.674-0.057-5.33,0.161-7.986,0.277c-18.717,0.802-37.228,3.275-55.534,7.239
												C275.202,176.756,269.469,177.753,264.028,179.872z"/>
											<path style="fill-rule:evenodd;clip-rule:evenodd;fill:#CB6120;" d="M412.371,115.523
												c-9.38-2.487-18.809-4.874-28.385-6.606c-16.888-3.051-33.88-4.921-51.022-5.517c-30.291-1.05-60.12,2.034-89.352,10.114
												c-7.702,2.131-15.412,4.28-22.792,7.292c-16.151,6.553-32.56,12.588-47.654,21.462
												c-12.071,7.108-24.308,14.108-35.128,23.114c-8.212,6.84-16.671,13.5-23.833,21.481
												c-6.704,7.486-13.633,14.83-19.181,23.238c-4.712,7.138-9.613,14.178-13.259,21.941
												c-2.656,5.686-5.601,11.248-7.709,17.18c-0.218,0.604-0.294,1.283-1.083,1.825c-0.109-3.275,0.527-6.319,1.083-9.349
												c1.577-8.622,4.346-16.872,7.882-24.895c4.108-9.331,9.565-17.843,15.294-26.204c5.626-8.22,12.363-15.418,18.973-22.774
												c7.432-8.282,16.253-14.893,24.815-21.848c11.282-9.193,23.998-16.04,36.424-23.393
												c16.095-9.549,33.341-16.364,50.813-22.797c20.674-7.61,42.05-11.427,63.881-13.249
												c21.239-1.778,42.382-0.899,63.39,2.593c10.204,1.7,20.147,4.718,29.465,9.118c8.677,4.094,17.519,8.073,24.916,14.402
												c0.958,0.804,2.32,1.372,2.44,2.887L412.371,115.523z"/>
											<path style="fill-rule:evenodd;clip-rule:evenodd;fill:#CB6120;" d="M73.499,308.759
												c-0.926-6.139-0.926-12.161-0.62-18.203c0.93-18.434,6.366-35.54,15.202-51.685c5.07-9.238,11.292-17.598,17.834-25.795
												c6.197-7.75,13.52-14.365,20.574-21.272c9.247-9.082,19.737-16.484,30.111-24.132
												c12.381-9.133,26.049-15.857,39.771-22.566c20.932-10.283,43.2-16.52,65.507-22.816
												c8.519-2.396,17.054-4.093,25.785-5.058c3.485-0.366,6.977-0.42,10.47-0.01c1.449,0.17,2.532,0.767,2.7,2.397
												c0.354,3.382,0.696,6.775,0.412,10.181c-0.181,1.948-1.169,2.91-3.146,3.238c-14.934,2.539-29.782,5.539-44.224,10.021
												c-19.978,6.193-40.129,12.03-58.877,21.523c-13.37,6.782-26.568,14.107-38.479,23.318
												c-8.934,6.889-18.124,13.519-26.215,21.429c-7.779,7.603-15.81,14.959-22.779,23.333
												c-4.466,5.345-8.869,10.783-12.86,16.485c-6.362,9.042-10.225,19.33-14.148,29.574
												c-3.525,9.254-5.118,18.878-5.967,28.693C74.505,307.876,74.626,308.448,73.499,308.759z"/>
											<path style="fill-rule:evenodd;clip-rule:evenodd;fill:#CB6120;" d="M90.75,190.74
												c2.99-7.851,7.209-15.019,11.396-22.266c4.929-8.559,11.267-15.99,17.66-23.425c4.205-4.896,8.993-9.056,13.881-13.164
												c14.591-12.323,30.265-22.908,47.2-31.858c20.66-10.934,42.75-17.043,65.497-21.479c3.867-0.762,7.91-0.686,11.657-2.288
												c0.258-0.115,0.711-0.137,0.937-0.004c2.427,1.195,2.033,3.521,2.291,5.629c0.185,1.765-0.81,2.241-2.246,2.658
												c-15.25,4.062-30.589,7.963-45.349,13.61c-16.502,6.337-32.851,13.167-47.953,22.438
												c-10.956,6.721-21.813,13.745-31.65,22.049c-8.342,7.053-16.986,13.904-24.185,22.234
												c-6.063,7.014-12.196,14.048-16.823,22.189C92.363,188.313,92.283,189.958,90.75,190.74z"/>
											<path style="fill-rule:evenodd;clip-rule:evenodd;fill:#CB6120;" d="M132.771,127.956
												c10.715-10.456,22.171-19.912,35.043-27.624c0.713-0.43,1.429-0.71,2.023-1.371c0.746-0.843,1.807-1.777,2.922-0.417
												c1.034,1.279,0.716,2.271-0.704,3.217c-8.937,6.045-17.902,12.031-26.707,18.284c-4.032,2.854-7.862,5.975-12.369,8.132
												C132.907,128.098,132.851,128.031,132.771,127.956z"/>
											<path style="fill-rule:evenodd;clip-rule:evenodd;fill:#CB6120;" d="M132.98,128.177
												c-0.294,0.26-0.621,0.432-0.982,0.094c0.277-0.109,0.522-0.209,0.773-0.316
												C132.851,128.031,132.907,128.098,132.98,128.177z"/>
										</g>
									</g>
								</g>
							</g>
						</g>
						<g>
							<path style="fill-rule:evenodd;clip-rule:evenodd;fill:#CB6120;" d="M398.611,319.727c1.14,5.086,3.138,9.749,6.542,13.769
								c3.996,4.713,9.14,6.998,15.281,7.093c5.223,0.077,10.424,0.093,15.663,0.139c3.298,4.744,6.341,9.675,9.207,14.727
								c4.78,8.34,5.603,17.302,4.716,26.544c-1.973,20.362-11.085,37.405-24.492,52.55c-7.867,8.885-17.061,15.993-26.961,22.282
								c-1.593,1.006-2.679,2.735-4.668,3.138l0.033,0.042c0.613-1.313,1.691-2.146,2.855-2.946
								c6.892-4.716,13.12-10.188,18.897-16.229c0.546-0.601,1.233-1.125,1.345-2.037c9.006-4.883,13.522-12.669,14.738-22.622
								c0.087-0.649,0.126-1.313,0.177-1.961c5.478-15.948,6.774-31.71-2.527-46.771c-4.741-7.678-10.763-14.061-18.681-18.683
								c-7.299-4.233-15.096-6.751-23.314-8.172c-3.847-0.666-4.217-1.129-4.017-5.115c0.17-4.233,0.817-8.42,1.715-12.561
								c0.649-3.107,1.65-3.896,4.794-3.785C392.814,319.217,395.712,319.495,398.611,319.727z"/>
							<path style="fill-rule:evenodd;clip-rule:evenodd;fill:#CB6120;" d="M352.978,402.87c-10.03,3.198-20.108,6.246-30.068,9.689
								c-4.104,1.422-8.245,2.874-12.245,4.62c-6.977,3.073-10.945,8.869-12.691,16.024c-2.708,11.355-0.813,21.862,7.557,30.438
								c4.95,5.051,11.355,6.74,18.156,4.823c10.215-2.876,20.377-6.012,30.405-9.47c3.961-1.378,7.887-2.896,11.919-3.993
								c-11.928,10.445-26.263,15.299-41.641,17.35c-10.249,1.378-20.212-0.168-29.747-4.32
								c-12.111-5.3-16.579-15.666-12.382-28.198c3.714-11.078,11.717-18.47,21.005-24.818c12.16-8.327,25.897-11.636,40.299-12.699
								C346.693,402.082,349.849,402.426,352.978,402.87z"/>
							<path style="fill-rule:evenodd;clip-rule:evenodd;fill:#CB6120;" d="M388.962,447.909c3.989-1.232,7.94-2.544,11.933-3.781
								c0.838-0.261,1.659-0.76,2.622-0.387c-3.314,4.324-7.725,7.479-11.675,11.155c-12.515,11.67-27.89,17.287-44.108,21.29
								c-0.763,0.191-1.242,0.295-1.704-0.582C362.331,469.463,377.758,461.943,388.962,447.909z"/>
							<path style="fill-rule:evenodd;clip-rule:evenodd;fill:#CB6120;" d="M220.671,408.975c-0.648,0.79-1.638,0.852-2.487,0.863
								c-7.062,0.078-14.152,0.356-21.218-0.121c3.324-10.382,8.604-19.73,15.516-28.153c1.154-1.393,2.599-2.566,3.325-4.281
								c9.422,0.85,18.855,1.715,28.283,2.599c-7.601,6.303-13.436,14.135-19.069,22.125c-1.473,2.072-3.204,4.003-3.832,6.582
								l0.025-0.045C221.045,408.697,220.86,408.851,220.671,408.975z"/>
						</g>
					</g>
				</g>
			</g>
		</g>
		<path style="fill-rule:evenodd;clip-rule:evenodd;fill:#CB6120;" d="M479.714,286.338c-6.055,0.54-12.119,0.061-18.173,0.199
			c-1.409,0.045-2.811-0.046-4.214-0.061c-4.268-4.822-8.747-9.427-14.371-12.732c-0.075-8.56-0.308-17.104,0.118-25.663
			c4.741,2.655,9.216,5.686,13.497,9.144C466.46,265.293,474.53,274.626,479.714,286.338z"/>
	</g>
</g>
</svg>
