<?xml version="1.0" encoding="iso-8859-1"?>
<!-- Generator: Adobe Illustrator 16.0.0, SVG Export Plug-In . SVG Version: 6.00 Build 0)  -->
<!DOCTYPE svg PUBLIC "-//W3C//DTD SVG 1.1//EN" "http://www.w3.org/Graphics/SVG/1.1/DTD/svg11.dtd">
<svg version="1.1" id="Capa_1" xmlns="http://www.w3.org/2000/svg" xmlns:xlink="http://www.w3.org/1999/xlink" x="0px" y="0px"
	 width="566.93px" height="566.93px" viewBox="0 0 566.93 566.93" style="enable-background:new 0 0 566.93 566.93;"
	 xml:space="preserve">
<g>
	<g>
		<path style="fill:#FFFFFF;" d="M78.401,407.385l-3.046,14.289H56.009l-2.067,9.61l-3.066,14.293H36.394l13.318-62.084h14.49
			l-3.065,14.293l-2.07,9.599H78.401z M89.107,402.58H74.626l1.083-4.794h-9.723l3.069-14.293h24.188L89.107,402.58z"/>
		<path style="fill:#FFFFFF;" d="M124.717,431.284l-2.883-30.126l-23.376,44.419H85.772h-2.429l32.639-62.084h19.354l6.008,62.084
			h-19.32h-18.429l7.453-14.293H124.717z"/>
		<path style="fill:#FFFFFF;" d="M198.735,421.674l-3.145,14.305c-0.244,1.302-0.754,2.522-1.532,3.698
			c-0.785,1.149-1.691,2.176-2.74,3.057c-1.049,0.884-2.205,1.571-3.461,2.076c-1.262,0.521-2.541,0.768-3.868,0.768h-4.855h-24.196
			c-1.324,0-2.519-0.246-3.59-0.768c-1.088-0.505-1.991-1.192-2.709-2.076c-0.721-0.881-1.195-1.907-1.442-3.057
			c-0.235-1.176-0.235-2.396,0-3.698l2.07-9.497h14.569l-0.987,4.803h19.343l0.991-4.772l1.071-4.838h-14.566h-4.763h-4.861
			c-1.322,0-2.516-0.247-3.593-0.752c-1.089-0.493-1.986-1.176-2.704-2.037c-0.721-0.849-1.195-1.862-1.442-3.025
			c-0.238-1.142-0.202-2.413,0.095-3.779l4.051-19.099c0.303-1.292,0.819-2.532,1.577-3.694c0.748-1.13,1.66-2.153,2.737-3.006
			c1.071-0.859,2.255-1.541,3.554-2.042c1.292-0.489,2.589-0.746,3.904-0.746h4.867l-3.057,14.339l-2.076,9.553h19.343h4.847
			c1.33,0,2.513,0.247,3.563,0.753c1.04,0.481,1.918,1.183,2.597,2.055c0.702,0.896,1.173,1.922,1.445,3.061
			c0.278,1.153,0.257,2.371-0.045,3.663L198.735,421.674z M204.866,392.981l-2.535,11.988h-14.474l1.518-7.184h-14.561l3.058-14.293
			h19.418c1.327,0,2.511,0.257,3.568,0.746c1.043,0.501,1.917,1.183,2.606,2.042c0.684,0.853,1.172,1.876,1.425,3.006
			C205.175,390.449,205.149,391.689,204.866,392.981z"/>
		<path style="fill:#FFFFFF;" d="M253.967,383.493l-3.068,14.293h-14.477l-10.26,47.791h-14.479l10.252-47.791h-14.561l3.052-14.293
			h4.853H253.967z"/>
	</g>
	<g>
		<path style="fill:#CB6120;" d="M312.377,432.425l-3.051,14.303h-9.619h-14.576h-4.856h-9.622c-1.971,0-3.775-0.388-5.396-1.15
			c-1.613-0.776-2.962-1.809-3.998-3.124c-1.063-1.291-1.755-2.821-2.117-4.578c-0.359-1.744-0.334-3.599,0.103-5.548l10.229-47.689
			h14.49l-10.254,47.787h9.619h4.864l10.258-47.787h14.551l-10.23,47.787H312.377z M336.234,384.638l-13.303,62.09h-9.617h-4.855
			l3.057-14.4l10.25-47.689H336.234z"/>
		<path style="fill:#CB6120;" d="M389.68,394.135l-9.262,42.989c-0.236,1.366-0.76,2.614-1.535,3.78
			c-0.771,1.162-1.686,2.166-2.717,3.024c-1.053,0.853-2.223,1.528-3.48,2.036c-1.256,0.506-2.553,0.763-3.865,0.763h-24.193h-4.871
			c-1.301,0-2.49-0.257-3.584-0.763c-1.068-0.508-1.967-1.184-2.65-2.036c-0.688-0.858-1.152-1.862-1.389-3.024
			c-0.244-1.166-0.244-2.414,0-3.78l9.262-42.989c0.285-1.302,0.83-2.53,1.564-3.686c0.752-1.162,1.656-2.172,2.713-3.013
			c1.039-0.875,2.207-1.551,3.502-2.048c1.287-0.497,2.594-0.751,3.918-0.751h4.836l-3.047,14.333l-7.193,33.454h19.328
			l7.209-33.496h-14.482l3.055-14.291h19.344c1.299,0,2.502,0.254,3.533,0.751c1.053,0.497,1.936,1.173,2.617,2.048
			c0.688,0.841,1.164,1.851,1.445,3.013C390.006,391.604,389.994,392.833,389.68,394.135z"/>
		<path style="fill:#CB6120;" d="M434.373,427.632l-0.445,2.294l-1.607,7.198l-1.984,9.604h-9.721h-4.85l3.057-14.4l0.998-4.695
			h-14.479l3.145-14.314h14.465l3.07-14.389h-19.344l-3.057,14.313l-3.148,14.39l-0.979,4.695l-3.066,14.4h-14.48l13.32-62.09h38.66
			c1.324,0,2.512,0.254,3.555,0.751c1.057,0.506,1.939,1.184,2.658,2.048c0.725,0.86,1.217,1.874,1.479,3.023
			c0.281,1.167,0.26,2.393-0.045,3.708l-4.041,19.149c-0.363,1.528-0.912,2.853-1.668,3.987c-0.754,1.109-1.838,2.176-3.281,3.155
			c1.016,1.012,1.664,2.078,1.936,3.196C434.801,424.768,434.742,426.1,434.373,427.632z"/>
		<path style="fill:#CB6120;" d="M480.068,434.72l-2.52,12.008h-43.521l13.313-62.09h14.473l-10.783,50.082h14.479l2.596-11.891
			h14.572L480.068,434.72z"/>
		<path style="fill:#CB6120;" d="M540.861,394.135l-9.262,42.989c-0.248,1.366-0.756,2.614-1.531,3.78
			c-0.785,1.162-1.693,2.166-2.732,3.024c-1.061,0.853-2.223,1.528-3.506,2.036c-1.301,0.506-2.592,0.763-3.92,0.763h-24.102h-9.717
			h-4.852l13.307-62.09h4.863h9.699l-3.053,14.291l-7.197,33.496h19.342l7.193-33.496H510.82l3.066-14.291h19.332
			c1.32,0,2.527,0.254,3.594,0.751c1.082,0.497,1.982,1.173,2.658,2.048c0.678,0.841,1.164,1.851,1.447,3.013
			C541.18,391.604,541.162,392.833,540.861,394.135z"/>
	</g>
	<g>
		<path style="fill-rule:evenodd;clip-rule:evenodd;fill:#FFFFFF;" d="M326.709,331.952c-5.41,1.382-10.703,3.169-16,4.944
			c-2.811,0.766-5.547,1.823-8.309,2.783c-6.99,2.411-14.074,4.597-21.195,6.602c-4.74,1.336-9.206,0.158-12.656-3.362
			c-5.834-5.978-7.155-13.302-5.268-21.218c1.217-4.987,3.984-9.027,8.847-11.17c2.788-1.218,5.675-2.229,8.536-3.221
			c6.943-2.4,13.968-4.524,20.96-6.754c2.76-0.841,5.508-1.724,8.254-2.563c-0.084-0.709-0.527-1.012-0.844-1.398
			c-5.188-6.389-10.82-12.377-16.043-18.721c-3.844-4.632-7.93-9.047-11.787-13.668c-5.341-6.388-6.33-17.105-2.283-24.385
			c3.276-5.893,10.104-9.361,15.985-8.07c2.938,0.646,5.275,2.328,7.363,4.418c4.42,4.439,8.092,9.499,12.24,14.175
			c2.508,2.813,5.084,5.567,7.445,8.508c4.65,5.775,9.766,11.149,14.473,16.857c4.303,5.245,8.854,10.243,13.258,15.379
			c4.313,5.031,7.416,10.459,6.984,17.376c-0.035,0.452-0.063,0.914-0.123,1.367c-0.848,6.938-3.996,12.365-10.273,15.77
			c-2.951,1.001-5.906,1.992-8.863,3.005c-0.275-0.023-0.467,0.03-0.453,0.377l-0.104,0.064c-0.672-0.26-1.244,0.088-1.828,0.27
			C332.244,330.179,329.49,331.094,326.709,331.952z"/>
		<path style="fill-rule:evenodd;clip-rule:evenodd;fill:#FFFFFF;" d="M143.909,305.931c-0.18-0.117-0.828,0.033-0.255-0.483
			c2.651-0.034,5.276-0.053,7.936-0.085c3.82,0.085,7.654,0.214,11.483-0.078c4.768,0.227,9.52,0.088,14.305-0.03
			c5.152,0.334,10.328,0.214,15.495,0.075c4.925,0.333,9.868,0.139,14.791,0.084c0.592-0.008,1.282-0.051,1.733-0.602
			c0.216,0,0.362-0.075,0.379-0.301l-0.017,0.031c0.726-0.15,1.088-0.797,1.577-1.261c5.074-4.867,10.159-9.704,15.037-14.767
			c1.136-1.162,2.382-2.219,3.571-3.327c-0.09-0.119-0.185-0.249-0.289-0.389c-1.322-0.086-2.625-0.17-3.933-0.269
			c-6.572-0.615-13.147-1.219-19.716-1.811c-4.831-0.431-9.661-0.872-14.497-1.271c-1.295-0.109-2.603-0.516-3.916-0.074
			c-0.848-0.52-1.807-0.314-2.715-0.398c-2.785-0.29-5.588-0.54-8.375-0.82c4.202-0.494,8.375-0.582,12.571-0.397
			c6.654-0.022,13.313-0.044,19.969-0.044c7.571,0.129,15.145,0.109,22.709-0.043c2.345,0.411,4.413-0.098,5.888-2.057
			c1.324-1.755,3.102-3.08,4.499-4.761l-0.017,0.012c0.387-0.087,0.6-0.354,0.709-0.711h-0.053c0.118-0.074,0.218-0.132,0.333-0.185
			c4.437-4.06,8.816-8.153,12.897-12.591c0.182-0.203,0.44-0.493,0.412-0.71c-0.062-0.431-0.511-0.367-0.839-0.409
			c-5.051-0.561-10.111-1.121-15.174-1.682c-4.721-0.547-9.43-1.151-14.154-1.659c-3.395-0.355-6.771-0.968-10.185-1.044
			c-0.435-0.151-1.038,0.161-1.363-0.462c0.928-0.55,1.879-0.098,2.811-0.131c10.07-0.021,20.157-0.032,30.227-0.042
			c2.875,0.021,5.79-0.214,8.639,0.118c4.374,0.484,7.765-0.895,10.435-4.33c1.201-1.518,3.069-2.465,3.857-4.352l-0.021,0.011
			c0.298,0.054,0.461-0.075,0.548-0.356c1.438-1.304,2.886-2.606,4.709-4.286c-0.538,2.606-1.262,4.609-1.564,6.709
			c-1.032,7.293,0.841,13.776,5.323,19.518c2.172,2.779,4.763,5.214,6.845,8.09c0.959,1.305,1.834,2.671,2.828,3.93
			c0.729,0.904-0.078,1.207-0.529,1.648c-3.662,3.533-7.481,6.937-11.021,10.607c-5.466,5.667-11.418,10.838-16.855,16.524
			c-5.085,5.311-10.665,10.103-15.688,15.446c-3.927,4.158-8.256,7.86-12.135,12.053c-2.931,2.95-5.842,5.9-8.766,8.865
			c-2.9,2.322-5.476,4.973-8.013,7.658c-1.681,1.581-3.622,2.855-5.019,4.718c-5.521,3.638-11.27,4.051-16.805,0.451
			c-3.91-2.544-6.269-6.538-7.699-11.01c-0.163-0.494-0.325-0.992-0.494-1.486c-0.199-0.903-0.404-1.798-0.606-2.704
			c-0.903-9.133,3.036-16.145,9.585-22.057c2.101-1.885,3.997-3.995,6-5.978c0.611-0.387,1.207-0.776,1.571-1.703
			c-2.067-0.161-3.983-0.301-5.918-0.462c-4.135-0.387-8.275-0.809-12.432-1.119c-2.572-0.193-5.127-0.713-7.748-0.53
			c-4.566-0.525-9.132-1.065-13.71-1.592c-3.79-0.539-7.593-0.905-11.427-1.035C149.075,306.168,146.512,305.901,143.909,305.931z"
			/>
		<g>
			<path style="fill-rule:evenodd;clip-rule:evenodd;fill:#FFFFFF;" d="M355.213,134.48c2.586,0.011,5.182,0.064,7.754,0.011
				c1.553-0.034,2.219-0.959,2.027-2.49c0.805-0.503,0.871-1.453,1.32-2.168c0.285-0.501,0.014-0.767-0.449-0.846
				c-2.529-0.422-4.977-1.274-7.574-1.401c-0.049-0.023-0.1-0.053-0.15-0.093c-0.131-0.317-0.391-0.402-0.719-0.36
				c-3.758-0.829-7.551-1.648-11.332-2.488c0.023-0.15,0.045-0.302,0.045-0.441c1.799,0,3.584,0,5.387,0
				c4.605-0.021,9.217-0.032,13.816-0.042c4.213,0.99,7.047-1.067,9.357-4.275c0.258-0.371,0.693-0.599,1.373-1.16
				c-4.924-1.158-9.447-2.228-13.982-3.299c0.01-0.582,0.465-0.4,0.768-0.4c8.291,0.011,16.582,0.022,24.869,0.043
				c4.566,0.011,9.002,0.753,12.783,3.317c6.268,4.244,10.621,10.062,12.855,17.346c0.652,2.064,1.137,4.19,1.697,6.264
				c0,3.489,0,6.97,0,10.442c-0.76,0.565-0.521,1.46-0.678,2.202c-1.877,8.886-5.84,16.373-13.875,21.247
				c-2.139,1.292-4.459,2.138-6.787,2.957c-1.031,0.17-2.09,0.344-3.117,0.506c-2.215,0.011-4.395-0.162-6.596-0.453
				c-1.025-0.318-2.059-0.604-3.078-0.965c-7.244-2.632-12.008-7.825-15.191-14.685c-0.461-1.18-0.938-2.35-1.367-3.539
				c-2.1-6.07-2.693-12.262-1.602-18.616c0.125-0.716,0.568-1.616-0.801-1.821c-2.682-0.388-5.342-0.862-8.018-1.304
				c-4.393-1.26-9.088-1.218-13.332-3.199c1.125-0.162,2.207-0.162,3.297-0.162C347.676,134.567,351.436,134.522,355.213,134.48z"/>
			<path style="fill-rule:evenodd;clip-rule:evenodd;fill:#FFFFFF;" d="M330.719,210.436c2.381,0.108,2.436,0.065,2.424-2.346
				c-0.016-2.134-0.072-4.299,0.027-6.442c0.061-1.367-0.477-1.917-1.809-2.198c-6.242-1.335-12.467-2.778-18.705-4.189
				c0.541-0.539,1.217-0.291,1.822-0.302c5.043-0.034,10.07-0.053,15.102-0.076c3.586,0.377,3.598,0.333,3.586-3.22
				c-0.023-3.179,0.012-6.366-0.012-9.543c-0.055-5.473,1.498-10.309,5.084-14.554c3.457-4.13,7.756-5.551,12.943-4.787
				c2.336,0.338,4.297,1.589,6.326,2.678c0.691,0.805,1.385,1.649,2.08,2.458c2.945,3.447,4.438,7.454,4.736,11.94
				c-0.004,4.255-0.154,8.52,0.105,12.785c-0.297,5.979-0.135,11.936-0.082,17.902c-0.023,2.531,0,5.052-0.074,7.583
				c-0.029,1.013,0.359,1.292,1.303,1.282c2.93-0.043,5.859,0,8.789,0.011c0.979,0.01,1.955,0.073,2.938,0.042
				c4.221-0.097,8.447,0.237,12.668-0.139c1.756,0.053,3.5,0.194,5.258-0.129c0.369,0.097,0.742,0.171,1.109,0.268
				c2.145,0.258,4.168,0.883,6.07,1.94c4.85,2.747,6.607,7.185,7.016,12.42c0.322,4.145-0.176,8.206-1.27,12.191
				c-1.162,4.243-4.018,6.925-7.908,8.669c-2.605,1.187-5.344,1.876-8.133,2.392c-1.16,0.098-2.324,0.193-3.488,0.291
				c-1.678-0.043-3.371-0.086-5.049-0.117c-3.254,0.053-6.48,0.108-9.729,0.14c-1.918-0.486-3.875-0.14-5.828-0.174
				c-2.811-0.063-5.639,0-8.453,0.023c-3.652-0.032-7.277-0.044-10.918-0.098c-4.281-0.065-7.867-1.658-10.652-4.944
				c-2.373-2.801-3.766-6.052-4.561-9.597c-0.41-2.714-0.355-5.427-0.23-8.153c0.059-1.443-0.438-1.82-1.84-1.916
				c-11.594-0.81-23.221-1.465-34.787-2.641c-6.486-0.655-12.968-1.149-19.473-1.626c-4.073-0.279-8.157-0.386-12.561-1.042
				c1.033-0.605,1.745-0.411,2.413-0.421c6.581-0.173,13.161,0.312,19.737-0.215c0.359,0.71,1.031,0.363,1.52,0.363
				c11.713,0.012,23.422,0.012,35.129,0c0.51,0,1.027-0.106,1.531-0.139c2.328,0,4.629-0.031,6.957,0
				c0.854,0.021,1.26-0.162,1.24-1.143c-0.057-2.714-0.023-5.427-0.012-8.151c0.012-1.045-0.398-1.509-1.48-1.724
				c-3.836-0.712-7.742-0.959-11.574-1.875c-4.309-1.021-8.799-1.281-13.223-1.872c-3.053-0.421-6.119-0.82-9.184-1.22
				c0.012-0.14,0.012-0.257,0.035-0.387C308.664,210.436,319.695,210.436,330.719,210.436z"/>
			<path style="fill-rule:evenodd;clip-rule:evenodd;fill:#FFFFFF;" d="M294.967,195.553c-1.268,1.237-2.4,2.649-3.809,3.703
				c-4.719,3.542-11.041,3.729-16.18,0.604c-0.633-0.376-1.268-0.807-1.89-1.218c0.146-0.591-0.401-0.775-0.717-1.066
				c-1.449-1.346-2.657-2.854-3.635-4.567c-1.858-3.285-2.637-6.849-2.845-10.555c-0.011-2.844,0.438-5.627,1.024-8.411
				c0.16-0.756,0.166-1.122-0.789-1.175c-4.083-0.231-8.184-0.549-12.26-0.835c-5.293-0.36-10.595-0.684-15.885-1.083
				c-9.043-0.674-18.075-1.368-27.113-2.073c-5.573-0.47-11.144-0.96-16.723-1.449c-0.022-0.007-0.04-0.104-0.112-0.252
				c0.415-0.619,1.102-0.324,1.655-0.324c5.716-0.017,11.438,0,17.183,0.016c0.802,0,1.621,0.055,2.375-0.291
				c0.228,0.043,0.452,0.12,0.676,0.12c8.168,0,16.331-0.013,24.493,0c0.895,0,1.717-0.236,2.556-0.497
				c9.708-2.95,19.526-5.461,29.545-7.119c1.755-0.284,3.898-0.091,5.178-1.044c2.597-1.895,4.524-4.6,6.271-7.485
				c-4.101-0.411-7.94-0.82-11.792-1.202c-11.949-1.33-23.898-2.65-35.88-3.597c-0.596-0.157-1.185-0.286-1.779-0.422
				c0.011-0.079,0.011-0.15,0.022-0.224c1.7,0,3.383,0,5.083,0c15.927,0.014,31.856,0.02,47.791,0.059
				c0.883,0,1.594-0.303,2.156-0.965c2.016-2.46,4.049-4.906,6.074-7.362c2.961-3.575,5.947-7.157,9.113-10.948
				c-11.055-1.229-21.84-2.429-32.616-3.61c-2.415-0.285-4.802-0.565-7.2-0.861c0.005-0.103,0.005-0.199,0.016-0.317
				c0.57,0,1.153,0,1.733,0c16.286,0,32.579,0.02,48.858-0.055c3.119-0.007,5.742,1.163,8.328,2.638
				c0.053,0.206,0.201,0.255,0.379,0.206h-0.016c2.012,1.638,3.729,3.575,5.428,5.529c3.611,4.115,6.68,8.657,10.426,12.641
				c5.268,6.246,10.186,12.764,15.813,18.967c-1.078,0.199-1.668-0.258-2.293-0.495c-3.295-1.208-6.582-1.235-9.855-0.016
				c-6.879,2.595-10.35,8.025-12.217,14.74c-1.047,3.802-0.689,7.709-0.762,11.588c-0.012,0.464,0.27,1.013-0.246,1.423
				c-0.275-0.282-0.533-0.508-0.777-0.744c-2.113-2.641-4.18-5.279-6.291-7.918c-2.344-2.842-4.719-5.687-7.027-8.572
				c-0.539-0.662-0.824-0.56-1.316,0.01c-2.029,2.51-4.105,5.01-6.176,7.502C304.289,184.21,299.623,189.876,294.967,195.553z"/>
		</g>
	</g>
	<path style="fill-rule:evenodd;clip-rule:evenodd;" d="M330.15,340.357c-0.189,0.259-0.418,0.342-0.838,0.096
		c0.369-0.034,0.609-0.045,0.861-0.066L330.15,340.357z"/>
	<path style="fill-rule:evenodd;clip-rule:evenodd;" d="M336.959,328.982c-0.014-0.347,0.178-0.4,0.453-0.377
		C337.367,328.851,337.221,328.971,336.959,328.982z"/>
	<path style="fill-rule:evenodd;clip-rule:evenodd;" d="M271.201,244.333c-0.086,0.281-0.25,0.41-0.548,0.356
		C270.749,244.441,270.922,244.321,271.201,244.333z"/>
	<path style="fill-rule:evenodd;clip-rule:evenodd;" d="M242.122,272.866c-0.124-0.584,0.41-0.55,0.709-0.711
		C242.722,272.512,242.509,272.779,242.122,272.866z"/>
	<path style="fill-rule:evenodd;clip-rule:evenodd;" d="M242.778,272.155c0.118-0.074,0.218-0.132,0.333-0.185
		C242.997,272.023,242.896,272.081,242.778,272.155z"/>
	<path style="fill-rule:evenodd;clip-rule:evenodd;" d="M209.396,304.812c0.132-0.086,0.261-0.193,0.379-0.301
		C209.758,304.736,209.612,304.812,209.396,304.812z"/>
	<g>
		<path style="fill-rule:evenodd;clip-rule:evenodd;fill:#CB6120;" d="M323.461,179.609c2.111,2.639,4.178,5.277,6.303,7.918
			c-0.436,2.454-0.082,4.912-0.184,7.356c-5.031,0.022-10.059,0.042-15.102,0.076c-0.605,0.011-1.281-0.237-1.822,0.302
			c-5.895-0.13-11.793-0.064-17.689,0.292c4.656-5.677,9.322-11.343,13.975-17.003c1.1,0.06,2.197,0.106,3.283,0.198
			C315.971,179.029,319.719,179.33,323.461,179.609z"/>
		<g>
			<path style="fill-rule:evenodd;clip-rule:evenodd;fill:#CB6120;" d="M185.713,341.064c0.202,0.906,0.407,1.801,0.606,2.704
				c-4.314-2.131-8.167-4.974-11.915-7.937c-6.424-5.073-9.114-12.203-10.608-19.927c-0.519-2.736-0.735-5.491-0.735-8.281
				c4.578,0.526,9.144,1.066,13.71,1.592c-0.415,3.802-0.538,7.584-0.101,11.408C177.602,328.378,180.769,335.1,185.713,341.064z"/>
			<g>
				<path style="fill-rule:evenodd;clip-rule:evenodd;fill:#CB6120;" d="M151.589,305.362c-2.659,0.032-5.285,0.051-7.936,0.085
					c-0.292-3.393-0.939-6.743-1.153-10.168c-0.766-11.676,0.387-22.997,5.678-33.658c1.088-2.198,2.378-4.233,3.843-6.161
					c0.841-1.121,1.736-1.142,2.799-0.322c1.941,1.475,3.955,2.853,5.865,4.34c1.624,1.226,1.652,1.842,0.749,3.693
					c-6.44,13.022-9.908,26.756-9.919,41.329C151.515,304.778,151.546,305.059,151.589,305.362z"/>
				<path style="fill-rule:evenodd;clip-rule:evenodd;fill:#CB6120;" d="M373.848,257.388c3.248-0.031,6.475-0.087,9.729-0.14
					c0.516,11.911-1.607,23.265-7.221,33.885c-1.217,2.307-2.451,4.579-3.898,6.733c-0.246,0.375-0.527,0.99-1.021,0.698
					c-0.625-0.367,0.033-0.797,0.201-1.152c3.697-8.099,6.088-16.479,5.475-25.517C376.76,266.899,375.557,262.094,373.848,257.388z
					"/>
				<path style="fill-rule:evenodd;clip-rule:evenodd;fill:#CB6120;" d="M143.909,305.931c2.603-0.029,5.167,0.237,7.725,0.658
					c0.333,5.677,2.563,10.738,5.046,15.747c2.342,4.707,5.422,8.885,8.718,12.925c0.173,0.192,0.302,0.442,0.507,0.744
					C157.501,334.237,145.504,317.738,143.909,305.931z"/>
				<path style="fill-rule:evenodd;clip-rule:evenodd;fill:#CB6120;" d="M388.625,257.365c1.164-0.098,2.328-0.193,3.488-0.291
					c-1.422,5.117-2.949,10.169-5.053,15.037C387.547,267.188,388.723,262.332,388.625,257.365z"/>
				<g>
					<path style="fill-rule:evenodd;clip-rule:evenodd;fill:#CB6120;" d="M270.674,244.677c-0.789,1.887-2.657,2.834-3.857,4.352
						c-2.67,3.436-6.061,4.814-10.435,4.33c-2.85-0.332-5.764-0.098-8.639-0.118c5.79-2.618,11.731-4.9,17.792-6.766
						C267.28,245.937,268.736,244.647,270.674,244.677z"/>
					<path style="fill-rule:evenodd;clip-rule:evenodd;fill:#CB6120;" d="M209.042,279.715c3.122-2.801,5.924-5.956,9.304-8.496
						c4.354-3.277,8.866-6.291,13.369-9.34c2.833-1.907,5.901-3.36,8.692-5.3c5.063,0.561,10.124,1.121,15.174,1.682
						c0.329,0.042,0.778-0.021,0.839,0.409c0.028,0.217-0.23,0.507-0.412,0.71c-4.081,4.438-8.46,8.531-12.897,12.591
						c-0.115,0.053-0.216,0.11-0.333,0.185h0.053c-0.3,0.161-0.833,0.127-0.709,0.711l0.017-0.012
						c-0.438-0.259-0.774,0.054-1.105,0.237c-3.388,1.788-6.303,4.242-9.282,6.58C224.187,279.824,216.613,279.844,209.042,279.715z
						"/>
					<g>
						<g>
							<path style="fill-rule:evenodd;clip-rule:evenodd;fill:#CB6120;" d="M265.891,182.454c0.208,3.707,0.987,7.271,2.845,10.555
								c0.979,1.714,2.187,3.221,3.635,4.567c0.316,0.291,0.863,0.475,0.717,1.066c-15.884,2.693-31.107,7.551-45.488,14.767
								c-9.293,4.653-18.505,9.577-27.126,15.479c-6.025,4.114-11.885,8.432-17.79,12.71c-2.67,1.938-2.957,1.95-5.11-0.548
								c-1.803-2.091-3.56-4.268-5.433-6.313c-1.172-1.292-0.884-2.133,0.216-3.349c5.587-6.218,12.398-10.934,19.032-15.889
								c8.766-6.558,18.468-11.46,28.123-16.48c14.044-7.291,28.942-11.985,44.249-15.648
								C264.499,183.198,265.408,183.295,265.891,182.454z"/>
							<path style="fill-rule:evenodd;clip-rule:evenodd;fill:#CB6120;" d="M272.174,149.35c3.851,0.381,7.691,0.791,11.792,1.202
								c-1.747,2.885-3.674,5.59-6.271,7.485c-1.279,0.954-3.422,0.76-5.178,1.044c-10.019,1.658-19.837,4.169-29.545,7.119
								c-0.839,0.261-1.661,0.497-2.556,0.497c-8.162-0.013-16.325,0-24.493,0c-0.224,0-0.449-0.077-0.676-0.12
								c4.597-2.521,9.478-4.34,14.356-6.193c9.646-3.694,19.615-6.301,29.696-8.558
								C263.568,150.868,267.905,150.309,272.174,149.35z"/>
							<path style="fill-rule:evenodd;clip-rule:evenodd;fill:#CB6120;" d="M210.869,168.877c9.038,0.705,18.07,1.398,27.113,2.073
								c5.29,0.398,10.591,0.723,15.885,1.083c-10.162,2.762-20.266,5.704-29.994,9.743c-4.514,1.885-9.038,3.78-13.447,5.87
								c-1.498,0.711-2.342,0.41-3.009-1.066c-1.619-3.565-3.274-7.143-4.996-10.686c-0.562-1.174-0.32-1.96,0.774-2.584
								C205.758,171.834,208.311,170.357,210.869,168.877z"/>
							<path style="fill-rule:evenodd;clip-rule:evenodd;fill:#CB6120;" d="M211.317,355.813c1.397-1.862,3.338-3.137,5.019-4.718
								c3.284,2.485,6.563,5.094,10.426,6.625c4.457,1.744,9.076,3.069,13.812,3.907c7.1,1.271,14.271,1.832,21.957,1.832
								c-2.945,0.872-5.525,1.032-8.089,1.133c-9.607,0.376-19.226,0.524-28.566-2.328
								C220.75,360.691,215.833,358.708,211.317,355.813z"/>
							<g>
								<g>
									<path style="fill-rule:evenodd;clip-rule:evenodd;fill:#CB6120;" d="M330.719,210.436c-11.023,0-22.055,0-33.086,0
										c-0.023,0.13-0.023,0.247-0.035,0.387c3.064,0.399,6.131,0.798,9.184,1.22c4.424,0.591,8.914,0.852,13.223,1.872
										c3.832,0.917,7.738,1.164,11.574,1.875c1.082,0.215,1.492,0.679,1.48,1.724c-0.012,2.724-0.045,5.438,0.012,8.151
										c0.02,0.981-0.387,1.164-1.24,1.143c-2.328-0.031-4.629,0-6.957,0c-4.168-0.991-8.453-1.196-12.723-1.434
										c-8.518-0.451-17,0.121-25.457,1.209c-6.576,0.526-13.156,0.042-19.737,0.215c-0.667,0.01-1.379-0.184-2.413,0.421
										c4.404,0.656,8.488,0.763,12.561,1.042c-11.262,3.145-22.771,5.484-33.598,10.115c-4.309,1.843-8.701,3.588-12.687,6.011
										c-4.233,2.594-8.542,5.042-12.525,8.001c-0.303,0.227-0.524,0.583-0.78,0.895c-0.931,0.033-1.882-0.419-2.811,0.131
										c0.326,0.623,0.928,0.311,1.363,0.462c-5.276,4.395-10.603,8.747-15.78,13.228c-4.303,3.704-8.275,7.722-11.215,12.655
										c-4.196-0.185-8.37-0.097-12.571,0.397c2.788,0.28,5.59,0.53,8.375,0.82c0.909,0.084,1.868-0.121,2.715,0.398
										c-1.532,2.583-3.184,5.105-4.539,7.796c-2.609,5.096-4.343,10.534-5.677,16.083c-4.786,0.118-9.537,0.257-14.305,0.03
										c0.354-9.746,2.894-18.804,8.078-27.162c3.063-4.957,6.667-9.437,10.316-13.927c5.184-6.346,11.013-12.031,17.097-17.503
										c6.74-6.063,14.605-10.34,22.294-14.949c12.535-7.54,26.103-12.603,39.889-17.245c16.964-5.719,34.355-7.13,52.068-6.15
										C318.828,208.68,324.809,209.285,330.719,210.436z"/>
									<path style="fill-rule:evenodd;clip-rule:evenodd;fill:#CB6120;" d="M396.338,219.462c-0.367-0.097-0.74-0.171-1.109-0.268
										c-0.883-2.618-1.66-5.289-2.672-7.873c-1.721-4.449-4.24-8.467-6.844-12.43c-5.424-8.295-13.018-14.088-21.389-19.034
										c-0.299-4.487-1.791-8.494-4.736-11.94c-0.695-0.81-1.389-1.654-2.08-2.47c-0.021-1.325-0.09-2.649-0.021-3.986
										c0.102-1.853,0.658-2.174,2.295-1.355c2.008,1.007,3.975,2.095,5.955,3.145c3.184,6.86,7.947,12.052,15.191,14.685
										c1.02,0.361,2.053,0.647,3.078,0.965c3.777,5.568,7.441,11.202,9.572,17.632
										C396.064,203.975,397.111,211.613,396.338,219.462z"/>
									<path style="fill-rule:evenodd;clip-rule:evenodd;fill:#CB6120;" d="M365.338,124.162c-4.6,0.01-9.211,0.021-13.816,0.042
										c-0.811-0.689-1.818-1.019-2.77-1.433c-10.375-4.609-21.365-7.083-32.357-9.619c-3.197-0.731-3.314-0.747-3.297-4.125
										c0-1.668,0.035-3.36,0.012-5.035c-0.012-1.342,0.643-2.16,1.984-2.105c5.59,0.259,11.117,0.808,16.484,2.727
										c3.148,1.13,6.418,1.99,9.537,3.239c7.039,2.871,13.379,6.958,19.279,11.644
										C362.129,120.872,364.219,122.062,365.338,124.162z"/>
								</g>
								<path style="fill-rule:evenodd;clip-rule:evenodd;fill:#CB6120;" d="M119.028,277.002
									c-4.387-6.087-6.19-12.592-7.001-19.476c-0.687-5.827-0.541-11.674,0.034-17.512c0.199-2.198,0.361-2.306,2.58-2.048
									c1.318,0.172,2.637,0.345,3.967,0.441c0.903,0.066,1.217,0.41,0.981,1.335c-1.563,6.194-2.177,12.55-2.608,18.915
									c-0.388,5.688,0.241,11.309,1.706,16.857C118.759,275.85,118.83,276.172,119.028,277.002z"/>
								<path style="fill-rule:evenodd;clip-rule:evenodd;fill:#CB6120;" d="M390.602,179.353c1.027-0.162,2.086-0.336,3.117-0.506
									c0.197,1.615,0.467,3.22,0.617,4.825c0.123,1.356,1.346,2.746-0.068,4.19C393.332,184.887,392.316,181.958,390.602,179.353z
									"/>
							</g>
							<g>
								<path style="fill-rule:evenodd;clip-rule:evenodd;fill:#CB6120;" d="M136.882,306.589c-1.686-2.628-3.357-5.072-4.861-7.604
									c-6.037-10.18-9.683-21.004-9.041-33.023c0.351-6.452,2.087-12.525,4.465-18.494c4.724-11.793,10.83-22.749,18.833-32.68
									c4.255-5.277,9.06-9.876,14.241-14.162c3.542-2.909,7.226-5.56,11.343-7.617c1.554-0.787,2.379-0.408,3.029,1.002
									c1.531,3.265,3.041,6.494,4.572,9.748c0.474,1.012,0.205,1.799-0.618,2.467c-1.029,0.829-2.118,1.604-3.129,2.477
									c-7.232,6.16-14.23,12.613-20.337,19.894c-4.033,4.847-7.965,9.812-11.25,15.208c-7.761,12.774-12.188,26.443-11.172,41.609
									c0.44,6.559,1.571,12.978,3.748,19.204C136.91,305.201,137.309,305.781,136.882,306.589z"/>
								<path style="fill-rule:evenodd;clip-rule:evenodd;fill:#CB6120;" d="M224.349,343.438c2.923-2.965,5.834-5.915,8.766-8.865
									c1.994,9.595,8.182,15.738,16.415,20.366c2.162,1.208,4.319,2.252,6.717,2.844c0.28,0.066,0.555,0.162,0.651,0.725
									c-5.208-0.898-10.437-1.111-15.273-3.438c-3.369-1.595-6.735-3.079-9.823-5.169
									C229.067,348.038,226.448,346.024,224.349,343.438z"/>
								<g>
									<path style="fill-rule:evenodd;clip-rule:evenodd;fill:#CB6120;" d="M340.09,142.063
										c-3.746-3.984-6.814-8.526-10.426-12.641c-1.699-1.955-3.416-3.892-5.428-5.529c6.879,1.003,13.496,3.048,20.076,5.224
										c3.23,1.088,6.313,2.535,9.377,4.043c0.631,0.309,1.266,0.587,1.523,1.32c-3.777,0.042-7.537,0.087-11.299,0.128
										c-1.09,0-2.172,0-3.297,0.162c4.244,1.981,8.939,1.939,13.326,3.199c-0.369,1.928-1.064,3.744-1.783,5.568
										c-0.459,1.154-1.125,1.488-2.406,1.105C346.551,143.7,343.398,142.611,340.09,142.063z"/>
									<g>
										<g>
											<path style="fill-rule:evenodd;clip-rule:evenodd;fill:#CB6120;" d="M263.332,65.105
												c2.076,0.706,4.293,0.554,6.402,1.077c0.981,0.237,1.979,0.41,2.954,0.77c-5.792,0.074-11.554,0.468-17.288,0.878
												c-11.321,0.85-22.726,1.503-33.66,4.745c-7.194,2.139-14.518,3.796-21.648,6.209c-0.702,0.258-1.262,0.453-1.661-0.506
												c-0.398-0.932,0.262-1.13,0.819-1.38c1.195-0.589,2.401-1.14,3.619-1.7c11.405-5.348,23.629-7.464,35.976-9.091
												c2.478-0.318,5.03-0.183,7.439-1.001C251.964,65.105,257.644,65.105,263.332,65.105z"/>
										</g>
										<path style="fill-rule:evenodd;clip-rule:evenodd;fill:#CB6120;" d="M330.613,88.424c-2.617-1.056-5.02-2.02-7.418-2.985
											c-14.137-5.751-28.873-8.863-44.079-9.764c-2.903-0.166-5.798-0.032-8.696,0.145c-0.805,0.062-1.809,0.152-2.067-0.821
											c-0.32-1.277-0.416-2.667,0.196-3.884c0.245-0.491,0.937-0.355,1.462-0.383c8.374-0.264,16.709,0.22,24.879,2.053
											c12.699,2.812,24.607,7.686,35.357,15.141C330.324,87.994,330.377,88.112,330.613,88.424z"/>
										<g>
											<path style="fill-rule:evenodd;clip-rule:evenodd;fill:#CB6120;" d="M239.62,145.107c-1.7,0-3.383,0-5.083,0
												c-0.011,0.074-0.011,0.145-0.022,0.224c0.594,0.136,1.183,0.265,1.779,0.422c-5.01,1.657-10.115,3.025-14.985,5.04
												c-11.214,4.638-22.574,9.083-32.924,15.527c-7.616,4.728-15.523,9.051-22.496,14.734
												c-6.463,5.235-12.974,10.5-18.693,16.585c-3.189,3.405-6.536,6.701-9.554,10.31c-0.926,1.098-1.84,1.26-2.984,0.419
												c-1.756-1.325-3.523-2.638-5.313-3.931c-1.279-0.917-1.492-2.026-0.938-3.48c1.84-4.954,5.142-8.896,8.561-12.784
												c6.522-7.435,14.25-13.518,21.924-19.7c7.593-6.141,15.865-11.214,24.125-16.338
												c10.438-6.476,21.697-11.146,33.051-15.669c16.12-6.436,32.914-10.162,49.926-13.113
												c2.051-0.345,4.166-0.292,6.134-1.072c10.785,1.181,21.57,2.381,32.625,3.61c-3.166,3.791-6.152,7.373-9.113,10.948
												c-1.863-0.04-3.715,0.112-5.566,0.193c-13.048,0.56-25.951,2.283-38.713,5.046
												C247.409,142.936,243.412,143.63,239.62,145.107z"/>
											<path style="fill-rule:evenodd;clip-rule:evenodd;fill:#CB6120;" d="M343.027,100.251
												c-6.539-1.734-13.111-3.398-19.787-4.605c-11.771-2.127-23.617-3.43-35.566-3.846
												c-21.115-0.732-41.909,1.418-62.287,7.05c-5.369,1.485-10.743,2.983-15.888,5.083
												c-11.259,4.568-22.697,8.775-33.219,14.961c-8.415,4.955-16.944,9.834-24.487,16.112
												c-5.725,4.768-11.621,9.411-16.614,14.974c-4.673,5.219-9.503,10.337-13.371,16.199
												c-3.285,4.976-6.701,9.883-9.243,15.294c-1.851,3.964-3.904,7.841-5.374,11.976c-0.152,0.421-0.205,0.894-0.754,1.272
												c-0.076-2.283,0.367-4.405,0.754-6.517c1.1-6.01,3.029-11.761,5.495-17.354c2.864-6.504,6.667-12.438,10.661-18.267
												c3.922-5.729,8.618-10.748,13.226-15.875c5.181-5.773,11.33-10.382,17.299-15.23
												c7.865-6.408,16.729-11.181,25.391-16.307c11.219-6.656,23.242-11.407,35.421-15.892
												c14.412-5.305,29.312-7.965,44.531-9.235c14.805-1.24,29.543-0.627,44.188,1.808c7.113,1.185,14.045,3.289,20.539,6.356
												c6.049,2.854,12.213,5.627,17.369,10.039c0.668,0.56,1.617,0.957,1.701,2.013L343.027,100.251z"/>
											<path style="fill-rule:evenodd;clip-rule:evenodd;fill:#CB6120;" d="M106.804,234.953
												c-0.646-4.279-0.646-8.478-0.432-12.689c0.648-12.85,4.437-24.774,10.597-36.029c3.534-6.44,7.872-12.267,12.432-17.981
												c4.32-5.402,9.425-10.014,14.342-14.829c6.446-6.331,13.758-11.491,20.99-16.822c8.63-6.366,18.159-11.054,27.724-15.73
												c14.591-7.168,30.114-11.516,45.664-15.905c5.939-1.67,11.888-2.854,17.975-3.525c2.429-0.255,4.863-0.293,7.299-0.007
												c1.009,0.119,1.764,0.535,1.881,1.671c0.248,2.358,0.485,4.723,0.287,7.097c-0.126,1.358-0.814,2.029-2.193,2.257
												c-10.41,1.77-20.76,3.861-30.827,6.985c-13.926,4.317-27.974,8.386-41.042,15.003
												c-9.32,4.728-18.521,9.834-26.823,16.255c-6.228,4.802-12.634,9.423-18.274,14.938
												c-5.422,5.3-11.021,10.428-15.879,16.265c-3.113,3.726-6.182,7.517-8.964,11.492c-4.435,6.302-7.127,13.475-9.862,20.616
												c-2.457,6.451-3.568,13.159-4.16,20.002C107.505,234.337,107.59,234.736,106.804,234.953z"/>
											<path style="fill-rule:evenodd;clip-rule:evenodd;fill:#CB6120;" d="M118.83,152.683
												c2.084-5.472,5.026-10.469,7.944-15.521c3.436-5.966,7.854-11.146,12.311-16.329c2.931-3.413,6.269-6.313,9.677-9.176
												c10.171-8.59,21.097-15.969,32.902-22.208c14.401-7.622,29.8-11.881,45.657-14.973c2.696-0.531,5.514-0.478,8.126-1.595
												c0.18-0.08,0.496-0.095,0.653-0.002c1.692,0.833,1.417,2.454,1.597,3.924c0.128,1.23-0.564,1.562-1.566,1.853
												c-10.63,2.832-21.323,5.551-31.612,9.488c-11.503,4.417-22.9,9.178-33.427,15.641
												c-7.637,4.685-15.205,9.582-22.063,15.37c-5.815,4.917-11.84,9.692-16.858,15.499c-4.227,4.89-8.501,9.793-11.727,15.468
												C119.954,150.992,119.898,152.139,118.83,152.683z"/>
											<path style="fill-rule:evenodd;clip-rule:evenodd;fill:#CB6120;" d="M148.122,108.917
												c7.469-7.289,15.455-13.88,24.428-19.256c0.497-0.3,0.996-0.495,1.411-0.956c0.52-0.588,1.259-1.239,2.037-0.291
												c0.721,0.892,0.5,1.583-0.491,2.243c-6.229,4.214-12.479,8.386-18.617,12.746c-2.811,1.99-5.48,4.165-8.622,5.669
												C148.217,109.017,148.178,108.97,148.122,108.917z"/>
											<path style="fill-rule:evenodd;clip-rule:evenodd;fill:#CB6120;" d="M148.268,109.072
												c-0.205,0.182-0.433,0.301-0.685,0.065c0.193-0.076,0.364-0.146,0.539-0.22
												C148.178,108.97,148.217,109.017,148.268,109.072z"/>
										</g>
									</g>
								</g>
							</g>
						</g>
						<g>
							<path style="fill-rule:evenodd;clip-rule:evenodd;fill:#CB6120;" d="M333.436,242.598c0.795,3.545,2.188,6.796,4.561,9.597
								c2.785,3.286,6.371,4.879,10.652,4.944c3.641,0.054,7.266,0.065,10.918,0.098c2.299,3.307,4.42,6.743,6.418,10.266
								c3.332,5.813,3.906,12.061,3.287,18.503c-1.375,14.194-7.727,26.075-17.072,36.632c-5.484,6.193-11.893,11.148-18.795,15.532
								c-1.109,0.701-1.867,1.907-3.254,2.188l0.023,0.029c0.428-0.915,1.18-1.496,1.99-2.054
								c4.805-3.287,9.146-7.102,13.174-11.313c0.381-0.419,0.859-0.784,0.938-1.42c6.277-3.404,9.426-8.832,10.273-15.77
								c0.061-0.453,0.088-0.915,0.123-1.367c3.818-11.117,4.723-22.104-1.762-32.604c-3.305-5.353-7.502-9.802-13.021-13.023
								c-5.088-2.951-10.523-4.706-16.252-5.697c-2.682-0.464-2.939-0.786-2.801-3.565c0.119-2.951,0.57-5.869,1.195-8.756
								c0.453-2.166,1.15-2.716,3.342-2.638C329.395,242.243,331.414,242.437,333.436,242.598z"/>
							<path style="fill-rule:evenodd;clip-rule:evenodd;fill:#CB6120;" d="M301.625,300.557c-6.992,2.229-14.018,4.354-20.96,6.754
								c-2.86,0.991-5.748,2.003-8.536,3.221c-4.863,2.143-7.63,6.183-8.847,11.17c-1.888,7.916-0.566,15.24,5.268,21.218
								c3.45,3.521,7.916,4.698,12.656,3.362c7.121-2.005,14.205-4.19,21.195-6.602c2.762-0.96,5.498-2.018,8.309-2.783
								c-8.314,7.281-18.307,10.665-29.027,12.095c-7.144,0.96-14.089-0.117-20.736-3.012c-8.442-3.694-11.557-10.921-8.631-19.657
								c2.589-7.723,8.167-12.874,14.642-17.3c8.477-5.805,18.053-8.111,28.092-8.853
								C297.244,300.007,299.443,300.246,301.625,300.557z"/>
							<path style="fill-rule:evenodd;clip-rule:evenodd;fill:#CB6120;" d="M326.709,331.952c2.781-0.858,5.535-1.773,8.318-2.636
								c0.584-0.182,1.156-0.529,1.828-0.27c-2.311,3.015-5.385,5.213-8.139,7.776c-8.725,8.135-19.441,12.051-30.748,14.841
								c-0.531,0.133-0.865,0.205-1.188-0.406C308.145,346.978,318.898,341.735,326.709,331.952z"/>
							<path style="fill-rule:evenodd;clip-rule:evenodd;fill:#CB6120;" d="M209.396,304.812c-0.452,0.551-1.142,0.594-1.733,0.602
								c-4.923,0.055-9.865,0.249-14.791-0.084c2.317-7.237,5.997-13.754,10.816-19.625c0.805-0.971,1.812-1.789,2.317-2.984
								c6.568,0.592,13.144,1.195,19.716,1.811c-5.299,4.395-9.366,9.854-13.293,15.424c-1.026,1.444-2.233,2.79-2.67,4.588
								l0.017-0.031C209.657,304.618,209.528,304.726,209.396,304.812z"/>
						</g>
					</g>
				</g>
			</g>
		</g>
		<path style="fill-rule:evenodd;clip-rule:evenodd;fill:#CB6120;" d="M389.971,219.323c-4.221,0.376-8.447,0.042-12.668,0.139
			c-0.982,0.031-1.959-0.032-2.938-0.042c-2.975-3.361-6.098-6.571-10.018-8.875c-0.053-5.967-0.215-11.923,0.082-17.889
			c3.305,1.851,6.424,3.963,9.408,6.375C380.732,204.653,386.357,211.16,389.971,219.323z"/>
	</g>
</g>
</svg>
