<?xml version="1.0" encoding="iso-8859-1"?>
<!-- Generator: Adobe Illustrator 16.0.0, SVG Export Plug-In . SVG Version: 6.00 Build 0)  -->
<!DOCTYPE svg PUBLIC "-//W3C//DTD SVG 1.1//EN" "http://www.w3.org/Graphics/SVG/1.1/DTD/svg11.dtd">
<svg version="1.1" id="Capa_1" xmlns="http://www.w3.org/2000/svg" xmlns:xlink="http://www.w3.org/1999/xlink" x="0px" y="0px"
	 width="566.93px" height="566.93px" viewBox="0 0 566.93 566.93" style="enable-background:new 0 0 566.93 566.93;"
	 xml:space="preserve">
<g>
	<g>
		<path style="fill:#CB6120;" d="M75.816,420.197l-3.112,14.597H52.941l-2.112,9.815l-3.132,14.603H32.903l13.604-63.423h14.803
			l-3.131,14.602l-2.115,9.807H75.816z M86.752,415.289H71.958l1.106-4.898h-9.932l3.135-14.602h24.708L86.752,415.289z"/>
		<path style="fill:#CB6120;" d="M123.129,444.609l-2.945-30.774l-23.881,45.377H83.346h-2.481l33.342-63.423h19.772l6.137,63.423
			h-19.736h-18.826l7.614-14.603H123.129z"/>
		<path style="fill:#CB6120;" d="M198.742,434.794l-3.212,14.613c-0.25,1.33-0.771,2.576-1.565,3.775
			c-0.802,1.176-1.728,2.224-2.799,3.124c-1.071,0.903-2.252,1.604-3.536,2.121c-1.289,0.533-2.596,0.784-3.951,0.784h-4.96h-24.717
			c-1.353,0-2.573-0.251-3.668-0.784c-1.112-0.518-2.034-1.218-2.768-2.121c-0.736-0.9-1.221-1.948-1.473-3.124
			c-0.241-1.199-0.241-2.445,0-3.775l2.115-9.702h14.883l-1.01,4.904h19.76l1.012-4.873l1.094-4.942h-14.88h-4.866h-4.965
			c-1.35,0-2.571-0.254-3.671-0.769c-1.112-0.506-2.029-1.201-2.762-2.08c-0.737-0.868-1.221-1.903-1.472-3.093
			c-0.244-1.166-0.207-2.462,0.097-3.859l4.138-19.51c0.31-1.321,0.837-2.588,1.61-3.774c0.765-1.154,1.697-2.201,2.797-3.072
			c1.094-0.875,2.303-1.572,3.63-2.086c1.321-0.496,2.645-0.762,3.989-0.762h4.971l-3.124,14.648l-2.12,9.76h19.759h4.951
			c1.359,0,2.568,0.252,3.64,0.768c1.063,0.493,1.959,1.209,2.653,2.102c0.717,0.914,1.198,1.962,1.477,3.125
			c0.283,1.178,0.262,2.421-0.046,3.742L198.742,434.794z M205.005,405.483l-2.59,12.247h-14.786l1.55-7.34h-14.874l3.124-14.602
			h19.837c1.355,0,2.564,0.266,3.646,0.762c1.065,0.514,1.956,1.211,2.661,2.086c0.699,0.871,1.198,1.918,1.457,3.072
			C205.32,402.896,205.294,404.162,205.005,405.483z"/>
		<path style="fill:#CB6120;" d="M255.165,395.789l-3.135,14.602h-14.788l-10.482,48.821h-14.792l10.474-48.821h-14.875
			l3.117-14.602h4.958H255.165z"/>
	</g>
	<g>
		<path style="fill:#FFFFFF;" d="M314.833,445.776l-3.117,14.61h-9.825h-14.893h-4.958h-9.831c-2.013,0-3.856-0.396-5.512-1.175
			c-1.648-0.793-3.026-1.848-4.083-3.191c-1.087-1.318-1.794-2.883-2.164-4.677c-0.367-1.782-0.34-3.677,0.105-5.668l10.45-48.718
			h14.804l-10.477,48.818h9.826h4.969l10.479-48.818h14.864l-10.452,48.818H314.833z M339.204,396.958l-13.589,63.429h-9.825h-4.961
			l3.124-14.711l10.471-48.718H339.204z"/>
		<path style="fill:#FFFFFF;" d="M393.801,406.661l-9.463,43.914c-0.239,1.396-0.774,2.671-1.566,3.863
			c-0.788,1.187-1.722,2.213-2.775,3.088c-1.076,0.871-2.271,1.563-3.556,2.08c-1.282,0.517-2.609,0.78-3.949,0.78h-24.715h-4.973
			c-1.332,0-2.547-0.264-3.665-0.78c-1.09-0.518-2.008-1.209-2.707-2.08c-0.701-0.875-1.176-1.901-1.417-3.088
			c-0.25-1.192-0.25-2.468,0-3.863l9.46-43.914c0.293-1.33,0.85-2.584,1.6-3.766c0.768-1.187,1.691-2.218,2.771-3.077
			c1.062-0.896,2.256-1.584,3.577-2.092c1.315-0.507,2.649-0.769,4.003-0.769h4.939l-3.112,14.644l-7.347,34.175h19.743l7.364-34.22
			h-14.794l3.119-14.599h19.76c1.329,0,2.557,0.262,3.611,0.769c1.074,0.508,1.978,1.196,2.672,2.092
			c0.704,0.859,1.191,1.891,1.478,3.077C394.134,404.077,394.121,405.331,393.801,406.661z"/>
		<path style="fill:#FFFFFF;" d="M439.457,440.881l-0.455,2.342l-1.642,7.353l-2.027,9.812h-9.931h-4.954l3.123-14.711l1.019-4.795
			h-14.789l3.213-14.624h14.775l3.137-14.7h-19.76l-3.124,14.623l-3.216,14.701l-0.999,4.795l-3.133,14.711H385.9l13.608-63.429
			h39.493c1.354,0,2.565,0.262,3.632,0.769c1.079,0.516,1.982,1.208,2.714,2.092c0.741,0.881,1.244,1.915,1.511,3.088
			c0.288,1.192,0.267,2.444-0.046,3.789l-4.127,19.562c-0.371,1.562-0.933,2.913-1.703,4.072c-0.77,1.135-1.88,2.224-3.353,3.225
			c1.037,1.032,1.699,2.123,1.977,3.265C439.893,437.955,439.832,439.315,439.457,440.881z"/>
		<path style="fill:#FFFFFF;" d="M486.139,448.121l-2.576,12.266h-44.46l13.601-63.429h14.785l-11.016,51.163h14.791l2.65-12.146
			h14.885L486.139,448.121z"/>
		<path style="fill:#FFFFFF;" d="M548.24,406.661l-9.461,43.914c-0.253,1.396-0.773,2.671-1.565,3.863
			c-0.802,1.187-1.73,2.213-2.79,3.088c-1.083,0.871-2.27,1.563-3.582,2.08c-1.33,0.517-2.647,0.78-4.004,0.78h-24.622h-9.926
			h-4.957l13.594-63.429h4.968h9.908l-3.116,14.599l-7.353,34.22h19.757l7.35-34.22h-14.888l3.131-14.599h19.749
			c1.349,0,2.58,0.262,3.67,0.769c1.105,0.508,2.026,1.196,2.717,2.092c0.692,0.859,1.189,1.891,1.479,3.077
			C548.564,404.077,548.547,405.331,548.24,406.661z"/>
	</g>
	<g>
		<path style="fill-rule:evenodd;clip-rule:evenodd;fill:#CB6120;" d="M329.472,343.139c-5.524,1.412-10.931,3.236-16.344,5.051
			c-2.872,0.782-5.664,1.861-8.487,2.843c-7.141,2.464-14.38,4.695-21.65,6.745c-4.843,1.362-9.404,0.159-12.929-3.436
			c-5.96-6.106-7.31-13.589-5.381-21.676c1.243-5.096,4.069-9.222,9.037-11.409c2.848-1.245,5.798-2.277,8.72-3.291
			c7.092-2.452,14.269-4.62,21.415-6.899c2.817-0.857,5.622-1.762,8.428-2.619c-0.085-0.726-0.538-1.031-0.862-1.427
			c-5.297-6.526-11.051-12.645-16.387-19.125c-3.925-4.731-8.102-9.243-12.04-13.963c-5.457-6.525-6.468-17.474-2.333-24.91
			c3.347-6.021,10.321-9.563,16.332-8.244c2.997,0.66,5.388,2.377,7.52,4.512c4.518,4.536,8.266,9.704,12.505,14.48
			c2.562,2.873,5.191,5.688,7.606,8.691c4.749,5.901,9.975,11.391,14.784,17.223c4.395,5.357,9.042,10.463,13.541,15.71
			c4.407,5.14,7.577,10.685,7.136,17.749c-0.035,0.462-0.063,0.935-0.124,1.397c-0.868,7.086-4.084,12.631-10.495,16.109
			c-3.016,1.021-6.035,2.034-9.056,3.068c-0.28-0.023-0.476,0.031-0.464,0.387l-0.103,0.065c-0.688-0.266-1.273,0.088-1.868,0.274
			C335.128,341.327,332.315,342.261,329.472,343.139z"/>
		<path style="fill-rule:evenodd;clip-rule:evenodd;fill:#CB6120;" d="M142.734,316.557c-0.184-0.12-0.845,0.033-0.261-0.494
			c2.708-0.034,5.39-0.055,8.107-0.087c3.902,0.087,7.819,0.219,11.73-0.079c4.872,0.229,9.726,0.088,14.614-0.031
			c5.263,0.341,10.55,0.218,15.829,0.077c5.031,0.338,10.08,0.141,15.109,0.086c0.604-0.008,1.31-0.053,1.771-0.615
			c0.22,0,0.369-0.077,0.387-0.307l-0.018,0.032c0.742-0.154,1.112-0.815,1.611-1.289c5.184-4.973,10.378-9.912,15.361-15.085
			c1.16-1.187,2.433-2.266,3.648-3.397c-0.092-0.123-0.189-0.255-0.295-0.397c-1.35-0.09-2.682-0.175-4.018-0.274
			c-6.713-0.63-13.43-1.245-20.141-1.85c-4.934-0.439-9.868-0.892-14.809-1.299c-1.323-0.11-2.659-0.526-4-0.075
			c-0.865-0.529-1.845-0.32-2.773-0.408c-2.845-0.295-5.708-0.55-8.556-0.836c4.293-0.506,8.556-0.595,12.843-0.406
			c6.797-0.022,13.599-0.046,20.398-0.046c7.734,0.133,15.471,0.112,23.199-0.042c2.395,0.418,4.507-0.101,6.015-2.102
			c1.352-1.794,3.169-3.148,4.596-4.864l-0.018,0.012c0.395-0.088,0.613-0.363,0.725-0.728h-0.054
			c0.12-0.075,0.222-0.131,0.341-0.185c4.532-4.149,9.006-8.331,13.176-12.864c0.186-0.207,0.448-0.504,0.42-0.726
			c-0.063-0.44-0.521-0.375-0.856-0.417c-5.162-0.574-10.33-1.145-15.503-1.718c-4.822-0.559-9.633-1.176-14.458-1.694
			c-3.467-0.363-6.917-0.989-10.405-1.067c-0.443-0.155-1.06,0.164-1.393-0.472c0.95-0.562,1.92-0.1,2.872-0.133
			c10.287-0.021,20.591-0.034,30.877-0.043c2.938,0.021,5.915-0.219,8.826,0.121c4.467,0.495,7.931-0.915,10.66-4.424
			c1.225-1.55,3.135-2.518,3.939-4.445l-0.021,0.011c0.305,0.055,0.471-0.077,0.56-0.364c1.47-1.331,2.948-2.662,4.81-4.377
			c-0.55,2.662-1.289,4.708-1.598,6.854c-1.054,7.45,0.859,14.073,5.438,19.937c2.219,2.84,4.866,5.328,6.993,8.264
			c0.979,1.334,1.872,2.73,2.887,4.017c0.746,0.923-0.076,1.232-0.538,1.684c-3.743,3.608-7.643,7.086-11.258,10.836
			c-5.585,5.789-11.665,11.07-17.218,16.88c-5.196,5.425-10.894,10.32-16.027,15.778c-4.011,4.25-8.432,8.031-12.395,12.313
			c-2.996,3.015-5.969,6.028-8.956,9.058c-2.962,2.373-5.592,5.081-8.186,7.822c-1.716,1.616-3.699,2.917-5.126,4.821
			c-5.639,3.715-11.513,4.136-17.167,0.46c-3.994-2.6-6.403-6.68-7.865-11.247c-0.167-0.504-0.333-1.014-0.505-1.519
			c-0.203-0.924-0.413-1.837-0.618-2.763c-0.923-9.329,3.1-16.492,9.791-22.531c2.147-1.926,4.083-4.08,6.129-6.106
			c0.625-0.396,1.232-0.793,1.605-1.741c-2.112-0.163-4.069-0.307-6.046-0.473c-4.224-0.394-8.453-0.825-12.7-1.143
			c-2.628-0.197-5.238-0.727-7.915-0.541c-4.665-0.537-9.33-1.089-14.005-1.626c-3.872-0.55-7.757-0.925-11.674-1.057
			C148.012,316.798,145.393,316.525,142.734,316.557z"/>
		<g>
			<path style="fill-rule:evenodd;clip-rule:evenodd;fill:#CB6120;" d="M358.592,141.412c2.641,0.011,5.295,0.066,7.922,0.011
				c1.585-0.034,2.266-0.98,2.068-2.543c0.823-0.514,0.89-1.484,1.349-2.214c0.293-0.512,0.016-0.785-0.459-0.865
				c-2.583-0.432-5.081-1.301-7.735-1.432c-0.052-0.022-0.102-0.054-0.153-0.094c-0.137-0.324-0.399-0.411-0.733-0.369
				c-3.84-0.846-7.716-1.683-11.577-2.542c0.023-0.153,0.045-0.308,0.045-0.45c1.837,0,3.662,0,5.502,0
				c4.705-0.022,9.416-0.034,14.115-0.044c4.305,1.012,7.198-1.09,9.56-4.367c0.263-0.379,0.706-0.612,1.401-1.185
				c-5.03-1.184-9.651-2.276-14.282-3.371c0.009-0.595,0.473-0.408,0.781-0.408c8.471,0.011,16.941,0.022,25.406,0.044
				c4.665,0.012,9.197,0.77,13.061,3.389c6.401,4.335,10.849,10.278,13.132,17.72c0.665,2.109,1.161,4.281,1.733,6.398
				c0,3.564,0,7.12,0,10.668c-0.776,0.577-0.533,1.491-0.693,2.249c-1.916,9.078-5.965,16.726-14.172,21.706
				c-2.188,1.319-4.557,2.184-6.934,3.02c-1.057,0.174-2.135,0.352-3.186,0.518c-2.263,0.011-4.488-0.166-6.739-0.462
				c-1.045-0.325-2.103-0.618-3.142-0.986c-7.403-2.689-12.268-7.994-15.52-15.001c-0.47-1.206-0.957-2.4-1.396-3.615
				c-2.146-6.201-2.752-12.525-1.636-19.017c0.127-0.731,0.579-1.651-0.818-1.86c-2.739-0.397-5.456-0.881-8.191-1.332
				c-4.486-1.287-9.282-1.243-13.618-3.268c1.148-0.166,2.255-0.166,3.367-0.166C350.893,141.501,354.733,141.455,358.592,141.412z"
				/>
			<path style="fill-rule:evenodd;clip-rule:evenodd;fill:#CB6120;" d="M333.571,219.004c2.432,0.11,2.484,0.066,2.475-2.397
				c-0.018-2.18-0.075-4.392,0.028-6.581c0.061-1.396-0.486-1.958-1.849-2.245c-6.374-1.364-12.736-2.837-19.108-4.279
				c0.552-0.55,1.243-0.297,1.861-0.308c5.152-0.034,10.289-0.054,15.429-0.078c3.662,0.386,3.673,0.34,3.662-3.289
				c-0.023-3.246,0.011-6.503-0.014-9.748c-0.053-5.591,1.532-10.53,5.196-14.867c3.531-4.22,7.922-5.67,13.222-4.89
				c2.386,0.346,4.39,1.624,6.461,2.735c0.707,0.822,1.416,1.685,2.126,2.512c3.009,3.521,4.532,7.614,4.841,12.198
				c-0.008,4.347-0.158,8.704,0.105,13.061c-0.305,6.107-0.138,12.193-0.085,18.287c-0.021,2.586,0,5.162-0.076,7.747
				c-0.029,1.034,0.367,1.32,1.332,1.31c2.993-0.046,5.985,0,8.979,0.01c0.998,0.011,1.998,0.075,3.002,0.044
				c4.31-0.101,8.629,0.242,12.94-0.143c1.793,0.055,3.576,0.199,5.371-0.131c0.377,0.1,0.758,0.174,1.133,0.274
				c2.19,0.263,4.259,0.902,6.201,1.982c4.955,2.806,6.749,7.339,7.167,12.688c0.328,4.233-0.18,8.382-1.298,12.453
				c-1.188,4.334-4.104,7.074-8.078,8.856c-2.662,1.213-5.46,1.915-8.308,2.444c-1.186,0.099-2.376,0.196-3.563,0.297
				c-1.715-0.044-3.445-0.089-5.157-0.12c-3.325,0.053-6.62,0.11-9.938,0.142c-1.96-0.497-3.96-0.142-5.954-0.178
				c-2.871-0.063-5.759,0-8.636,0.023c-3.73-0.033-7.435-0.044-11.152-0.099c-4.374-0.066-8.037-1.694-10.883-5.051
				c-2.425-2.862-3.847-6.183-4.66-9.804c-0.416-2.772-0.358-5.543-0.234-8.329c0.062-1.474-0.447-1.859-1.877-1.957
				c-11.844-0.827-23.723-1.497-35.54-2.697c-6.624-0.67-13.246-1.175-19.892-1.662c-4.161-0.285-8.333-0.394-12.831-1.064
				c1.056-0.618,1.783-0.421,2.465-0.43c6.723-0.177,13.445,0.318,20.161-0.219c0.366,0.725,1.054,0.371,1.553,0.371
				c11.967,0.012,23.927,0.012,35.887,0c0.521,0,1.047-0.109,1.563-0.142c2.38,0,4.729-0.031,7.106,0
				c0.872,0.021,1.288-0.165,1.267-1.168c-0.058-2.772-0.023-5.544-0.012-8.326c0.012-1.068-0.406-1.542-1.514-1.76
				c-3.916-0.729-7.906-0.98-11.82-1.917c-4.402-1.043-8.991-1.31-13.508-1.912c-3.119-0.432-6.253-0.839-9.381-1.247
				c0.01-0.143,0.01-0.263,0.034-0.396C311.039,219.004,322.309,219.004,333.571,219.004z"/>
			<path style="fill-rule:evenodd;clip-rule:evenodd;fill:#CB6120;" d="M297.046,203.801c-1.294,1.263-2.451,2.705-3.89,3.782
				c-4.82,3.619-11.278,3.81-16.527,0.618c-0.647-0.385-1.295-0.825-1.932-1.245c0.149-0.604-0.409-0.792-0.734-1.088
				c-1.478-1.375-2.713-2.916-3.713-4.665c-1.897-3.357-2.693-6.997-2.906-10.784c-0.012-2.906,0.448-5.749,1.045-8.592
				c0.164-0.772,0.17-1.146-0.804-1.201c-4.173-0.236-8.361-0.56-12.525-0.852c-5.406-0.367-10.822-0.699-16.227-1.106
				c-9.238-0.689-18.465-1.397-27.697-2.118c-5.693-0.48-11.384-0.981-17.084-1.48c-0.022-0.006-0.041-0.105-0.114-0.257
				c0.423-0.632,1.126-0.331,1.69-0.331c5.839-0.018,11.685,0,17.554,0.015c0.819,0,1.656,0.056,2.427-0.297
				c0.232,0.044,0.461,0.122,0.691,0.122c8.343,0,16.682-0.012,25.02,0c0.914,0,1.754-0.24,2.61-0.506
				c9.917-3.015,19.947-5.58,30.181-7.273c1.794-0.29,3.983-0.092,5.29-1.067c2.654-1.936,4.622-4.699,6.409-7.646
				c-4.19-0.42-8.113-0.837-12.048-1.228c-12.206-1.358-24.413-2.708-36.653-3.674c-0.608-0.16-1.209-0.292-1.818-0.431
				c0.012-0.082,0.012-0.153,0.023-0.229c1.737,0,3.457,0,5.192,0c16.271,0.014,32.542,0.019,48.821,0.06
				c0.902,0,1.627-0.31,2.199-0.985c2.063-2.513,4.14-5.012,6.208-7.521c3.023-3.651,6.075-7.311,9.31-11.184
				c-11.293-1.255-22.309-2.481-33.319-3.687c-2.467-0.292-4.906-0.578-7.355-0.88c0.005-0.105,0.005-0.204,0.017-0.323
				c0.582,0,1.179,0,1.77,0c16.638,0,33.281,0.02,49.911-0.057c3.187-0.006,5.865,1.188,8.507,2.695
				c0.055,0.21,0.207,0.26,0.387,0.21h-0.015c2.055,1.674,3.81,3.652,5.546,5.649c3.688,4.204,6.822,8.844,10.65,12.914
				c5.38,6.381,10.403,13.039,16.152,19.376c-1.1,0.203-1.706-0.264-2.341-0.506c-3.368-1.233-6.727-1.262-10.07-0.016
				c-7.025,2.65-10.572,8.199-12.478,15.058c-1.072,3.884-0.705,7.875-0.78,11.837c-0.011,0.475,0.275,1.036-0.252,1.454
				c-0.282-0.288-0.545-0.519-0.794-0.759c-2.159-2.698-4.27-5.393-6.427-8.089c-2.394-2.904-4.82-5.809-7.178-8.757
				c-0.55-0.676-0.844-0.572-1.343,0.011c-2.075,2.564-4.195,5.117-6.312,7.664C306.569,192.212,301.804,198.001,297.046,203.801z"
				/>
		</g>
	</g>
	<path style="fill-rule:evenodd;clip-rule:evenodd;" d="M332.987,351.727c-0.191,0.263-0.427,0.349-0.855,0.097
		c0.378-0.034,0.623-0.046,0.879-0.069L332.987,351.727z"/>
	<path style="fill-rule:evenodd;clip-rule:evenodd;" d="M339.942,340.105c-0.012-0.355,0.184-0.41,0.464-0.387
		C340.361,339.971,340.212,340.093,339.942,340.105z"/>
	<path style="fill-rule:evenodd;clip-rule:evenodd;" d="M272.769,253.63c-0.089,0.288-0.255,0.419-0.56,0.364
		C272.307,253.742,272.485,253.62,272.769,253.63z"/>
	<path style="fill-rule:evenodd;clip-rule:evenodd;" d="M243.063,282.78c-0.126-0.596,0.418-0.562,0.725-0.728
		C243.676,282.417,243.458,282.691,243.063,282.78z"/>
	<path style="fill-rule:evenodd;clip-rule:evenodd;" d="M243.734,282.052c0.12-0.075,0.222-0.131,0.341-0.185
		C243.957,281.92,243.854,281.977,243.734,282.052z"/>
	<path style="fill-rule:evenodd;clip-rule:evenodd;" d="M209.633,315.413c0.134-0.088,0.267-0.197,0.387-0.307
		C210.002,315.336,209.853,315.413,209.633,315.413z"/>
	<g>
		<path style="fill-rule:evenodd;clip-rule:evenodd;fill:#FFFFFF;" d="M326.154,187.513c2.157,2.697,4.268,5.391,6.438,8.089
			c-0.443,2.507-0.083,5.017-0.186,7.514c-5.14,0.024-10.276,0.044-15.429,0.078c-0.618,0.011-1.31-0.242-1.861,0.308
			c-6.021-0.132-12.046-0.066-18.071,0.299c4.758-5.8,9.523-11.588,14.276-17.37c1.124,0.061,2.244,0.108,3.353,0.203
			C318.503,186.92,322.332,187.228,326.154,187.513z"/>
		<g>
			<path style="fill-rule:evenodd;clip-rule:evenodd;fill:#FFFFFF;" d="M185.44,352.447c0.205,0.926,0.415,1.839,0.618,2.763
				c-4.406-2.177-8.344-5.081-12.172-8.108c-6.562-5.183-9.31-12.465-10.837-20.354c-0.53-2.797-0.75-5.611-0.75-8.461
				c4.675,0.537,9.34,1.089,14.005,1.626c-0.424,3.883-0.55,7.748-0.103,11.654C177.154,339.487,180.388,346.354,185.44,352.447z"/>
			<g>
				<path style="fill-rule:evenodd;clip-rule:evenodd;fill:#FFFFFF;" d="M150.58,315.976c-2.717,0.032-5.399,0.053-8.107,0.087
					c-0.298-3.466-0.96-6.889-1.178-10.387c-0.781-11.928,0.396-23.492,5.801-34.383c1.112-2.247,2.429-4.325,3.924-6.295
					c0.86-1.145,1.774-1.166,2.86-0.329c1.983,1.507,4.041,2.913,5.992,4.434c1.659,1.252,1.687,1.881,0.765,3.772
					c-6.579,13.304-10.122,27.333-10.132,42.219C150.505,315.38,150.537,315.665,150.58,315.976z"/>
				<path style="fill-rule:evenodd;clip-rule:evenodd;fill:#FFFFFF;" d="M377.628,266.968c3.318-0.032,6.613-0.089,9.938-0.142
					c0.527,12.167-1.642,23.765-7.377,34.615c-1.242,2.354-2.504,4.676-3.983,6.877c-0.251,0.385-0.538,1.011-1.043,0.714
					c-0.638-0.375,0.035-0.813,0.208-1.177c3.776-8.274,6.217-16.834,5.59-26.066C380.603,276.683,379.373,271.774,377.628,266.968z
					"/>
				<path style="fill-rule:evenodd;clip-rule:evenodd;fill:#FFFFFF;" d="M142.734,316.557c2.659-0.031,5.278,0.241,7.891,0.673
					c0.341,5.797,2.619,10.97,5.155,16.085c2.393,4.809,5.539,9.077,8.906,13.204c0.177,0.196,0.31,0.452,0.519,0.761
					C156.62,345.473,144.364,328.617,142.734,316.557z"/>
				<path style="fill-rule:evenodd;clip-rule:evenodd;fill:#FFFFFF;" d="M392.724,266.945c1.188-0.101,2.378-0.198,3.563-0.297
					c-1.453,5.227-3.014,10.387-5.162,15.359C391.623,276.979,392.824,272.019,392.724,266.945z"/>
				<g>
					<path style="fill-rule:evenodd;clip-rule:evenodd;fill:#FFFFFF;" d="M272.23,253.984c-0.805,1.927-2.714,2.895-3.939,4.445
						c-2.729,3.509-6.192,4.918-10.66,4.424c-2.911-0.34-5.888-0.1-8.826-0.121c5.915-2.675,11.984-5.005,18.176-6.912
						C268.764,255.269,270.25,253.952,272.23,253.984z"/>
					<path style="fill-rule:evenodd;clip-rule:evenodd;fill:#FFFFFF;" d="M209.271,289.775c3.189-2.862,6.052-6.084,9.505-8.68
						c4.447-3.346,9.058-6.426,13.656-9.54c2.894-1.949,6.029-3.432,8.879-5.414c5.173,0.573,10.341,1.144,15.503,1.718
						c0.335,0.042,0.792-0.022,0.856,0.417c0.028,0.222-0.234,0.519-0.42,0.726c-4.17,4.534-8.644,8.715-13.176,12.864
						c-0.119,0.054-0.221,0.11-0.341,0.185h0.054c-0.307,0.167-0.851,0.132-0.725,0.728l0.018-0.012
						c-0.448-0.265-0.791,0.055-1.13,0.243c-3.461,1.826-6.438,4.332-9.481,6.723C224.743,289.888,217.005,289.908,209.271,289.775z
						"/>
					<g>
						<g>
							<path style="fill-rule:evenodd;clip-rule:evenodd;fill:#FFFFFF;" d="M267.344,190.419c0.213,3.787,1.008,7.427,2.906,10.784
								c1,1.75,2.235,3.29,3.713,4.665c0.325,0.297,0.883,0.484,0.734,1.088c-16.226,2.751-31.777,7.713-46.468,15.086
								c-9.493,4.752-18.903,9.783-27.711,15.811c-6.155,4.203-12.141,8.614-18.172,12.984c-2.728,1.98-3.02,1.992-5.22-0.56
								c-1.842-2.136-3.636-4.36-5.551-6.449c-1.197-1.32-0.902-2.179,0.221-3.42c5.708-6.352,12.664-11.17,19.441-16.231
								c8.955-6.699,18.866-11.708,28.729-16.836c14.347-7.449,29.565-12.244,45.202-15.986
								C265.922,191.18,266.852,191.279,267.344,190.419z"/>
							<path style="fill-rule:evenodd;clip-rule:evenodd;fill:#FFFFFF;" d="M273.763,156.602c3.935,0.39,7.857,0.808,12.048,1.228
								c-1.787,2.947-3.755,5.71-6.409,7.646c-1.306,0.975-3.495,0.778-5.29,1.067c-10.234,1.694-20.264,4.259-30.181,7.273
								c-0.856,0.266-1.696,0.506-2.61,0.506c-8.338-0.012-16.677,0-25.02,0c-0.23,0-0.459-0.078-0.691-0.122
								c4.696-2.576,9.682-4.434,14.665-6.326c9.854-3.774,20.038-6.437,30.335-8.743
								C264.972,158.153,269.403,157.581,273.763,156.602z"/>
							<path style="fill-rule:evenodd;clip-rule:evenodd;fill:#FFFFFF;" d="M211.137,176.55c9.232,0.72,18.458,1.428,27.697,2.118
								c5.404,0.407,10.82,0.739,16.227,1.106c-10.381,2.821-20.702,5.827-30.639,9.952c-4.611,1.926-9.233,3.862-13.738,5.997
								c-1.53,0.727-2.392,0.418-3.074-1.089c-1.653-3.642-3.344-7.296-5.103-10.915c-0.574-1.199-0.328-2.002,0.791-2.641
								C205.917,179.571,208.524,178.062,211.137,176.55z"/>
							<path style="fill-rule:evenodd;clip-rule:evenodd;fill:#FFFFFF;" d="M211.595,367.516c1.428-1.904,3.41-3.205,5.126-4.821
								c3.355,2.538,6.706,5.204,10.651,6.768c4.553,1.782,9.271,3.136,14.109,3.992c7.253,1.298,14.579,1.871,22.43,1.871
								c-3.009,0.892-5.645,1.054-8.264,1.157c-9.814,0.384-19.639,0.535-29.182-2.379
								C221.232,372.497,216.208,370.472,211.595,367.516z"/>
							<g>
								<g>
									<path style="fill-rule:evenodd;clip-rule:evenodd;fill:#FFFFFF;" d="M333.571,219.004c-11.263,0-22.532,0-33.801,0
										c-0.024,0.133-0.024,0.252-0.034,0.396c3.128,0.408,6.262,0.815,9.381,1.247c4.517,0.603,9.105,0.869,13.508,1.912
										c3.914,0.936,7.904,1.188,11.82,1.917c1.107,0.219,1.525,0.692,1.514,1.76c-0.012,2.782-0.046,5.554,0.012,8.326
										c0.021,1.003-0.395,1.189-1.267,1.168c-2.378-0.031-4.727,0-7.106,0c-4.258-1.013-8.637-1.221-12.998-1.463
										c-8.702-0.461-17.366,0.123-26.005,1.235c-6.716,0.537-13.438,0.042-20.161,0.219c-0.682,0.009-1.409-0.188-2.465,0.43
										c4.499,0.67,8.67,0.779,12.831,1.064c-11.504,3.213-23.261,5.602-34.321,10.333c-4.402,1.882-8.888,3.666-12.96,6.14
										c-4.325,2.65-8.726,5.15-12.794,8.173c-0.309,0.233-0.535,0.596-0.797,0.915c-0.951,0.034-1.922-0.429-2.872,0.133
										c0.333,0.636,0.95,0.317,1.393,0.472c-5.39,4.489-10.831,8.936-16.121,13.512c-4.396,3.784-8.452,7.888-11.455,12.929
										c-4.287-0.188-8.55-0.1-12.843,0.406c2.848,0.286,5.711,0.541,8.556,0.836c0.929,0.088,1.909-0.121,2.773,0.408
										c-1.564,2.64-3.251,5.215-4.636,7.964c-2.665,5.205-4.436,10.762-5.799,16.43c-4.888,0.119-9.742,0.261-14.614,0.031
										c0.361-9.957,2.957-19.21,8.252-27.748c3.129-5.065,6.811-9.64,10.539-14.226c5.295-6.483,11.25-12.291,17.465-17.882
										c6.885-6.192,14.92-10.563,22.774-15.271c12.806-7.703,26.666-12.875,40.749-17.616
										c17.331-5.843,35.094-7.285,53.191-6.284C321.424,217.211,327.532,217.828,333.571,219.004z"/>
									<path style="fill-rule:evenodd;clip-rule:evenodd;fill:#FFFFFF;" d="M400.603,228.226
										c-0.375-0.101-0.756-0.175-1.133-0.274c-0.904-2.675-1.697-5.402-2.729-8.042c-1.759-4.544-4.333-8.65-6.992-12.698
										c-5.54-8.474-13.299-14.392-21.847-19.443c-0.309-4.583-1.832-8.677-4.841-12.198c-0.71-0.827-1.419-1.689-2.126-2.523
										c-0.021-1.354-0.093-2.707-0.021-4.072c0.104-1.892,0.672-2.222,2.346-1.385c2.051,1.028,4.06,2.141,6.083,3.212
										c3.252,7.008,8.116,12.313,15.52,15.001c1.039,0.368,2.097,0.661,3.142,0.986c3.86,5.688,7.603,11.442,9.782,18.011
										C400.321,212.404,401.394,220.207,400.603,228.226z"/>
									<path style="fill-rule:evenodd;clip-rule:evenodd;fill:#FFFFFF;" d="M368.935,130.871c-4.699,0.01-9.41,0.022-14.115,0.044
										c-0.828-0.705-1.855-1.042-2.827-1.463c-10.6-4.71-21.826-7.236-33.056-9.827c-3.268-0.747-3.387-0.763-3.367-4.213
										c0-1.705,0.034-3.433,0.011-5.144c-0.011-1.371,0.658-2.206,2.028-2.15c5.708,0.263,11.357,0.825,16.837,2.785
										c3.22,1.155,6.558,2.033,9.744,3.309c7.191,2.934,13.668,7.108,19.697,11.895
										C365.656,127.51,367.791,128.725,368.935,130.871z"/>
								</g>
								<path style="fill-rule:evenodd;clip-rule:evenodd;fill:#FFFFFF;" d="M117.318,287.005
									c-4.481-6.218-6.324-12.863-7.152-19.896c-0.702-5.952-0.553-11.926,0.034-17.89c0.204-2.244,0.37-2.355,2.636-2.092
									c1.347,0.176,2.693,0.353,4.052,0.451c0.923,0.068,1.244,0.418,1.003,1.364c-1.596,6.326-2.224,12.819-2.665,19.322
									c-0.396,5.811,0.247,11.553,1.742,17.221C117.043,285.827,117.114,286.156,117.318,287.005z"/>
								<path style="fill-rule:evenodd;clip-rule:evenodd;fill:#FFFFFF;" d="M394.742,187.251c1.051-0.166,2.129-0.344,3.186-0.518
									c0.199,1.649,0.476,3.29,0.631,4.929c0.124,1.385,1.374,2.806-0.07,4.281C397.531,192.904,396.494,189.913,394.742,187.251z
									"/>
							</g>
							<g>
								<path style="fill-rule:evenodd;clip-rule:evenodd;fill:#FFFFFF;" d="M135.556,317.229c-1.722-2.686-3.43-5.183-4.965-7.77
									c-6.167-10.398-9.891-21.457-9.236-33.734c0.359-6.591,2.133-12.796,4.563-18.893c4.825-12.047,11.063-23.238,19.238-33.383
									c4.347-5.391,9.255-10.089,14.548-14.467c3.619-2.971,7.381-5.68,11.588-7.78c1.587-0.806,2.43-0.418,3.095,1.023
									c1.564,3.335,3.105,6.634,4.671,9.958c0.483,1.035,0.209,1.838-0.631,2.52c-1.052,0.848-2.164,1.639-3.198,2.531
									c-7.387,6.293-14.536,12.884-20.774,20.324c-4.12,4.951-8.137,10.022-11.492,15.535
									c-7.93,13.049-12.451,27.013-11.413,42.506c0.449,6.698,1.604,13.256,3.828,19.617
									C135.585,315.811,135.992,316.403,135.556,317.229z"/>
								<path style="fill-rule:evenodd;clip-rule:evenodd;fill:#FFFFFF;" d="M224.908,354.872c2.987-3.029,5.96-6.043,8.956-9.058
									c2.037,9.804,8.358,16.078,16.769,20.805c2.208,1.235,4.411,2.303,6.862,2.905c0.286,0.069,0.567,0.167,0.664,0.741
									c-5.321-0.918-10.663-1.136-15.602-3.512c-3.442-1.63-6.88-3.146-10.035-5.281
									C229.728,359.571,227.052,357.513,224.908,354.872z"/>
								<g>
									<path style="fill-rule:evenodd;clip-rule:evenodd;fill:#FFFFFF;" d="M343.144,149.159c-3.828-4.07-6.963-8.71-10.65-12.914
										c-1.736-1.997-3.491-3.975-5.546-5.649c7.026,1.025,13.786,3.114,20.509,5.337c3.3,1.112,6.449,2.59,9.58,4.13
										c0.642,0.315,1.291,0.601,1.556,1.349c-3.858,0.042-7.699,0.089-11.543,0.131c-1.112,0-2.219,0-3.367,0.166
										c4.336,2.024,9.132,1.98,13.613,3.268c-0.378,1.97-1.088,3.825-1.822,5.688c-0.47,1.18-1.148,1.521-2.458,1.13
										C349.742,150.831,346.522,149.719,343.144,149.159z"/>
									<g>
										<g>
											<path style="fill-rule:evenodd;clip-rule:evenodd;fill:#FFFFFF;" d="M264.731,70.542c2.12,0.721,4.384,0.565,6.539,1.1
												c1.003,0.242,2.023,0.418,3.018,0.787c-5.917,0.076-11.804,0.479-17.661,0.897c-11.564,0.868-23.215,1.535-34.384,4.846
												c-7.35,2.185-14.831,3.878-22.115,6.343c-0.717,0.264-1.29,0.462-1.696-0.517c-0.407-0.952,0.267-1.155,0.836-1.41
												c1.221-0.602,2.453-1.165,3.697-1.736c11.65-5.462,24.138-7.625,36.75-9.287c2.531-0.325,5.139-0.187,7.6-1.023
												C253.118,70.542,258.92,70.542,264.731,70.542z"/>
										</g>
										<path style="fill-rule:evenodd;clip-rule:evenodd;fill:#FFFFFF;" d="M333.462,94.363
											c-2.674-1.079-5.126-2.063-7.577-3.049c-14.44-5.875-29.497-9.054-45.03-9.974c-2.966-0.169-5.923-0.033-8.884,0.147
											c-0.822,0.063-1.847,0.155-2.11-0.839c-0.327-1.304-0.424-2.724,0.2-3.967c0.25-0.501,0.957-0.362,1.493-0.391
											c8.553-0.269,17.068,0.224,25.417,2.098c12.972,2.872,25.137,7.851,36.117,15.467
											C333.166,93.923,333.222,94.043,333.462,94.363z"/>
										<g>
											<path style="fill-rule:evenodd;clip-rule:evenodd;fill:#FFFFFF;" d="M240.507,152.268c-1.736,0-3.456,0-5.192,0
												c-0.011,0.076-0.011,0.147-0.023,0.229c0.608,0.139,1.209,0.271,1.818,0.431c-5.118,1.692-10.333,3.091-15.308,5.148
												c-11.455,4.738-23.06,9.28-33.634,15.861c-7.78,4.83-15.857,9.247-22.98,15.053
												c-6.602,5.348-13.253,10.727-19.095,16.942c-3.258,3.479-6.676,6.846-9.76,10.532c-0.946,1.122-1.879,1.286-3.048,0.428
												c-1.794-1.354-3.599-2.695-5.427-4.016c-1.307-0.937-1.524-2.07-0.958-3.555c1.88-5.06,5.253-9.087,8.746-13.059
												c6.662-7.595,14.556-13.81,22.396-20.124c7.756-6.274,16.206-11.456,24.646-16.691
												c10.662-6.615,22.164-11.385,33.762-16.006c16.468-6.574,33.623-10.38,51.001-13.395
												c2.095-0.352,4.255-0.298,6.266-1.096c11.02,1.206,22.035,2.432,33.328,3.687c-3.234,3.873-6.286,7.533-9.31,11.184
												c-1.903-0.04-3.795,0.114-5.685,0.198c-13.331,0.572-26.512,2.333-39.548,5.155
												C248.464,150.05,244.381,150.759,240.507,152.268z"/>
											<path style="fill-rule:evenodd;clip-rule:evenodd;fill:#FFFFFF;" d="M346.145,106.445
												c-6.681-1.771-13.396-3.471-20.215-4.705c-12.025-2.173-24.126-3.504-36.333-3.928
												c-21.57-0.748-42.811,1.448-63.628,7.202c-5.484,1.517-10.975,3.047-16.23,5.192
												c-11.501,4.666-23.187,8.964-33.935,15.284c-8.595,5.062-17.309,10.045-25.015,16.459
												c-5.848,4.871-11.872,9.613-16.972,15.297c-4.773,5.331-9.707,10.561-13.659,16.548
												c-3.354,5.083-6.845,10.097-9.441,15.625c-1.891,4.049-3.988,8.01-5.49,12.233c-0.155,0.431-0.209,0.914-0.771,1.3
												c-0.078-2.333,0.375-4.5,0.771-6.658c1.124-6.139,3.095-12.014,5.613-17.726c2.926-6.645,6.811-12.707,10.892-18.661
												c4.006-5.854,8.803-10.979,13.511-16.218c5.292-5.897,11.573-10.606,17.67-15.559
												c8.035-6.546,17.089-11.422,25.938-16.658c11.46-6.799,23.742-11.652,36.184-16.234
												c14.722-5.417,29.943-8.136,45.491-9.434c15.122-1.267,30.178-0.641,45.137,1.847c7.269,1.21,14.349,3.359,20.985,6.493
												c6.178,2.916,12.477,5.749,17.742,10.256c0.684,0.571,1.65,0.977,1.736,2.056L346.145,106.445z"/>
											<path style="fill-rule:evenodd;clip-rule:evenodd;fill:#FFFFFF;" d="M104.831,244.05
												c-0.66-4.372-0.66-8.661-0.442-12.963c0.663-13.128,4.534-25.308,10.826-36.805c3.61-6.579,8.041-12.532,12.699-18.369
												c4.413-5.52,9.627-10.23,14.651-15.148c6.584-6.468,14.054-11.738,21.442-17.186c8.816-6.503,18.55-11.291,28.321-16.069
												c14.906-7.322,30.763-11.763,46.648-16.247c6.066-1.706,12.143-2.915,18.362-3.602c2.482-0.261,4.968-0.299,7.456-0.007
												c1.03,0.12,1.803,0.545,1.923,1.706c0.251,2.409,0.495,4.826,0.292,7.251c-0.128,1.387-0.831,2.072-2.241,2.305
												c-10.633,1.808-21.207,3.944-31.49,7.136c-14.227,4.41-28.577,8.567-41.927,15.327
												c-9.521,4.829-18.919,10.046-27.401,16.604c-6.361,4.906-12.906,9.626-18.669,15.26
												c-5.538,5.414-11.257,10.652-16.22,16.616c-3.181,3.806-6.315,7.679-9.158,11.74c-4.53,6.437-7.282,13.765-10.075,21.06
												c-2.51,6.59-3.645,13.442-4.25,20.433C105.546,243.42,105.632,243.828,104.831,244.05z"/>
											<path style="fill-rule:evenodd;clip-rule:evenodd;fill:#FFFFFF;" d="M117.114,160.007
												c2.129-5.591,5.135-10.696,8.115-15.856c3.51-6.095,8.023-11.386,12.576-16.681c2.994-3.486,6.404-6.449,9.885-9.374
												c10.391-8.775,21.551-16.313,33.611-22.687c14.711-7.786,30.442-12.137,46.64-15.295
												c2.754-0.543,5.633-0.489,8.301-1.629c0.184-0.082,0.507-0.097,0.667-0.002c1.729,0.85,1.448,2.507,1.631,4.008
												c0.132,1.256-0.576,1.596-1.599,1.893c-10.859,2.893-21.782,5.671-32.292,9.692
												c-11.751,4.513-23.393,9.375-34.147,15.977c-7.802,4.787-15.533,9.789-22.539,15.701
												c-5.94,5.023-12.095,9.901-17.222,15.833c-4.318,4.995-8.685,10.003-11.98,15.801
												C118.264,158.279,118.207,159.451,117.114,160.007z"/>
											<path style="fill-rule:evenodd;clip-rule:evenodd;fill:#FFFFFF;" d="M147.038,115.298
												c7.631-7.445,15.789-14.179,24.955-19.671c0.507-0.306,1.017-0.506,1.441-0.977c0.53-0.601,1.287-1.266,2.08-0.296
												c0.737,0.91,0.51,1.617-0.501,2.291c-6.364,4.305-12.748,8.567-19.018,13.02c-2.872,2.033-5.599,4.255-8.808,5.791
												C147.135,115.399,147.096,115.353,147.038,115.298z"/>
											<path style="fill-rule:evenodd;clip-rule:evenodd;fill:#FFFFFF;" d="M147.187,115.456
												c-0.21,0.187-0.441,0.308-0.699,0.067c0.198-0.077,0.372-0.148,0.55-0.225
												C147.096,115.353,147.135,115.399,147.187,115.456z"/>
										</g>
									</g>
								</g>
							</g>
						</g>
						<g>
							<path style="fill-rule:evenodd;clip-rule:evenodd;fill:#FFFFFF;" d="M336.343,251.859c0.813,3.622,2.235,6.942,4.66,9.804
								c2.846,3.356,6.509,4.985,10.883,5.051c3.718,0.055,7.422,0.066,11.152,0.099c2.349,3.378,4.516,6.888,6.556,10.487
								c3.405,5.938,3.992,12.319,3.358,18.901c-1.403,14.5-7.891,26.638-17.438,37.422c-5.603,6.326-12.15,11.389-19.201,15.866
								c-1.132,0.716-1.905,1.948-3.325,2.236l0.023,0.027c0.438-0.934,1.206-1.526,2.035-2.097
								c4.909-3.358,9.344-7.255,13.458-11.556c0.391-0.431,0.878-0.802,0.958-1.451c6.411-3.479,9.627-9.023,10.495-16.109
								c0.062-0.463,0.089-0.936,0.124-1.397c3.902-11.356,4.825-22.579-1.8-33.306c-3.377-5.469-7.663-10.013-13.301-13.304
								c-5.198-3.015-10.749-4.808-16.603-5.82c-2.74-0.475-3.003-0.803-2.86-3.643c0.12-3.015,0.583-5.995,1.222-8.945
								c0.461-2.212,1.174-2.774,3.412-2.695C332.217,251.496,334.281,251.694,336.343,251.859z"/>
							<path style="fill-rule:evenodd;clip-rule:evenodd;fill:#FFFFFF;" d="M303.852,311.066
								c-7.146,2.279-14.322,4.447-21.415,6.899c-2.922,1.014-5.872,2.046-8.72,3.291c-4.968,2.188-7.794,6.313-9.037,11.409
								c-1.928,8.087-0.579,15.569,5.381,21.676c3.525,3.595,8.086,4.798,12.929,3.436c7.271-2.05,14.51-4.281,21.65-6.745
								c2.823-0.981,5.615-2.061,8.487-2.843c-8.493,7.438-18.7,10.895-29.65,12.356c-7.298,0.979-14.394-0.121-21.184-3.078
								c-8.625-3.774-11.807-11.156-8.817-20.081c2.644-7.889,8.343-13.15,14.957-17.673c8.66-5.93,18.441-8.284,28.698-9.043
								C299.374,310.506,301.621,310.749,303.852,311.066z"/>
							<path style="fill-rule:evenodd;clip-rule:evenodd;fill:#FFFFFF;" d="M329.472,343.139c2.844-0.878,5.656-1.812,8.5-2.693
								c0.595-0.187,1.181-0.54,1.868-0.274c-2.361,3.08-5.502,5.323-8.315,7.944c-8.912,8.31-19.86,12.31-31.41,15.16
								c-0.543,0.137-0.884,0.21-1.214-0.415C310.509,358.488,321.496,353.133,329.472,343.139z"/>
							<path style="fill-rule:evenodd;clip-rule:evenodd;fill:#FFFFFF;" d="M209.633,315.413c-0.461,0.563-1.167,0.607-1.771,0.615
								c-5.029,0.055-10.078,0.252-15.109-0.086c2.367-7.395,6.126-14.05,11.049-20.048c0.822-0.992,1.851-1.829,2.367-3.049
								c6.71,0.604,13.427,1.22,20.141,1.85c-5.412,4.489-9.567,10.065-13.579,15.756c-1.049,1.477-2.281,2.85-2.728,4.688
								l0.018-0.032C209.899,315.216,209.767,315.325,209.633,315.413z"/>
						</g>
					</g>
				</g>
			</g>
		</g>
		<path style="fill-rule:evenodd;clip-rule:evenodd;fill:#FFFFFF;" d="M394.099,228.083c-4.312,0.385-8.631,0.042-12.94,0.143
			c-1.004,0.031-2.004-0.033-3.002-0.044c-3.037-3.435-6.229-6.712-10.234-9.067c-0.053-6.094-0.22-12.18,0.085-18.274
			c3.375,1.891,6.561,4.049,9.609,6.512C384.66,213.097,390.409,219.744,394.099,228.083z"/>
	</g>
</g>
</svg>
