<?xml version="1.0" standalone="no"?>
<svg xmlns:xlink="http://www.w3.org/1999/xlink" id="wave" style="transform:rotate(0deg); transition: 0.3s" viewBox="0 0 1440 270" version="1.1" xmlns="http://www.w3.org/2000/svg"><defs><linearGradient id="sw-gradient-0" x1="0" x2="0" y1="1" y2="0"><stop stop-color="rgba(198.401, 86.859, 51.035, 1)" offset="0%"/><stop stop-color="rgba(255, 179, 11, 1)" offset="100%"/></linearGradient></defs><path style="transform:translate(0, 0px); opacity:1" fill="url(#sw-gradient-0)" d="M0,108L34.3,130.5C68.6,153,137,198,206,202.5C274.3,207,343,171,411,162C480,153,549,171,617,166.5C685.7,162,754,135,823,103.5C891.4,72,960,36,1029,31.5C1097.1,27,1166,54,1234,67.5C1302.9,81,1371,81,1440,108C1508.6,135,1577,189,1646,175.5C1714.3,162,1783,81,1851,63C1920,45,1989,90,2057,126C2125.7,162,2194,189,2263,193.5C2331.4,198,2400,180,2469,171C2537.1,162,2606,162,2674,144C2742.9,126,2811,90,2880,103.5C2948.6,117,3017,180,3086,202.5C3154.3,225,3223,207,3291,207C3360,207,3429,225,3497,234C3565.7,243,3634,243,3703,220.5C3771.4,198,3840,153,3909,117C3977.1,81,4046,54,4114,72C4182.9,90,4251,153,4320,166.5C4388.6,180,4457,144,4526,148.5C4594.3,153,4663,198,4731,180C4800,162,4869,81,4903,40.5L4937.1,0L4937.1,270L4902.9,270C4868.6,270,4800,270,4731,270C4662.9,270,4594,270,4526,270C4457.1,270,4389,270,4320,270C4251.4,270,4183,270,4114,270C4045.7,270,3977,270,3909,270C3840,270,3771,270,3703,270C3634.3,270,3566,270,3497,270C3428.6,270,3360,270,3291,270C3222.9,270,3154,270,3086,270C3017.1,270,2949,270,2880,270C2811.4,270,2743,270,2674,270C2605.7,270,2537,270,2469,270C2400,270,2331,270,2263,270C2194.3,270,2126,270,2057,270C1988.6,270,1920,270,1851,270C1782.9,270,1714,270,1646,270C1577.1,270,1509,270,1440,270C1371.4,270,1303,270,1234,270C1165.7,270,1097,270,1029,270C960,270,891,270,823,270C754.3,270,686,270,617,270C548.6,270,480,270,411,270C342.9,270,274,270,206,270C137.1,270,69,270,34,270L0,270Z"/><defs><linearGradient id="sw-gradient-1" x1="0" x2="0" y1="1" y2="0"><stop stop-color="rgba(243, 106, 62, 1)" offset="0%"/><stop stop-color="rgba(255, 179, 11, 1)" offset="100%"/></linearGradient></defs><path style="transform:translate(0, 50px); opacity:0.9" fill="url(#sw-gradient-1)" d="M0,81L34.3,94.5C68.6,108,137,135,206,157.5C274.3,180,343,198,411,189C480,180,549,144,617,130.5C685.7,117,754,126,823,148.5C891.4,171,960,207,1029,225C1097.1,243,1166,243,1234,243C1302.9,243,1371,243,1440,238.5C1508.6,234,1577,225,1646,220.5C1714.3,216,1783,216,1851,184.5C1920,153,1989,90,2057,67.5C2125.7,45,2194,63,2263,76.5C2331.4,90,2400,99,2469,117C2537.1,135,2606,162,2674,157.5C2742.9,153,2811,117,2880,90C2948.6,63,3017,45,3086,36C3154.3,27,3223,27,3291,22.5C3360,18,3429,9,3497,22.5C3565.7,36,3634,72,3703,81C3771.4,90,3840,72,3909,76.5C3977.1,81,4046,108,4114,121.5C4182.9,135,4251,135,4320,130.5C4388.6,126,4457,117,4526,121.5C4594.3,126,4663,144,4731,148.5C4800,153,4869,144,4903,139.5L4937.1,135L4937.1,270L4902.9,270C4868.6,270,4800,270,4731,270C4662.9,270,4594,270,4526,270C4457.1,270,4389,270,4320,270C4251.4,270,4183,270,4114,270C4045.7,270,3977,270,3909,270C3840,270,3771,270,3703,270C3634.3,270,3566,270,3497,270C3428.6,270,3360,270,3291,270C3222.9,270,3154,270,3086,270C3017.1,270,2949,270,2880,270C2811.4,270,2743,270,2674,270C2605.7,270,2537,270,2469,270C2400,270,2331,270,2263,270C2194.3,270,2126,270,2057,270C1988.6,270,1920,270,1851,270C1782.9,270,1714,270,1646,270C1577.1,270,1509,270,1440,270C1371.4,270,1303,270,1234,270C1165.7,270,1097,270,1029,270C960,270,891,270,823,270C754.3,270,686,270,617,270C548.6,270,480,270,411,270C342.9,270,274,270,206,270C137.1,270,69,270,34,270L0,270Z"/><defs><linearGradient id="sw-gradient-2" x1="0" x2="0" y1="1" y2="0"><stop stop-color="rgba(243, 106, 62, 1)" offset="0%"/><stop stop-color="rgba(255, 179, 11, 1)" offset="100%"/></linearGradient></defs><path style="transform:translate(0, 100px); opacity:0.8" fill="url(#sw-gradient-2)" d="M0,108L34.3,103.5C68.6,99,137,90,206,85.5C274.3,81,343,81,411,99C480,117,549,153,617,180C685.7,207,754,225,823,211.5C891.4,198,960,153,1029,144C1097.1,135,1166,162,1234,171C1302.9,180,1371,171,1440,166.5C1508.6,162,1577,162,1646,144C1714.3,126,1783,90,1851,90C1920,90,1989,126,2057,153C2125.7,180,2194,198,2263,198C2331.4,198,2400,180,2469,153C2537.1,126,2606,90,2674,76.5C2742.9,63,2811,72,2880,67.5C2948.6,63,3017,45,3086,54C3154.3,63,3223,99,3291,130.5C3360,162,3429,189,3497,184.5C3565.7,180,3634,144,3703,121.5C3771.4,99,3840,90,3909,94.5C3977.1,99,4046,117,4114,144C4182.9,171,4251,207,4320,193.5C4388.6,180,4457,117,4526,85.5C4594.3,54,4663,54,4731,49.5C4800,45,4869,36,4903,31.5L4937.1,27L4937.1,270L4902.9,270C4868.6,270,4800,270,4731,270C4662.9,270,4594,270,4526,270C4457.1,270,4389,270,4320,270C4251.4,270,4183,270,4114,270C4045.7,270,3977,270,3909,270C3840,270,3771,270,3703,270C3634.3,270,3566,270,3497,270C3428.6,270,3360,270,3291,270C3222.9,270,3154,270,3086,270C3017.1,270,2949,270,2880,270C2811.4,270,2743,270,2674,270C2605.7,270,2537,270,2469,270C2400,270,2331,270,2263,270C2194.3,270,2126,270,2057,270C1988.6,270,1920,270,1851,270C1782.9,270,1714,270,1646,270C1577.1,270,1509,270,1440,270C1371.4,270,1303,270,1234,270C1165.7,270,1097,270,1029,270C960,270,891,270,823,270C754.3,270,686,270,617,270C548.6,270,480,270,411,270C342.9,270,274,270,206,270C137.1,270,69,270,34,270L0,270Z"/></svg>